%TF.GenerationSoftware,KiCad,Pcbnew,(5.1.10-1-10_14)*%
%TF.CreationDate,2021-06-21T19:24:18+01:00*%
%TF.ProjectId,IAQ_Project,4941515f-5072-46f6-9a65-63742e6b6963,rev?*%
%TF.SameCoordinates,Original*%
%TF.FileFunction,Legend,Top*%
%TF.FilePolarity,Positive*%
%FSLAX46Y46*%
G04 Gerber Fmt 4.6, Leading zero omitted, Abs format (unit mm)*
G04 Created by KiCad (PCBNEW (5.1.10-1-10_14)) date 2021-06-21 19:24:18*
%MOMM*%
%LPD*%
G01*
G04 APERTURE LIST*
%ADD10C,0.120000*%
%ADD11C,0.150000*%
G04 APERTURE END LIST*
D10*
%TO.C,U3*%
X68355000Y-100820000D02*
X69135000Y-100820000D01*
X69135000Y-100820000D02*
X69135000Y-99820000D01*
X68355000Y-82580000D02*
X69135000Y-82580000D01*
X69135000Y-82580000D02*
X69135000Y-83580000D01*
X43390000Y-100820000D02*
X43390000Y-82580000D01*
X43390000Y-82580000D02*
X49810000Y-82580000D01*
X43390000Y-100820000D02*
X49810000Y-100820000D01*
X49810000Y-100820000D02*
X49810000Y-101200000D01*
%TO.C,U1*%
X72425000Y-78940000D02*
X75425000Y-78940000D01*
X73925000Y-82160000D02*
X75425000Y-82160000D01*
%TO.C,U2*%
X79550000Y-78940000D02*
X77100000Y-78940000D01*
X77750000Y-82160000D02*
X79550000Y-82160000D01*
%TO.C,U4*%
X76010000Y-114410000D02*
X76010000Y-113150000D01*
X76010000Y-107590000D02*
X76010000Y-108850000D01*
X72250000Y-114410000D02*
X76010000Y-114410000D01*
X70000000Y-107590000D02*
X76010000Y-107590000D01*
%TO.C,C3*%
X76212500Y-106297500D02*
X76212500Y-105672500D01*
X76525000Y-105985000D02*
X75900000Y-105985000D01*
X75660000Y-102604437D02*
X74595563Y-101540000D01*
X75660000Y-105995563D02*
X74595563Y-107060000D01*
X75660000Y-105995563D02*
X75660000Y-105360000D01*
X75660000Y-102604437D02*
X75660000Y-103240000D01*
X74595563Y-101540000D02*
X70140000Y-101540000D01*
X74595563Y-107060000D02*
X70140000Y-107060000D01*
X70140000Y-107060000D02*
X70140000Y-105360000D01*
X70140000Y-101540000D02*
X70140000Y-103240000D01*
%TO.C,C1*%
X78188748Y-76840000D02*
X78711252Y-76840000D01*
X78188748Y-78310000D02*
X78711252Y-78310000D01*
%TO.C,C2*%
X81615000Y-80188748D02*
X81615000Y-80711252D01*
X83085000Y-80188748D02*
X83085000Y-80711252D01*
%TO.C,C4*%
X68935000Y-112611252D02*
X68935000Y-112088748D01*
X67465000Y-112611252D02*
X67465000Y-112088748D01*
%TO.C,C5*%
X71861252Y-98985000D02*
X71338748Y-98985000D01*
X71861252Y-97515000D02*
X71338748Y-97515000D01*
%TO.C,C6*%
X51738748Y-106335000D02*
X52261252Y-106335000D01*
X51738748Y-104865000D02*
X52261252Y-104865000D01*
%TO.C,C7*%
X52261252Y-103835000D02*
X51738748Y-103835000D01*
X52261252Y-102365000D02*
X51738748Y-102365000D01*
%TO.C,C8*%
X63840000Y-113677836D02*
X63840000Y-113462164D01*
X64560000Y-113677836D02*
X64560000Y-113462164D01*
%TO.C,C9*%
X57540000Y-107592164D02*
X57540000Y-107807836D01*
X58260000Y-107592164D02*
X58260000Y-107807836D01*
%TO.C,D1*%
X52040000Y-113000000D02*
X52040000Y-115685000D01*
X52040000Y-115685000D02*
X53960000Y-115685000D01*
X53960000Y-115685000D02*
X53960000Y-113000000D01*
%TO.C,D2*%
X52040000Y-108315000D02*
X52040000Y-111000000D01*
X53960000Y-108315000D02*
X52040000Y-108315000D01*
X53960000Y-111000000D02*
X53960000Y-108315000D01*
%TO.C,D3*%
X63190000Y-78880000D02*
X63190000Y-76195000D01*
X63190000Y-76195000D02*
X61270000Y-76195000D01*
X61270000Y-76195000D02*
X61270000Y-78880000D01*
%TO.C,J2*%
X62790000Y-118350000D02*
X62790000Y-116640000D01*
X62790000Y-116640000D02*
X64850000Y-116640000D01*
X70510000Y-118350000D02*
X70510000Y-116640000D01*
X70510000Y-116640000D02*
X68450000Y-116640000D01*
X62790000Y-122460000D02*
X62790000Y-120850000D01*
X64850000Y-116640000D02*
X64850000Y-116050000D01*
X70510000Y-122460000D02*
X70510000Y-120850000D01*
X62790000Y-122460000D02*
X70510000Y-122460000D01*
%TO.C,R1*%
X54477500Y-114237258D02*
X54477500Y-113762742D01*
X55522500Y-114237258D02*
X55522500Y-113762742D01*
%TO.C,R2*%
X63962742Y-107277500D02*
X64437258Y-107277500D01*
X63962742Y-108322500D02*
X64437258Y-108322500D01*
%TO.C,R3*%
X54477500Y-109762742D02*
X54477500Y-110237258D01*
X55522500Y-109762742D02*
X55522500Y-110237258D01*
%TO.C,R4*%
X65022500Y-110312742D02*
X65022500Y-110787258D01*
X63977500Y-110312742D02*
X63977500Y-110787258D01*
%TO.C,R5*%
X71162742Y-100922500D02*
X71637258Y-100922500D01*
X71162742Y-99877500D02*
X71637258Y-99877500D01*
%TO.C,R6*%
X68112742Y-80527500D02*
X68587258Y-80527500D01*
X68112742Y-81572500D02*
X68587258Y-81572500D01*
%TO.C,R7*%
X71162742Y-86927500D02*
X71637258Y-86927500D01*
X71162742Y-87972500D02*
X71637258Y-87972500D01*
%TO.C,R8*%
X71162742Y-86322500D02*
X71637258Y-86322500D01*
X71162742Y-85277500D02*
X71637258Y-85277500D01*
%TO.C,R9*%
X55462742Y-108022500D02*
X55937258Y-108022500D01*
X55462742Y-106977500D02*
X55937258Y-106977500D01*
%TO.C,R10*%
X60822500Y-77937258D02*
X60822500Y-77462742D01*
X59777500Y-77937258D02*
X59777500Y-77462742D01*
%TO.C,R11*%
X71162742Y-95627500D02*
X71637258Y-95627500D01*
X71162742Y-96672500D02*
X71637258Y-96672500D01*
%TO.C,SW1*%
X65700000Y-75950000D02*
X65700000Y-75300000D01*
X65700000Y-75300000D02*
X67600000Y-75300000D01*
X67600000Y-75300000D02*
X67600000Y-75950000D01*
X68400000Y-79050000D02*
X64900000Y-79050000D01*
X64900000Y-75950000D02*
X68400000Y-75950000D01*
%TO.C,U5*%
X56940000Y-102790000D02*
X55140000Y-102790000D01*
X55140000Y-106010000D02*
X57590000Y-106010000D01*
D11*
%TO.C,U6*%
X61765000Y-114335000D02*
X61765000Y-114135000D01*
X57615000Y-114335000D02*
X57615000Y-114135000D01*
X57615000Y-109185000D02*
X57615000Y-109385000D01*
X61765000Y-109185000D02*
X61765000Y-109385000D01*
X61765000Y-114335000D02*
X57615000Y-114335000D01*
X61765000Y-109185000D02*
X57615000Y-109185000D01*
X61765000Y-114135000D02*
X63065000Y-114135000D01*
D10*
%TO.C,U7*%
X62500000Y-105910000D02*
X64700000Y-105910000D01*
X62500000Y-105910000D02*
X60300000Y-105910000D01*
X62500000Y-102690000D02*
X64700000Y-102690000D01*
X62500000Y-102690000D02*
X58900000Y-102690000D01*
%TO.C,J3*%
X49960000Y-111760000D02*
X48900000Y-111760000D01*
X49960000Y-110700000D02*
X49960000Y-111760000D01*
X49960000Y-109700000D02*
X47840000Y-109700000D01*
X47840000Y-109700000D02*
X47840000Y-107640000D01*
X49960000Y-109700000D02*
X49960000Y-107640000D01*
X49960000Y-107640000D02*
X47840000Y-107640000D01*
%TO.C,J1*%
X71175000Y-91840000D02*
X71175000Y-94500000D01*
X84335000Y-91860000D02*
X71275000Y-91860000D01*
X84335000Y-94520000D02*
X71175000Y-94500000D01*
X84335000Y-91860000D02*
X84335000Y-94520000D01*
X85605000Y-91860000D02*
X86935000Y-91860000D01*
X86935000Y-91860000D02*
X86935000Y-93190000D01*
%TO.C,RN1*%
X80705000Y-85800000D02*
X80705000Y-84800000D01*
X77345000Y-85800000D02*
X77345000Y-84800000D01*
%TO.C,U3*%
D11*
X52038095Y-80652380D02*
X52038095Y-81461904D01*
X52085714Y-81557142D01*
X52133333Y-81604761D01*
X52228571Y-81652380D01*
X52419047Y-81652380D01*
X52514285Y-81604761D01*
X52561904Y-81557142D01*
X52609523Y-81461904D01*
X52609523Y-80652380D01*
X52990476Y-80652380D02*
X53609523Y-80652380D01*
X53276190Y-81033333D01*
X53419047Y-81033333D01*
X53514285Y-81080952D01*
X53561904Y-81128571D01*
X53609523Y-81223809D01*
X53609523Y-81461904D01*
X53561904Y-81557142D01*
X53514285Y-81604761D01*
X53419047Y-81652380D01*
X53133333Y-81652380D01*
X53038095Y-81604761D01*
X52990476Y-81557142D01*
%TO.C,U1*%
X73138095Y-77552380D02*
X73138095Y-78361904D01*
X73185714Y-78457142D01*
X73233333Y-78504761D01*
X73328571Y-78552380D01*
X73519047Y-78552380D01*
X73614285Y-78504761D01*
X73661904Y-78457142D01*
X73709523Y-78361904D01*
X73709523Y-77552380D01*
X74709523Y-78552380D02*
X74138095Y-78552380D01*
X74423809Y-78552380D02*
X74423809Y-77552380D01*
X74328571Y-77695238D01*
X74233333Y-77790476D01*
X74138095Y-77838095D01*
%TO.C,U2*%
X75861904Y-81109523D02*
X76509523Y-81109523D01*
X76585714Y-81071428D01*
X76623809Y-81033333D01*
X76661904Y-80957142D01*
X76661904Y-80804761D01*
X76623809Y-80728571D01*
X76585714Y-80690476D01*
X76509523Y-80652380D01*
X75861904Y-80652380D01*
X75938095Y-80309523D02*
X75900000Y-80271428D01*
X75861904Y-80195238D01*
X75861904Y-80004761D01*
X75900000Y-79928571D01*
X75938095Y-79890476D01*
X76014285Y-79852380D01*
X76090476Y-79852380D01*
X76204761Y-79890476D01*
X76661904Y-80347619D01*
X76661904Y-79852380D01*
%TO.C,U4*%
X79647619Y-110238095D02*
X78838095Y-110238095D01*
X78742857Y-110285714D01*
X78695238Y-110333333D01*
X78647619Y-110428571D01*
X78647619Y-110619047D01*
X78695238Y-110714285D01*
X78742857Y-110761904D01*
X78838095Y-110809523D01*
X79647619Y-110809523D01*
X79314285Y-111714285D02*
X78647619Y-111714285D01*
X79695238Y-111476190D02*
X78980952Y-111238095D01*
X78980952Y-111857142D01*
%TO.C,C3*%
X78057142Y-104466666D02*
X78104761Y-104514285D01*
X78152380Y-104657142D01*
X78152380Y-104752380D01*
X78104761Y-104895238D01*
X78009523Y-104990476D01*
X77914285Y-105038095D01*
X77723809Y-105085714D01*
X77580952Y-105085714D01*
X77390476Y-105038095D01*
X77295238Y-104990476D01*
X77200000Y-104895238D01*
X77152380Y-104752380D01*
X77152380Y-104657142D01*
X77200000Y-104514285D01*
X77247619Y-104466666D01*
X77152380Y-104133333D02*
X77152380Y-103514285D01*
X77533333Y-103847619D01*
X77533333Y-103704761D01*
X77580952Y-103609523D01*
X77628571Y-103561904D01*
X77723809Y-103514285D01*
X77961904Y-103514285D01*
X78057142Y-103561904D01*
X78104761Y-103609523D01*
X78152380Y-103704761D01*
X78152380Y-103990476D01*
X78104761Y-104085714D01*
X78057142Y-104133333D01*
%TO.C,C1*%
X76557142Y-77666666D02*
X76604761Y-77714285D01*
X76652380Y-77857142D01*
X76652380Y-77952380D01*
X76604761Y-78095238D01*
X76509523Y-78190476D01*
X76414285Y-78238095D01*
X76223809Y-78285714D01*
X76080952Y-78285714D01*
X75890476Y-78238095D01*
X75795238Y-78190476D01*
X75700000Y-78095238D01*
X75652380Y-77952380D01*
X75652380Y-77857142D01*
X75700000Y-77714285D01*
X75747619Y-77666666D01*
X76652380Y-76714285D02*
X76652380Y-77285714D01*
X76652380Y-77000000D02*
X75652380Y-77000000D01*
X75795238Y-77095238D01*
X75890476Y-77190476D01*
X75938095Y-77285714D01*
%TO.C,C2*%
X82233333Y-78357142D02*
X82185714Y-78404761D01*
X82042857Y-78452380D01*
X81947619Y-78452380D01*
X81804761Y-78404761D01*
X81709523Y-78309523D01*
X81661904Y-78214285D01*
X81614285Y-78023809D01*
X81614285Y-77880952D01*
X81661904Y-77690476D01*
X81709523Y-77595238D01*
X81804761Y-77500000D01*
X81947619Y-77452380D01*
X82042857Y-77452380D01*
X82185714Y-77500000D01*
X82233333Y-77547619D01*
X82614285Y-77547619D02*
X82661904Y-77500000D01*
X82757142Y-77452380D01*
X82995238Y-77452380D01*
X83090476Y-77500000D01*
X83138095Y-77547619D01*
X83185714Y-77642857D01*
X83185714Y-77738095D01*
X83138095Y-77880952D01*
X82566666Y-78452380D01*
X83185714Y-78452380D01*
%TO.C,C4*%
X67014285Y-112450000D02*
X67042857Y-112478571D01*
X67071428Y-112564285D01*
X67071428Y-112621428D01*
X67042857Y-112707142D01*
X66985714Y-112764285D01*
X66928571Y-112792857D01*
X66814285Y-112821428D01*
X66728571Y-112821428D01*
X66614285Y-112792857D01*
X66557142Y-112764285D01*
X66500000Y-112707142D01*
X66471428Y-112621428D01*
X66471428Y-112564285D01*
X66500000Y-112478571D01*
X66528571Y-112450000D01*
X66671428Y-111935714D02*
X67071428Y-111935714D01*
X66442857Y-112078571D02*
X66871428Y-112221428D01*
X66871428Y-111850000D01*
%TO.C,C5*%
X74133333Y-98657142D02*
X74085714Y-98704761D01*
X73942857Y-98752380D01*
X73847619Y-98752380D01*
X73704761Y-98704761D01*
X73609523Y-98609523D01*
X73561904Y-98514285D01*
X73514285Y-98323809D01*
X73514285Y-98180952D01*
X73561904Y-97990476D01*
X73609523Y-97895238D01*
X73704761Y-97800000D01*
X73847619Y-97752380D01*
X73942857Y-97752380D01*
X74085714Y-97800000D01*
X74133333Y-97847619D01*
X75038095Y-97752380D02*
X74561904Y-97752380D01*
X74514285Y-98228571D01*
X74561904Y-98180952D01*
X74657142Y-98133333D01*
X74895238Y-98133333D01*
X74990476Y-98180952D01*
X75038095Y-98228571D01*
X75085714Y-98323809D01*
X75085714Y-98561904D01*
X75038095Y-98657142D01*
X74990476Y-98704761D01*
X74895238Y-98752380D01*
X74657142Y-98752380D01*
X74561904Y-98704761D01*
X74514285Y-98657142D01*
%TO.C,C6*%
X51900000Y-107214285D02*
X51871428Y-107242857D01*
X51785714Y-107271428D01*
X51728571Y-107271428D01*
X51642857Y-107242857D01*
X51585714Y-107185714D01*
X51557142Y-107128571D01*
X51528571Y-107014285D01*
X51528571Y-106928571D01*
X51557142Y-106814285D01*
X51585714Y-106757142D01*
X51642857Y-106700000D01*
X51728571Y-106671428D01*
X51785714Y-106671428D01*
X51871428Y-106700000D01*
X51900000Y-106728571D01*
X52414285Y-106671428D02*
X52300000Y-106671428D01*
X52242857Y-106700000D01*
X52214285Y-106728571D01*
X52157142Y-106814285D01*
X52128571Y-106928571D01*
X52128571Y-107157142D01*
X52157142Y-107214285D01*
X52185714Y-107242857D01*
X52242857Y-107271428D01*
X52357142Y-107271428D01*
X52414285Y-107242857D01*
X52442857Y-107214285D01*
X52471428Y-107157142D01*
X52471428Y-107014285D01*
X52442857Y-106957142D01*
X52414285Y-106928571D01*
X52357142Y-106900000D01*
X52242857Y-106900000D01*
X52185714Y-106928571D01*
X52157142Y-106957142D01*
X52128571Y-107014285D01*
%TO.C,C7*%
X51900000Y-102014285D02*
X51871428Y-102042857D01*
X51785714Y-102071428D01*
X51728571Y-102071428D01*
X51642857Y-102042857D01*
X51585714Y-101985714D01*
X51557142Y-101928571D01*
X51528571Y-101814285D01*
X51528571Y-101728571D01*
X51557142Y-101614285D01*
X51585714Y-101557142D01*
X51642857Y-101500000D01*
X51728571Y-101471428D01*
X51785714Y-101471428D01*
X51871428Y-101500000D01*
X51900000Y-101528571D01*
X52100000Y-101471428D02*
X52500000Y-101471428D01*
X52242857Y-102071428D01*
%TO.C,C8*%
X65314285Y-113600000D02*
X65342857Y-113628571D01*
X65371428Y-113714285D01*
X65371428Y-113771428D01*
X65342857Y-113857142D01*
X65285714Y-113914285D01*
X65228571Y-113942857D01*
X65114285Y-113971428D01*
X65028571Y-113971428D01*
X64914285Y-113942857D01*
X64857142Y-113914285D01*
X64800000Y-113857142D01*
X64771428Y-113771428D01*
X64771428Y-113714285D01*
X64800000Y-113628571D01*
X64828571Y-113600000D01*
X65028571Y-113257142D02*
X65000000Y-113314285D01*
X64971428Y-113342857D01*
X64914285Y-113371428D01*
X64885714Y-113371428D01*
X64828571Y-113342857D01*
X64800000Y-113314285D01*
X64771428Y-113257142D01*
X64771428Y-113142857D01*
X64800000Y-113085714D01*
X64828571Y-113057142D01*
X64885714Y-113028571D01*
X64914285Y-113028571D01*
X64971428Y-113057142D01*
X65000000Y-113085714D01*
X65028571Y-113142857D01*
X65028571Y-113257142D01*
X65057142Y-113314285D01*
X65085714Y-113342857D01*
X65142857Y-113371428D01*
X65257142Y-113371428D01*
X65314285Y-113342857D01*
X65342857Y-113314285D01*
X65371428Y-113257142D01*
X65371428Y-113142857D01*
X65342857Y-113085714D01*
X65314285Y-113057142D01*
X65257142Y-113028571D01*
X65142857Y-113028571D01*
X65085714Y-113057142D01*
X65057142Y-113085714D01*
X65028571Y-113142857D01*
%TO.C,C9*%
X59014285Y-107800000D02*
X59042857Y-107828571D01*
X59071428Y-107914285D01*
X59071428Y-107971428D01*
X59042857Y-108057142D01*
X58985714Y-108114285D01*
X58928571Y-108142857D01*
X58814285Y-108171428D01*
X58728571Y-108171428D01*
X58614285Y-108142857D01*
X58557142Y-108114285D01*
X58500000Y-108057142D01*
X58471428Y-107971428D01*
X58471428Y-107914285D01*
X58500000Y-107828571D01*
X58528571Y-107800000D01*
X59071428Y-107514285D02*
X59071428Y-107400000D01*
X59042857Y-107342857D01*
X59014285Y-107314285D01*
X58928571Y-107257142D01*
X58814285Y-107228571D01*
X58585714Y-107228571D01*
X58528571Y-107257142D01*
X58500000Y-107285714D01*
X58471428Y-107342857D01*
X58471428Y-107457142D01*
X58500000Y-107514285D01*
X58528571Y-107542857D01*
X58585714Y-107571428D01*
X58728571Y-107571428D01*
X58785714Y-107542857D01*
X58814285Y-107514285D01*
X58842857Y-107457142D01*
X58842857Y-107342857D01*
X58814285Y-107285714D01*
X58785714Y-107257142D01*
X58728571Y-107228571D01*
%TO.C,C10*%
X60014285Y-107014285D02*
X59985714Y-107042857D01*
X59900000Y-107071428D01*
X59842857Y-107071428D01*
X59757142Y-107042857D01*
X59700000Y-106985714D01*
X59671428Y-106928571D01*
X59642857Y-106814285D01*
X59642857Y-106728571D01*
X59671428Y-106614285D01*
X59700000Y-106557142D01*
X59757142Y-106500000D01*
X59842857Y-106471428D01*
X59900000Y-106471428D01*
X59985714Y-106500000D01*
X60014285Y-106528571D01*
X60585714Y-107071428D02*
X60242857Y-107071428D01*
X60414285Y-107071428D02*
X60414285Y-106471428D01*
X60357142Y-106557142D01*
X60300000Y-106614285D01*
X60242857Y-106642857D01*
X60957142Y-106471428D02*
X61014285Y-106471428D01*
X61071428Y-106500000D01*
X61100000Y-106528571D01*
X61128571Y-106585714D01*
X61157142Y-106700000D01*
X61157142Y-106842857D01*
X61128571Y-106957142D01*
X61100000Y-107014285D01*
X61071428Y-107042857D01*
X61014285Y-107071428D01*
X60957142Y-107071428D01*
X60900000Y-107042857D01*
X60871428Y-107014285D01*
X60842857Y-106957142D01*
X60814285Y-106842857D01*
X60814285Y-106700000D01*
X60842857Y-106585714D01*
X60871428Y-106528571D01*
X60900000Y-106500000D01*
X60957142Y-106471428D01*
%TO.C,D1*%
X51771428Y-114442857D02*
X51171428Y-114442857D01*
X51171428Y-114300000D01*
X51200000Y-114214285D01*
X51257142Y-114157142D01*
X51314285Y-114128571D01*
X51428571Y-114100000D01*
X51514285Y-114100000D01*
X51628571Y-114128571D01*
X51685714Y-114157142D01*
X51742857Y-114214285D01*
X51771428Y-114300000D01*
X51771428Y-114442857D01*
X51771428Y-113528571D02*
X51771428Y-113871428D01*
X51771428Y-113700000D02*
X51171428Y-113700000D01*
X51257142Y-113757142D01*
X51314285Y-113814285D01*
X51342857Y-113871428D01*
%TO.C,D2*%
X51771428Y-110442857D02*
X51171428Y-110442857D01*
X51171428Y-110300000D01*
X51200000Y-110214285D01*
X51257142Y-110157142D01*
X51314285Y-110128571D01*
X51428571Y-110100000D01*
X51514285Y-110100000D01*
X51628571Y-110128571D01*
X51685714Y-110157142D01*
X51742857Y-110214285D01*
X51771428Y-110300000D01*
X51771428Y-110442857D01*
X51228571Y-109871428D02*
X51200000Y-109842857D01*
X51171428Y-109785714D01*
X51171428Y-109642857D01*
X51200000Y-109585714D01*
X51228571Y-109557142D01*
X51285714Y-109528571D01*
X51342857Y-109528571D01*
X51428571Y-109557142D01*
X51771428Y-109900000D01*
X51771428Y-109528571D01*
%TO.C,D3*%
X61461904Y-80852380D02*
X61461904Y-79852380D01*
X61700000Y-79852380D01*
X61842857Y-79900000D01*
X61938095Y-79995238D01*
X61985714Y-80090476D01*
X62033333Y-80280952D01*
X62033333Y-80423809D01*
X61985714Y-80614285D01*
X61938095Y-80709523D01*
X61842857Y-80804761D01*
X61700000Y-80852380D01*
X61461904Y-80852380D01*
X62366666Y-79852380D02*
X62985714Y-79852380D01*
X62652380Y-80233333D01*
X62795238Y-80233333D01*
X62890476Y-80280952D01*
X62938095Y-80328571D01*
X62985714Y-80423809D01*
X62985714Y-80661904D01*
X62938095Y-80757142D01*
X62890476Y-80804761D01*
X62795238Y-80852380D01*
X62509523Y-80852380D01*
X62414285Y-80804761D01*
X62366666Y-80757142D01*
%TO.C,J2*%
X66383333Y-114561904D02*
X66383333Y-115133333D01*
X66345238Y-115247619D01*
X66269047Y-115323809D01*
X66154761Y-115361904D01*
X66078571Y-115361904D01*
X66726190Y-114638095D02*
X66764285Y-114600000D01*
X66840476Y-114561904D01*
X67030952Y-114561904D01*
X67107142Y-114600000D01*
X67145238Y-114638095D01*
X67183333Y-114714285D01*
X67183333Y-114790476D01*
X67145238Y-114904761D01*
X66688095Y-115361904D01*
X67183333Y-115361904D01*
%TO.C,R1*%
X54900000Y-116271428D02*
X54700000Y-115985714D01*
X54557142Y-116271428D02*
X54557142Y-115671428D01*
X54785714Y-115671428D01*
X54842857Y-115700000D01*
X54871428Y-115728571D01*
X54900000Y-115785714D01*
X54900000Y-115871428D01*
X54871428Y-115928571D01*
X54842857Y-115957142D01*
X54785714Y-115985714D01*
X54557142Y-115985714D01*
X55471428Y-116271428D02*
X55128571Y-116271428D01*
X55300000Y-116271428D02*
X55300000Y-115671428D01*
X55242857Y-115757142D01*
X55185714Y-115814285D01*
X55128571Y-115842857D01*
%TO.C,R2*%
X64100000Y-106871428D02*
X63900000Y-106585714D01*
X63757142Y-106871428D02*
X63757142Y-106271428D01*
X63985714Y-106271428D01*
X64042857Y-106300000D01*
X64071428Y-106328571D01*
X64100000Y-106385714D01*
X64100000Y-106471428D01*
X64071428Y-106528571D01*
X64042857Y-106557142D01*
X63985714Y-106585714D01*
X63757142Y-106585714D01*
X64328571Y-106328571D02*
X64357142Y-106300000D01*
X64414285Y-106271428D01*
X64557142Y-106271428D01*
X64614285Y-106300000D01*
X64642857Y-106328571D01*
X64671428Y-106385714D01*
X64671428Y-106442857D01*
X64642857Y-106528571D01*
X64300000Y-106871428D01*
X64671428Y-106871428D01*
%TO.C,R3*%
X54900000Y-112271428D02*
X54700000Y-111985714D01*
X54557142Y-112271428D02*
X54557142Y-111671428D01*
X54785714Y-111671428D01*
X54842857Y-111700000D01*
X54871428Y-111728571D01*
X54900000Y-111785714D01*
X54900000Y-111871428D01*
X54871428Y-111928571D01*
X54842857Y-111957142D01*
X54785714Y-111985714D01*
X54557142Y-111985714D01*
X55100000Y-111671428D02*
X55471428Y-111671428D01*
X55271428Y-111900000D01*
X55357142Y-111900000D01*
X55414285Y-111928571D01*
X55442857Y-111957142D01*
X55471428Y-112014285D01*
X55471428Y-112157142D01*
X55442857Y-112214285D01*
X55414285Y-112242857D01*
X55357142Y-112271428D01*
X55185714Y-112271428D01*
X55128571Y-112242857D01*
X55100000Y-112214285D01*
%TO.C,R4*%
X65971428Y-110600000D02*
X65685714Y-110800000D01*
X65971428Y-110942857D02*
X65371428Y-110942857D01*
X65371428Y-110714285D01*
X65400000Y-110657142D01*
X65428571Y-110628571D01*
X65485714Y-110600000D01*
X65571428Y-110600000D01*
X65628571Y-110628571D01*
X65657142Y-110657142D01*
X65685714Y-110714285D01*
X65685714Y-110942857D01*
X65571428Y-110085714D02*
X65971428Y-110085714D01*
X65342857Y-110228571D02*
X65771428Y-110371428D01*
X65771428Y-110000000D01*
%TO.C,R5*%
X73733333Y-100852380D02*
X73400000Y-100376190D01*
X73161904Y-100852380D02*
X73161904Y-99852380D01*
X73542857Y-99852380D01*
X73638095Y-99900000D01*
X73685714Y-99947619D01*
X73733333Y-100042857D01*
X73733333Y-100185714D01*
X73685714Y-100280952D01*
X73638095Y-100328571D01*
X73542857Y-100376190D01*
X73161904Y-100376190D01*
X74638095Y-99852380D02*
X74161904Y-99852380D01*
X74114285Y-100328571D01*
X74161904Y-100280952D01*
X74257142Y-100233333D01*
X74495238Y-100233333D01*
X74590476Y-100280952D01*
X74638095Y-100328571D01*
X74685714Y-100423809D01*
X74685714Y-100661904D01*
X74638095Y-100757142D01*
X74590476Y-100804761D01*
X74495238Y-100852380D01*
X74257142Y-100852380D01*
X74161904Y-100804761D01*
X74114285Y-100757142D01*
%TO.C,R6*%
X65733333Y-81552380D02*
X65400000Y-81076190D01*
X65161904Y-81552380D02*
X65161904Y-80552380D01*
X65542857Y-80552380D01*
X65638095Y-80600000D01*
X65685714Y-80647619D01*
X65733333Y-80742857D01*
X65733333Y-80885714D01*
X65685714Y-80980952D01*
X65638095Y-81028571D01*
X65542857Y-81076190D01*
X65161904Y-81076190D01*
X66590476Y-80552380D02*
X66400000Y-80552380D01*
X66304761Y-80600000D01*
X66257142Y-80647619D01*
X66161904Y-80790476D01*
X66114285Y-80980952D01*
X66114285Y-81361904D01*
X66161904Y-81457142D01*
X66209523Y-81504761D01*
X66304761Y-81552380D01*
X66495238Y-81552380D01*
X66590476Y-81504761D01*
X66638095Y-81457142D01*
X66685714Y-81361904D01*
X66685714Y-81123809D01*
X66638095Y-81028571D01*
X66590476Y-80980952D01*
X66495238Y-80933333D01*
X66304761Y-80933333D01*
X66209523Y-80980952D01*
X66161904Y-81028571D01*
X66114285Y-81123809D01*
%TO.C,R7*%
X73733333Y-87902380D02*
X73400000Y-87426190D01*
X73161904Y-87902380D02*
X73161904Y-86902380D01*
X73542857Y-86902380D01*
X73638095Y-86950000D01*
X73685714Y-86997619D01*
X73733333Y-87092857D01*
X73733333Y-87235714D01*
X73685714Y-87330952D01*
X73638095Y-87378571D01*
X73542857Y-87426190D01*
X73161904Y-87426190D01*
X74066666Y-86902380D02*
X74733333Y-86902380D01*
X74304761Y-87902380D01*
%TO.C,R8*%
X73733333Y-86252380D02*
X73400000Y-85776190D01*
X73161904Y-86252380D02*
X73161904Y-85252380D01*
X73542857Y-85252380D01*
X73638095Y-85300000D01*
X73685714Y-85347619D01*
X73733333Y-85442857D01*
X73733333Y-85585714D01*
X73685714Y-85680952D01*
X73638095Y-85728571D01*
X73542857Y-85776190D01*
X73161904Y-85776190D01*
X74304761Y-85680952D02*
X74209523Y-85633333D01*
X74161904Y-85585714D01*
X74114285Y-85490476D01*
X74114285Y-85442857D01*
X74161904Y-85347619D01*
X74209523Y-85300000D01*
X74304761Y-85252380D01*
X74495238Y-85252380D01*
X74590476Y-85300000D01*
X74638095Y-85347619D01*
X74685714Y-85442857D01*
X74685714Y-85490476D01*
X74638095Y-85585714D01*
X74590476Y-85633333D01*
X74495238Y-85680952D01*
X74304761Y-85680952D01*
X74209523Y-85728571D01*
X74161904Y-85776190D01*
X74114285Y-85871428D01*
X74114285Y-86061904D01*
X74161904Y-86157142D01*
X74209523Y-86204761D01*
X74304761Y-86252380D01*
X74495238Y-86252380D01*
X74590476Y-86204761D01*
X74638095Y-86157142D01*
X74685714Y-86061904D01*
X74685714Y-85871428D01*
X74638095Y-85776190D01*
X74590476Y-85728571D01*
X74495238Y-85680952D01*
%TO.C,R9*%
X54071428Y-107500000D02*
X53785714Y-107700000D01*
X54071428Y-107842857D02*
X53471428Y-107842857D01*
X53471428Y-107614285D01*
X53500000Y-107557142D01*
X53528571Y-107528571D01*
X53585714Y-107500000D01*
X53671428Y-107500000D01*
X53728571Y-107528571D01*
X53757142Y-107557142D01*
X53785714Y-107614285D01*
X53785714Y-107842857D01*
X54071428Y-107214285D02*
X54071428Y-107100000D01*
X54042857Y-107042857D01*
X54014285Y-107014285D01*
X53928571Y-106957142D01*
X53814285Y-106928571D01*
X53585714Y-106928571D01*
X53528571Y-106957142D01*
X53500000Y-106985714D01*
X53471428Y-107042857D01*
X53471428Y-107157142D01*
X53500000Y-107214285D01*
X53528571Y-107242857D01*
X53585714Y-107271428D01*
X53728571Y-107271428D01*
X53785714Y-107242857D01*
X53814285Y-107214285D01*
X53842857Y-107157142D01*
X53842857Y-107042857D01*
X53814285Y-106985714D01*
X53785714Y-106957142D01*
X53728571Y-106928571D01*
%TO.C,R10*%
X59322380Y-78242857D02*
X58846190Y-78576190D01*
X59322380Y-78814285D02*
X58322380Y-78814285D01*
X58322380Y-78433333D01*
X58370000Y-78338095D01*
X58417619Y-78290476D01*
X58512857Y-78242857D01*
X58655714Y-78242857D01*
X58750952Y-78290476D01*
X58798571Y-78338095D01*
X58846190Y-78433333D01*
X58846190Y-78814285D01*
X59322380Y-77290476D02*
X59322380Y-77861904D01*
X59322380Y-77576190D02*
X58322380Y-77576190D01*
X58465238Y-77671428D01*
X58560476Y-77766666D01*
X58608095Y-77861904D01*
X58322380Y-76671428D02*
X58322380Y-76576190D01*
X58370000Y-76480952D01*
X58417619Y-76433333D01*
X58512857Y-76385714D01*
X58703333Y-76338095D01*
X58941428Y-76338095D01*
X59131904Y-76385714D01*
X59227142Y-76433333D01*
X59274761Y-76480952D01*
X59322380Y-76576190D01*
X59322380Y-76671428D01*
X59274761Y-76766666D01*
X59227142Y-76814285D01*
X59131904Y-76861904D01*
X58941428Y-76909523D01*
X58703333Y-76909523D01*
X58512857Y-76861904D01*
X58417619Y-76814285D01*
X58370000Y-76766666D01*
X58322380Y-76671428D01*
%TO.C,R11*%
X73757142Y-96652380D02*
X73423809Y-96176190D01*
X73185714Y-96652380D02*
X73185714Y-95652380D01*
X73566666Y-95652380D01*
X73661904Y-95700000D01*
X73709523Y-95747619D01*
X73757142Y-95842857D01*
X73757142Y-95985714D01*
X73709523Y-96080952D01*
X73661904Y-96128571D01*
X73566666Y-96176190D01*
X73185714Y-96176190D01*
X74709523Y-96652380D02*
X74138095Y-96652380D01*
X74423809Y-96652380D02*
X74423809Y-95652380D01*
X74328571Y-95795238D01*
X74233333Y-95890476D01*
X74138095Y-95938095D01*
X75661904Y-96652380D02*
X75090476Y-96652380D01*
X75376190Y-96652380D02*
X75376190Y-95652380D01*
X75280952Y-95795238D01*
X75185714Y-95890476D01*
X75090476Y-95938095D01*
%TO.C,SW1*%
X70604761Y-78833333D02*
X70652380Y-78690476D01*
X70652380Y-78452380D01*
X70604761Y-78357142D01*
X70557142Y-78309523D01*
X70461904Y-78261904D01*
X70366666Y-78261904D01*
X70271428Y-78309523D01*
X70223809Y-78357142D01*
X70176190Y-78452380D01*
X70128571Y-78642857D01*
X70080952Y-78738095D01*
X70033333Y-78785714D01*
X69938095Y-78833333D01*
X69842857Y-78833333D01*
X69747619Y-78785714D01*
X69700000Y-78738095D01*
X69652380Y-78642857D01*
X69652380Y-78404761D01*
X69700000Y-78261904D01*
X69652380Y-77928571D02*
X70652380Y-77690476D01*
X69938095Y-77500000D01*
X70652380Y-77309523D01*
X69652380Y-77071428D01*
X70652380Y-76166666D02*
X70652380Y-76738095D01*
X70652380Y-76452380D02*
X69652380Y-76452380D01*
X69795238Y-76547619D01*
X69890476Y-76642857D01*
X69938095Y-76738095D01*
%TO.C,U5*%
X55566666Y-101716666D02*
X55566666Y-102283333D01*
X55600000Y-102350000D01*
X55633333Y-102383333D01*
X55700000Y-102416666D01*
X55833333Y-102416666D01*
X55900000Y-102383333D01*
X55933333Y-102350000D01*
X55966666Y-102283333D01*
X55966666Y-101716666D01*
X56633333Y-101716666D02*
X56300000Y-101716666D01*
X56266666Y-102050000D01*
X56300000Y-102016666D01*
X56366666Y-101983333D01*
X56533333Y-101983333D01*
X56600000Y-102016666D01*
X56633333Y-102050000D01*
X56666666Y-102116666D01*
X56666666Y-102283333D01*
X56633333Y-102350000D01*
X56600000Y-102383333D01*
X56533333Y-102416666D01*
X56366666Y-102416666D01*
X56300000Y-102383333D01*
X56266666Y-102350000D01*
%TO.C,U6*%
X59166666Y-114616666D02*
X59166666Y-115183333D01*
X59200000Y-115250000D01*
X59233333Y-115283333D01*
X59300000Y-115316666D01*
X59433333Y-115316666D01*
X59500000Y-115283333D01*
X59533333Y-115250000D01*
X59566666Y-115183333D01*
X59566666Y-114616666D01*
X60200000Y-114616666D02*
X60066666Y-114616666D01*
X60000000Y-114650000D01*
X59966666Y-114683333D01*
X59900000Y-114783333D01*
X59866666Y-114916666D01*
X59866666Y-115183333D01*
X59900000Y-115250000D01*
X59933333Y-115283333D01*
X60000000Y-115316666D01*
X60133333Y-115316666D01*
X60200000Y-115283333D01*
X60233333Y-115250000D01*
X60266666Y-115183333D01*
X60266666Y-115016666D01*
X60233333Y-114950000D01*
X60200000Y-114916666D01*
X60133333Y-114883333D01*
X60000000Y-114883333D01*
X59933333Y-114916666D01*
X59900000Y-114950000D01*
X59866666Y-115016666D01*
%TO.C,U7*%
X61966666Y-101716666D02*
X61966666Y-102283333D01*
X62000000Y-102350000D01*
X62033333Y-102383333D01*
X62100000Y-102416666D01*
X62233333Y-102416666D01*
X62300000Y-102383333D01*
X62333333Y-102350000D01*
X62366666Y-102283333D01*
X62366666Y-101716666D01*
X62633333Y-101716666D02*
X63100000Y-101716666D01*
X62800000Y-102416666D01*
%TO.C,J3*%
X46461904Y-109966666D02*
X47033333Y-109966666D01*
X47147619Y-110004761D01*
X47223809Y-110080952D01*
X47261904Y-110195238D01*
X47261904Y-110271428D01*
X46461904Y-109661904D02*
X46461904Y-109166666D01*
X46766666Y-109433333D01*
X46766666Y-109319047D01*
X46804761Y-109242857D01*
X46842857Y-109204761D01*
X46919047Y-109166666D01*
X47109523Y-109166666D01*
X47185714Y-109204761D01*
X47223809Y-109242857D01*
X47261904Y-109319047D01*
X47261904Y-109547619D01*
X47223809Y-109623809D01*
X47185714Y-109661904D01*
%TO.C,J1*%
X78766666Y-90152380D02*
X78766666Y-90866666D01*
X78719047Y-91009523D01*
X78623809Y-91104761D01*
X78480952Y-91152380D01*
X78385714Y-91152380D01*
X79766666Y-91152380D02*
X79195238Y-91152380D01*
X79480952Y-91152380D02*
X79480952Y-90152380D01*
X79385714Y-90295238D01*
X79290476Y-90390476D01*
X79195238Y-90438095D01*
%TO.C,RN1*%
X82277380Y-85990476D02*
X81801190Y-86323809D01*
X82277380Y-86561904D02*
X81277380Y-86561904D01*
X81277380Y-86180952D01*
X81325000Y-86085714D01*
X81372619Y-86038095D01*
X81467857Y-85990476D01*
X81610714Y-85990476D01*
X81705952Y-86038095D01*
X81753571Y-86085714D01*
X81801190Y-86180952D01*
X81801190Y-86561904D01*
X82277380Y-85561904D02*
X81277380Y-85561904D01*
X82277380Y-84990476D01*
X81277380Y-84990476D01*
X82277380Y-83990476D02*
X82277380Y-84561904D01*
X82277380Y-84276190D02*
X81277380Y-84276190D01*
X81420238Y-84371428D01*
X81515476Y-84466666D01*
X81563095Y-84561904D01*
%TD*%
M02*
