%TF.GenerationSoftware,KiCad,Pcbnew,(5.1.10-1-10_14)*%
%TF.CreationDate,2021-06-21T19:24:18+01:00*%
%TF.ProjectId,IAQ_Project,4941515f-5072-46f6-9a65-63742e6b6963,rev?*%
%TF.SameCoordinates,Original*%
%TF.FileFunction,Legend,Bot*%
%TF.FilePolarity,Positive*%
%FSLAX46Y46*%
G04 Gerber Fmt 4.6, Leading zero omitted, Abs format (unit mm)*
G04 Created by KiCad (PCBNEW (5.1.10-1-10_14)) date 2021-06-21 19:24:18*
%MOMM*%
%LPD*%
G01*
G04 APERTURE LIST*
%ADD10C,0.300000*%
%ADD11C,0.010000*%
G04 APERTURE END LIST*
D10*
X53464285Y-77421428D02*
X53464285Y-78921428D01*
X54107142Y-77850000D02*
X54821428Y-77850000D01*
X53964285Y-77421428D02*
X54464285Y-78921428D01*
X54964285Y-77421428D01*
X56464285Y-77278571D02*
X56321428Y-77350000D01*
X56178571Y-77492857D01*
X55964285Y-77707142D01*
X55821428Y-77778571D01*
X55678571Y-77778571D01*
X55750000Y-77421428D02*
X55607142Y-77492857D01*
X55464285Y-77635714D01*
X55392857Y-77921428D01*
X55392857Y-78421428D01*
X55464285Y-78707142D01*
X55607142Y-78850000D01*
X55750000Y-78921428D01*
X56035714Y-78921428D01*
X56178571Y-78850000D01*
X56321428Y-78707142D01*
X56392857Y-78421428D01*
X56392857Y-77921428D01*
X56321428Y-77635714D01*
X56178571Y-77492857D01*
X56035714Y-77421428D01*
X55750000Y-77421428D01*
X56678571Y-77278571D02*
X57821428Y-77278571D01*
X58178571Y-77421428D02*
X58178571Y-78921428D01*
X58750000Y-78921428D01*
X58892857Y-78850000D01*
X58964285Y-78778571D01*
X59035714Y-78635714D01*
X59035714Y-78421428D01*
X58964285Y-78278571D01*
X58892857Y-78207142D01*
X58750000Y-78135714D01*
X58178571Y-78135714D01*
X60535714Y-77564285D02*
X60464285Y-77492857D01*
X60250000Y-77421428D01*
X60107142Y-77421428D01*
X59892857Y-77492857D01*
X59750000Y-77635714D01*
X59678571Y-77778571D01*
X59607142Y-78064285D01*
X59607142Y-78278571D01*
X59678571Y-78564285D01*
X59750000Y-78707142D01*
X59892857Y-78850000D01*
X60107142Y-78921428D01*
X60250000Y-78921428D01*
X60464285Y-78850000D01*
X60535714Y-78778571D01*
X61678571Y-78207142D02*
X61892857Y-78135714D01*
X61964285Y-78064285D01*
X62035714Y-77921428D01*
X62035714Y-77707142D01*
X61964285Y-77564285D01*
X61892857Y-77492857D01*
X61750000Y-77421428D01*
X61178571Y-77421428D01*
X61178571Y-78921428D01*
X61678571Y-78921428D01*
X61821428Y-78850000D01*
X61892857Y-78778571D01*
X61964285Y-78635714D01*
X61964285Y-78492857D01*
X61892857Y-78350000D01*
X61821428Y-78278571D01*
X61678571Y-78207142D01*
X61178571Y-78207142D01*
X62321428Y-77278571D02*
X63464285Y-77278571D01*
X63607142Y-78921428D02*
X64107142Y-77421428D01*
X64607142Y-78921428D01*
X65892857Y-77421428D02*
X65035714Y-77421428D01*
X65464285Y-77421428D02*
X65464285Y-78921428D01*
X65321428Y-78707142D01*
X65178571Y-78564285D01*
X65035714Y-78492857D01*
X66178571Y-77278571D02*
X67321428Y-77278571D01*
X68178571Y-78207142D02*
X67678571Y-78207142D01*
X67678571Y-77421428D02*
X67678571Y-78921428D01*
X68392857Y-78921428D01*
X69464285Y-78207142D02*
X68964285Y-78207142D01*
X68964285Y-77421428D02*
X68964285Y-78921428D01*
X69678571Y-78921428D01*
X69892857Y-77278571D02*
X71035714Y-77278571D01*
X71321428Y-78778571D02*
X71392857Y-78850000D01*
X71535714Y-78921428D01*
X71892857Y-78921428D01*
X72035714Y-78850000D01*
X72107142Y-78778571D01*
X72178571Y-78635714D01*
X72178571Y-78492857D01*
X72107142Y-78278571D01*
X71250000Y-77421428D01*
X72178571Y-77421428D01*
X73107142Y-78921428D02*
X73250000Y-78921428D01*
X73392857Y-78850000D01*
X73464285Y-78778571D01*
X73535714Y-78635714D01*
X73607142Y-78350000D01*
X73607142Y-77992857D01*
X73535714Y-77707142D01*
X73464285Y-77564285D01*
X73392857Y-77492857D01*
X73250000Y-77421428D01*
X73107142Y-77421428D01*
X72964285Y-77492857D01*
X72892857Y-77564285D01*
X72821428Y-77707142D01*
X72750000Y-77992857D01*
X72750000Y-78350000D01*
X72821428Y-78635714D01*
X72892857Y-78778571D01*
X72964285Y-78850000D01*
X73107142Y-78921428D01*
X73892857Y-77278571D02*
X75035714Y-77278571D01*
X75678571Y-78921428D02*
X75821428Y-78921428D01*
X75964285Y-78850000D01*
X76035714Y-78778571D01*
X76107142Y-78635714D01*
X76178571Y-78350000D01*
X76178571Y-77992857D01*
X76107142Y-77707142D01*
X76035714Y-77564285D01*
X75964285Y-77492857D01*
X75821428Y-77421428D01*
X75678571Y-77421428D01*
X75535714Y-77492857D01*
X75464285Y-77564285D01*
X75392857Y-77707142D01*
X75321428Y-77992857D01*
X75321428Y-78350000D01*
X75392857Y-78635714D01*
X75464285Y-78778571D01*
X75535714Y-78850000D01*
X75678571Y-78921428D01*
X77464285Y-78921428D02*
X77178571Y-78921428D01*
X77035714Y-78850000D01*
X76964285Y-78778571D01*
X76821428Y-78564285D01*
X76750000Y-78278571D01*
X76750000Y-77707142D01*
X76821428Y-77564285D01*
X76892857Y-77492857D01*
X77035714Y-77421428D01*
X77321428Y-77421428D01*
X77464285Y-77492857D01*
X77535714Y-77564285D01*
X77607142Y-77707142D01*
X77607142Y-78064285D01*
X77535714Y-78207142D01*
X77464285Y-78278571D01*
X77321428Y-78350000D01*
X77035714Y-78350000D01*
X76892857Y-78278571D01*
X76821428Y-78207142D01*
X76750000Y-78064285D01*
X77892857Y-77278571D02*
X79035714Y-77278571D01*
X79321428Y-78778571D02*
X79392857Y-78850000D01*
X79535714Y-78921428D01*
X79892857Y-78921428D01*
X80035714Y-78850000D01*
X80107142Y-78778571D01*
X80178571Y-78635714D01*
X80178571Y-78492857D01*
X80107142Y-78278571D01*
X79250000Y-77421428D01*
X80178571Y-77421428D01*
X81607142Y-77421428D02*
X80750000Y-77421428D01*
X81178571Y-77421428D02*
X81178571Y-78921428D01*
X81035714Y-78707142D01*
X80892857Y-78564285D01*
X80750000Y-78492857D01*
D11*
%TO.C,G\u002A\u002A\u002A*%
G36*
X62408616Y-99139890D02*
G01*
X62520026Y-99078967D01*
X62591147Y-99001234D01*
X62650300Y-98918300D01*
X62663000Y-96429100D01*
X62665141Y-96017226D01*
X62667154Y-95653119D01*
X62669109Y-95333749D01*
X62671074Y-95056084D01*
X62673119Y-94817094D01*
X62675312Y-94613745D01*
X62677724Y-94443008D01*
X62680424Y-94301850D01*
X62683480Y-94187241D01*
X62686962Y-94096148D01*
X62690939Y-94025541D01*
X62695480Y-93972387D01*
X62700655Y-93933656D01*
X62706533Y-93906316D01*
X62713183Y-93887335D01*
X62720675Y-93873683D01*
X62721388Y-93872619D01*
X62733121Y-93854252D01*
X62743794Y-93837616D01*
X62755850Y-93822624D01*
X62771735Y-93809191D01*
X62793893Y-93797233D01*
X62824770Y-93786662D01*
X62866809Y-93777395D01*
X62922457Y-93769346D01*
X62994158Y-93762429D01*
X63084356Y-93756559D01*
X63195497Y-93751651D01*
X63330025Y-93747619D01*
X63490385Y-93744377D01*
X63679022Y-93741841D01*
X63898381Y-93739925D01*
X64150907Y-93738544D01*
X64439044Y-93737611D01*
X64765238Y-93737043D01*
X65131933Y-93736753D01*
X65541574Y-93736656D01*
X65996605Y-93736666D01*
X66499473Y-93736699D01*
X66612700Y-93736700D01*
X67118424Y-93736722D01*
X67575835Y-93736807D01*
X67987419Y-93736985D01*
X68355662Y-93737288D01*
X68683050Y-93737745D01*
X68972071Y-93738388D01*
X69225210Y-93739245D01*
X69444953Y-93740349D01*
X69633788Y-93741730D01*
X69794201Y-93743417D01*
X69928677Y-93745441D01*
X70039704Y-93747833D01*
X70129768Y-93750624D01*
X70201355Y-93753843D01*
X70256952Y-93757521D01*
X70299044Y-93761689D01*
X70330119Y-93766376D01*
X70352663Y-93771614D01*
X70369162Y-93777433D01*
X70380250Y-93782838D01*
X70405801Y-93796243D01*
X70428417Y-93808914D01*
X70448278Y-93823860D01*
X70465563Y-93844092D01*
X70480452Y-93872617D01*
X70493123Y-93912446D01*
X70503757Y-93966587D01*
X70512533Y-94038051D01*
X70519629Y-94129847D01*
X70525226Y-94244983D01*
X70529503Y-94386471D01*
X70532640Y-94557318D01*
X70534814Y-94760534D01*
X70536207Y-94999130D01*
X70536997Y-95276113D01*
X70537364Y-95594494D01*
X70537487Y-95957282D01*
X70537546Y-96367486D01*
X70537557Y-96421935D01*
X70537687Y-96827525D01*
X70537916Y-97185447D01*
X70538305Y-97498832D01*
X70538913Y-97770813D01*
X70539799Y-98004521D01*
X70541022Y-98203088D01*
X70542641Y-98369646D01*
X70544716Y-98507327D01*
X70547307Y-98619262D01*
X70550472Y-98708583D01*
X70554271Y-98778422D01*
X70558764Y-98831911D01*
X70564008Y-98872182D01*
X70570065Y-98902366D01*
X70576992Y-98925595D01*
X70584850Y-98945001D01*
X70585358Y-98946125D01*
X70659547Y-99057809D01*
X70762012Y-99127579D01*
X70893511Y-99155848D01*
X70965532Y-99154919D01*
X71112021Y-99125989D01*
X71223029Y-99061957D01*
X71301349Y-98961121D01*
X71309044Y-98945708D01*
X71315888Y-98927993D01*
X71321922Y-98903456D01*
X71327185Y-98869104D01*
X71331718Y-98821940D01*
X71335559Y-98758968D01*
X71338749Y-98677195D01*
X71341327Y-98573623D01*
X71343333Y-98445258D01*
X71344806Y-98289105D01*
X71345786Y-98102167D01*
X71346313Y-97881450D01*
X71346427Y-97623959D01*
X71346166Y-97326697D01*
X71345571Y-96986669D01*
X71344681Y-96600881D01*
X71343926Y-96309958D01*
X71337100Y-93762100D01*
X71258701Y-93597000D01*
X71140252Y-93403907D01*
X70982191Y-93240964D01*
X70783476Y-93107292D01*
X70561430Y-93008533D01*
X70397300Y-92949300D01*
X66663500Y-92944681D01*
X66137943Y-92944102D01*
X65660897Y-92943741D01*
X65230071Y-92943614D01*
X64843177Y-92943739D01*
X64497925Y-92944133D01*
X64192026Y-92944814D01*
X63923191Y-92945799D01*
X63689129Y-92947106D01*
X63487552Y-92948751D01*
X63316171Y-92950753D01*
X63172695Y-92953129D01*
X63054836Y-92955897D01*
X62960304Y-92959072D01*
X62886810Y-92962675D01*
X62832065Y-92966720D01*
X62793779Y-92971227D01*
X62777300Y-92974261D01*
X62674171Y-93000900D01*
X62573661Y-93032427D01*
X62523300Y-93051422D01*
X62385456Y-93124287D01*
X62244537Y-93223430D01*
X62117552Y-93335387D01*
X62021507Y-93446695D01*
X62018505Y-93451007D01*
X61991568Y-93489442D01*
X61967664Y-93524019D01*
X61946611Y-93557845D01*
X61928229Y-93594026D01*
X61912338Y-93635669D01*
X61898757Y-93685880D01*
X61887304Y-93747766D01*
X61877800Y-93824435D01*
X61870064Y-93918992D01*
X61863915Y-94034544D01*
X61859173Y-94174198D01*
X61855656Y-94341061D01*
X61853184Y-94538240D01*
X61851577Y-94768840D01*
X61850654Y-95035970D01*
X61850234Y-95342734D01*
X61850136Y-95692241D01*
X61850180Y-96087597D01*
X61850200Y-96345249D01*
X61850219Y-96758065D01*
X61850318Y-97123150D01*
X61850556Y-97443572D01*
X61850993Y-97722403D01*
X61851689Y-97962709D01*
X61852705Y-98167560D01*
X61854101Y-98340026D01*
X61855936Y-98483175D01*
X61858272Y-98600077D01*
X61861167Y-98693800D01*
X61864682Y-98767414D01*
X61868877Y-98823987D01*
X61873812Y-98866589D01*
X61879548Y-98898289D01*
X61886144Y-98922156D01*
X61893660Y-98941258D01*
X61901341Y-98957071D01*
X61979461Y-99056740D01*
X62091538Y-99125502D01*
X62227526Y-99157829D01*
X62269549Y-99159600D01*
X62408616Y-99139890D01*
G37*
X62408616Y-99139890D02*
X62520026Y-99078967D01*
X62591147Y-99001234D01*
X62650300Y-98918300D01*
X62663000Y-96429100D01*
X62665141Y-96017226D01*
X62667154Y-95653119D01*
X62669109Y-95333749D01*
X62671074Y-95056084D01*
X62673119Y-94817094D01*
X62675312Y-94613745D01*
X62677724Y-94443008D01*
X62680424Y-94301850D01*
X62683480Y-94187241D01*
X62686962Y-94096148D01*
X62690939Y-94025541D01*
X62695480Y-93972387D01*
X62700655Y-93933656D01*
X62706533Y-93906316D01*
X62713183Y-93887335D01*
X62720675Y-93873683D01*
X62721388Y-93872619D01*
X62733121Y-93854252D01*
X62743794Y-93837616D01*
X62755850Y-93822624D01*
X62771735Y-93809191D01*
X62793893Y-93797233D01*
X62824770Y-93786662D01*
X62866809Y-93777395D01*
X62922457Y-93769346D01*
X62994158Y-93762429D01*
X63084356Y-93756559D01*
X63195497Y-93751651D01*
X63330025Y-93747619D01*
X63490385Y-93744377D01*
X63679022Y-93741841D01*
X63898381Y-93739925D01*
X64150907Y-93738544D01*
X64439044Y-93737611D01*
X64765238Y-93737043D01*
X65131933Y-93736753D01*
X65541574Y-93736656D01*
X65996605Y-93736666D01*
X66499473Y-93736699D01*
X66612700Y-93736700D01*
X67118424Y-93736722D01*
X67575835Y-93736807D01*
X67987419Y-93736985D01*
X68355662Y-93737288D01*
X68683050Y-93737745D01*
X68972071Y-93738388D01*
X69225210Y-93739245D01*
X69444953Y-93740349D01*
X69633788Y-93741730D01*
X69794201Y-93743417D01*
X69928677Y-93745441D01*
X70039704Y-93747833D01*
X70129768Y-93750624D01*
X70201355Y-93753843D01*
X70256952Y-93757521D01*
X70299044Y-93761689D01*
X70330119Y-93766376D01*
X70352663Y-93771614D01*
X70369162Y-93777433D01*
X70380250Y-93782838D01*
X70405801Y-93796243D01*
X70428417Y-93808914D01*
X70448278Y-93823860D01*
X70465563Y-93844092D01*
X70480452Y-93872617D01*
X70493123Y-93912446D01*
X70503757Y-93966587D01*
X70512533Y-94038051D01*
X70519629Y-94129847D01*
X70525226Y-94244983D01*
X70529503Y-94386471D01*
X70532640Y-94557318D01*
X70534814Y-94760534D01*
X70536207Y-94999130D01*
X70536997Y-95276113D01*
X70537364Y-95594494D01*
X70537487Y-95957282D01*
X70537546Y-96367486D01*
X70537557Y-96421935D01*
X70537687Y-96827525D01*
X70537916Y-97185447D01*
X70538305Y-97498832D01*
X70538913Y-97770813D01*
X70539799Y-98004521D01*
X70541022Y-98203088D01*
X70542641Y-98369646D01*
X70544716Y-98507327D01*
X70547307Y-98619262D01*
X70550472Y-98708583D01*
X70554271Y-98778422D01*
X70558764Y-98831911D01*
X70564008Y-98872182D01*
X70570065Y-98902366D01*
X70576992Y-98925595D01*
X70584850Y-98945001D01*
X70585358Y-98946125D01*
X70659547Y-99057809D01*
X70762012Y-99127579D01*
X70893511Y-99155848D01*
X70965532Y-99154919D01*
X71112021Y-99125989D01*
X71223029Y-99061957D01*
X71301349Y-98961121D01*
X71309044Y-98945708D01*
X71315888Y-98927993D01*
X71321922Y-98903456D01*
X71327185Y-98869104D01*
X71331718Y-98821940D01*
X71335559Y-98758968D01*
X71338749Y-98677195D01*
X71341327Y-98573623D01*
X71343333Y-98445258D01*
X71344806Y-98289105D01*
X71345786Y-98102167D01*
X71346313Y-97881450D01*
X71346427Y-97623959D01*
X71346166Y-97326697D01*
X71345571Y-96986669D01*
X71344681Y-96600881D01*
X71343926Y-96309958D01*
X71337100Y-93762100D01*
X71258701Y-93597000D01*
X71140252Y-93403907D01*
X70982191Y-93240964D01*
X70783476Y-93107292D01*
X70561430Y-93008533D01*
X70397300Y-92949300D01*
X66663500Y-92944681D01*
X66137943Y-92944102D01*
X65660897Y-92943741D01*
X65230071Y-92943614D01*
X64843177Y-92943739D01*
X64497925Y-92944133D01*
X64192026Y-92944814D01*
X63923191Y-92945799D01*
X63689129Y-92947106D01*
X63487552Y-92948751D01*
X63316171Y-92950753D01*
X63172695Y-92953129D01*
X63054836Y-92955897D01*
X62960304Y-92959072D01*
X62886810Y-92962675D01*
X62832065Y-92966720D01*
X62793779Y-92971227D01*
X62777300Y-92974261D01*
X62674171Y-93000900D01*
X62573661Y-93032427D01*
X62523300Y-93051422D01*
X62385456Y-93124287D01*
X62244537Y-93223430D01*
X62117552Y-93335387D01*
X62021507Y-93446695D01*
X62018505Y-93451007D01*
X61991568Y-93489442D01*
X61967664Y-93524019D01*
X61946611Y-93557845D01*
X61928229Y-93594026D01*
X61912338Y-93635669D01*
X61898757Y-93685880D01*
X61887304Y-93747766D01*
X61877800Y-93824435D01*
X61870064Y-93918992D01*
X61863915Y-94034544D01*
X61859173Y-94174198D01*
X61855656Y-94341061D01*
X61853184Y-94538240D01*
X61851577Y-94768840D01*
X61850654Y-95035970D01*
X61850234Y-95342734D01*
X61850136Y-95692241D01*
X61850180Y-96087597D01*
X61850200Y-96345249D01*
X61850219Y-96758065D01*
X61850318Y-97123150D01*
X61850556Y-97443572D01*
X61850993Y-97722403D01*
X61851689Y-97962709D01*
X61852705Y-98167560D01*
X61854101Y-98340026D01*
X61855936Y-98483175D01*
X61858272Y-98600077D01*
X61861167Y-98693800D01*
X61864682Y-98767414D01*
X61868877Y-98823987D01*
X61873812Y-98866589D01*
X61879548Y-98898289D01*
X61886144Y-98922156D01*
X61893660Y-98941258D01*
X61901341Y-98957071D01*
X61979461Y-99056740D01*
X62091538Y-99125502D01*
X62227526Y-99157829D01*
X62269549Y-99159600D01*
X62408616Y-99139890D01*
G36*
X68974434Y-96447876D02*
G01*
X69072925Y-96397190D01*
X69145385Y-96325951D01*
X69156819Y-96306834D01*
X69186170Y-96205986D01*
X69191230Y-96074459D01*
X69173357Y-95925424D01*
X69133909Y-95772055D01*
X69090187Y-95660376D01*
X68972224Y-95463167D01*
X68816251Y-95296767D01*
X68625995Y-95163024D01*
X68405181Y-95063784D01*
X68157535Y-95000897D01*
X67886783Y-94976208D01*
X67718564Y-94980252D01*
X67545401Y-94995120D01*
X67381811Y-95017970D01*
X67219770Y-95051188D01*
X67051250Y-95097160D01*
X66868225Y-95158274D01*
X66662670Y-95236915D01*
X66426557Y-95335470D01*
X66220847Y-95425554D01*
X66005154Y-95520026D01*
X65827190Y-95594223D01*
X65679177Y-95650456D01*
X65553341Y-95691039D01*
X65441906Y-95718282D01*
X65337097Y-95734498D01*
X65231140Y-95741998D01*
X65152200Y-95743300D01*
X64976088Y-95734081D01*
X64843010Y-95703558D01*
X64748129Y-95647436D01*
X64686610Y-95561420D01*
X64653618Y-95441212D01*
X64644294Y-95292077D01*
X64642873Y-95190492D01*
X64635657Y-95123782D01*
X64618034Y-95076035D01*
X64585395Y-95031340D01*
X64560777Y-95003825D01*
X64460788Y-94927401D01*
X64347861Y-94895907D01*
X64232127Y-94910921D01*
X64166421Y-94942365D01*
X64086782Y-95015277D01*
X64036130Y-95118831D01*
X64012181Y-95258850D01*
X64009501Y-95342435D01*
X64031597Y-95577139D01*
X64095725Y-95787950D01*
X64199930Y-95971476D01*
X64342261Y-96124326D01*
X64520764Y-96243106D01*
X64531057Y-96248316D01*
X64678696Y-96309752D01*
X64835303Y-96348152D01*
X65016157Y-96366555D01*
X65139500Y-96369262D01*
X65294453Y-96364039D01*
X65448346Y-96347041D01*
X65607905Y-96316280D01*
X65779858Y-96269766D01*
X65970932Y-96205508D01*
X66187855Y-96121517D01*
X66437352Y-96015804D01*
X66640695Y-95925232D01*
X66885987Y-95818904D01*
X67098567Y-95737675D01*
X67288171Y-95678735D01*
X67464530Y-95639273D01*
X67637380Y-95616475D01*
X67731451Y-95610162D01*
X67955124Y-95610268D01*
X68137847Y-95634842D01*
X68284103Y-95685620D01*
X68398375Y-95764341D01*
X68485146Y-95872744D01*
X68506113Y-95910584D01*
X68538555Y-95996324D01*
X68555212Y-96083644D01*
X68555800Y-96098704D01*
X68575886Y-96226336D01*
X68631007Y-96335361D01*
X68713453Y-96416725D01*
X68815515Y-96461374D01*
X68869461Y-96467106D01*
X68974434Y-96447876D01*
G37*
X68974434Y-96447876D02*
X69072925Y-96397190D01*
X69145385Y-96325951D01*
X69156819Y-96306834D01*
X69186170Y-96205986D01*
X69191230Y-96074459D01*
X69173357Y-95925424D01*
X69133909Y-95772055D01*
X69090187Y-95660376D01*
X68972224Y-95463167D01*
X68816251Y-95296767D01*
X68625995Y-95163024D01*
X68405181Y-95063784D01*
X68157535Y-95000897D01*
X67886783Y-94976208D01*
X67718564Y-94980252D01*
X67545401Y-94995120D01*
X67381811Y-95017970D01*
X67219770Y-95051188D01*
X67051250Y-95097160D01*
X66868225Y-95158274D01*
X66662670Y-95236915D01*
X66426557Y-95335470D01*
X66220847Y-95425554D01*
X66005154Y-95520026D01*
X65827190Y-95594223D01*
X65679177Y-95650456D01*
X65553341Y-95691039D01*
X65441906Y-95718282D01*
X65337097Y-95734498D01*
X65231140Y-95741998D01*
X65152200Y-95743300D01*
X64976088Y-95734081D01*
X64843010Y-95703558D01*
X64748129Y-95647436D01*
X64686610Y-95561420D01*
X64653618Y-95441212D01*
X64644294Y-95292077D01*
X64642873Y-95190492D01*
X64635657Y-95123782D01*
X64618034Y-95076035D01*
X64585395Y-95031340D01*
X64560777Y-95003825D01*
X64460788Y-94927401D01*
X64347861Y-94895907D01*
X64232127Y-94910921D01*
X64166421Y-94942365D01*
X64086782Y-95015277D01*
X64036130Y-95118831D01*
X64012181Y-95258850D01*
X64009501Y-95342435D01*
X64031597Y-95577139D01*
X64095725Y-95787950D01*
X64199930Y-95971476D01*
X64342261Y-96124326D01*
X64520764Y-96243106D01*
X64531057Y-96248316D01*
X64678696Y-96309752D01*
X64835303Y-96348152D01*
X65016157Y-96366555D01*
X65139500Y-96369262D01*
X65294453Y-96364039D01*
X65448346Y-96347041D01*
X65607905Y-96316280D01*
X65779858Y-96269766D01*
X65970932Y-96205508D01*
X66187855Y-96121517D01*
X66437352Y-96015804D01*
X66640695Y-95925232D01*
X66885987Y-95818904D01*
X67098567Y-95737675D01*
X67288171Y-95678735D01*
X67464530Y-95639273D01*
X67637380Y-95616475D01*
X67731451Y-95610162D01*
X67955124Y-95610268D01*
X68137847Y-95634842D01*
X68284103Y-95685620D01*
X68398375Y-95764341D01*
X68485146Y-95872744D01*
X68506113Y-95910584D01*
X68538555Y-95996324D01*
X68555212Y-96083644D01*
X68555800Y-96098704D01*
X68575886Y-96226336D01*
X68631007Y-96335361D01*
X68713453Y-96416725D01*
X68815515Y-96461374D01*
X68869461Y-96467106D01*
X68974434Y-96447876D01*
G36*
X68971274Y-98316948D02*
G01*
X69030015Y-98297279D01*
X69086161Y-98252931D01*
X69104440Y-98235040D01*
X69151718Y-98183655D01*
X69177636Y-98137328D01*
X69188545Y-98077572D01*
X69190799Y-97985902D01*
X69190800Y-97983716D01*
X69166919Y-97750971D01*
X69097512Y-97536060D01*
X68985935Y-97342980D01*
X68835540Y-97175730D01*
X68649684Y-97038310D01*
X68431719Y-96934717D01*
X68270310Y-96886442D01*
X68108655Y-96860780D01*
X67914519Y-96849686D01*
X67704022Y-96852943D01*
X67493284Y-96870333D01*
X67309254Y-96899397D01*
X67163353Y-96931897D01*
X67024012Y-96969613D01*
X66880904Y-97016177D01*
X66723700Y-97075223D01*
X66542070Y-97150382D01*
X66325686Y-97245288D01*
X66325344Y-97245440D01*
X66096804Y-97346582D01*
X65907256Y-97427737D01*
X65749951Y-97491022D01*
X65618141Y-97538552D01*
X65505076Y-97572442D01*
X65404009Y-97594809D01*
X65308191Y-97607767D01*
X65210874Y-97613432D01*
X65148991Y-97614211D01*
X64972402Y-97602761D01*
X64837930Y-97566183D01*
X64741801Y-97501131D01*
X64680240Y-97404261D01*
X64649473Y-97272229D01*
X64644200Y-97166950D01*
X64630879Y-97010201D01*
X64589731Y-96894802D01*
X64518972Y-96818489D01*
X64416821Y-96778997D01*
X64333375Y-96772000D01*
X64249524Y-96778106D01*
X64186263Y-96803328D01*
X64117781Y-96858029D01*
X64116776Y-96858948D01*
X64070776Y-96903100D01*
X64042206Y-96941752D01*
X64026243Y-96989047D01*
X64018064Y-97059128D01*
X64012959Y-97163364D01*
X64024270Y-97400538D01*
X64076880Y-97611154D01*
X64167973Y-97793840D01*
X64294730Y-97947224D01*
X64454336Y-98069935D01*
X64643972Y-98160600D01*
X64860822Y-98217849D01*
X65102068Y-98240309D01*
X65364892Y-98226608D01*
X65646479Y-98175375D01*
X65922214Y-98093022D01*
X66016981Y-98057208D01*
X66145003Y-98005477D01*
X66293413Y-97943202D01*
X66449341Y-97875756D01*
X66554715Y-97828954D01*
X66792917Y-97724715D01*
X66996074Y-97642668D01*
X67173273Y-97579840D01*
X67333597Y-97533259D01*
X67486132Y-97499952D01*
X67624863Y-97478792D01*
X67844230Y-97462618D01*
X68030268Y-97474638D01*
X68192629Y-97515970D01*
X68281577Y-97554735D01*
X68413146Y-97644861D01*
X68501620Y-97758932D01*
X68543672Y-97886089D01*
X68558022Y-97977793D01*
X68571694Y-98065594D01*
X68603624Y-98149990D01*
X68666313Y-98233753D01*
X68669563Y-98237044D01*
X68728338Y-98288766D01*
X68784116Y-98313730D01*
X68860633Y-98321188D01*
X68885999Y-98321400D01*
X68971274Y-98316948D01*
G37*
X68971274Y-98316948D02*
X69030015Y-98297279D01*
X69086161Y-98252931D01*
X69104440Y-98235040D01*
X69151718Y-98183655D01*
X69177636Y-98137328D01*
X69188545Y-98077572D01*
X69190799Y-97985902D01*
X69190800Y-97983716D01*
X69166919Y-97750971D01*
X69097512Y-97536060D01*
X68985935Y-97342980D01*
X68835540Y-97175730D01*
X68649684Y-97038310D01*
X68431719Y-96934717D01*
X68270310Y-96886442D01*
X68108655Y-96860780D01*
X67914519Y-96849686D01*
X67704022Y-96852943D01*
X67493284Y-96870333D01*
X67309254Y-96899397D01*
X67163353Y-96931897D01*
X67024012Y-96969613D01*
X66880904Y-97016177D01*
X66723700Y-97075223D01*
X66542070Y-97150382D01*
X66325686Y-97245288D01*
X66325344Y-97245440D01*
X66096804Y-97346582D01*
X65907256Y-97427737D01*
X65749951Y-97491022D01*
X65618141Y-97538552D01*
X65505076Y-97572442D01*
X65404009Y-97594809D01*
X65308191Y-97607767D01*
X65210874Y-97613432D01*
X65148991Y-97614211D01*
X64972402Y-97602761D01*
X64837930Y-97566183D01*
X64741801Y-97501131D01*
X64680240Y-97404261D01*
X64649473Y-97272229D01*
X64644200Y-97166950D01*
X64630879Y-97010201D01*
X64589731Y-96894802D01*
X64518972Y-96818489D01*
X64416821Y-96778997D01*
X64333375Y-96772000D01*
X64249524Y-96778106D01*
X64186263Y-96803328D01*
X64117781Y-96858029D01*
X64116776Y-96858948D01*
X64070776Y-96903100D01*
X64042206Y-96941752D01*
X64026243Y-96989047D01*
X64018064Y-97059128D01*
X64012959Y-97163364D01*
X64024270Y-97400538D01*
X64076880Y-97611154D01*
X64167973Y-97793840D01*
X64294730Y-97947224D01*
X64454336Y-98069935D01*
X64643972Y-98160600D01*
X64860822Y-98217849D01*
X65102068Y-98240309D01*
X65364892Y-98226608D01*
X65646479Y-98175375D01*
X65922214Y-98093022D01*
X66016981Y-98057208D01*
X66145003Y-98005477D01*
X66293413Y-97943202D01*
X66449341Y-97875756D01*
X66554715Y-97828954D01*
X66792917Y-97724715D01*
X66996074Y-97642668D01*
X67173273Y-97579840D01*
X67333597Y-97533259D01*
X67486132Y-97499952D01*
X67624863Y-97478792D01*
X67844230Y-97462618D01*
X68030268Y-97474638D01*
X68192629Y-97515970D01*
X68281577Y-97554735D01*
X68413146Y-97644861D01*
X68501620Y-97758932D01*
X68543672Y-97886089D01*
X68558022Y-97977793D01*
X68571694Y-98065594D01*
X68603624Y-98149990D01*
X68666313Y-98233753D01*
X68669563Y-98237044D01*
X68728338Y-98288766D01*
X68784116Y-98313730D01*
X68860633Y-98321188D01*
X68885999Y-98321400D01*
X68971274Y-98316948D01*
G36*
X69039231Y-100340271D02*
G01*
X69115720Y-100282995D01*
X69163613Y-100201046D01*
X69185685Y-100086958D01*
X69185556Y-99946864D01*
X69148352Y-99726469D01*
X69065701Y-99522154D01*
X68941641Y-99338507D01*
X68780208Y-99180115D01*
X68585438Y-99051567D01*
X68361367Y-98957449D01*
X68298932Y-98939217D01*
X68160776Y-98912998D01*
X67985884Y-98899176D01*
X67831900Y-98896522D01*
X67651536Y-98901266D01*
X67481246Y-98916165D01*
X67313023Y-98943370D01*
X67138861Y-98985033D01*
X66950753Y-99043304D01*
X66740693Y-99120334D01*
X66500674Y-99218274D01*
X66282500Y-99312778D01*
X66065659Y-99407720D01*
X65887754Y-99483347D01*
X65741683Y-99541828D01*
X65620347Y-99585331D01*
X65516647Y-99616023D01*
X65423482Y-99636072D01*
X65333754Y-99647646D01*
X65240361Y-99652913D01*
X65164900Y-99654024D01*
X65013506Y-99650420D01*
X64901923Y-99635961D01*
X64819673Y-99606986D01*
X64756277Y-99559835D01*
X64702298Y-99492394D01*
X64670889Y-99436257D01*
X64653046Y-99373652D01*
X64645361Y-99288024D01*
X64644200Y-99210070D01*
X64635469Y-99070598D01*
X64605900Y-98969720D01*
X64550423Y-98897738D01*
X64463969Y-98844955D01*
X64450251Y-98839023D01*
X64359140Y-98809554D01*
X64282553Y-98811107D01*
X64194865Y-98844601D01*
X64187000Y-98848490D01*
X64109414Y-98899963D01*
X64056839Y-98968943D01*
X64026226Y-99063814D01*
X64014521Y-99192961D01*
X64016323Y-99317499D01*
X64023768Y-99443157D01*
X64036234Y-99536173D01*
X64057752Y-99614695D01*
X64092348Y-99696873D01*
X64107506Y-99728260D01*
X64209274Y-99889477D01*
X64342170Y-100031983D01*
X64493727Y-100144050D01*
X64608788Y-100199825D01*
X64732661Y-100237512D01*
X64876365Y-100268001D01*
X65021687Y-100288534D01*
X65150412Y-100296350D01*
X65221616Y-100292683D01*
X65304373Y-100282102D01*
X65406603Y-100269331D01*
X65457000Y-100263137D01*
X65591531Y-100239312D01*
X65747771Y-100197237D01*
X65930999Y-100135094D01*
X66146493Y-100051066D01*
X66399533Y-99943335D01*
X66447600Y-99922118D01*
X66703929Y-99810404D01*
X66922176Y-99720167D01*
X67109287Y-99649361D01*
X67272204Y-99595942D01*
X67417874Y-99557863D01*
X67553238Y-99533079D01*
X67685243Y-99519544D01*
X67820832Y-99515212D01*
X67828950Y-99515200D01*
X68046604Y-99529870D01*
X68224176Y-99574363D01*
X68363230Y-99649407D01*
X68465326Y-99755730D01*
X68508056Y-99831650D01*
X68538073Y-99916948D01*
X68554328Y-100000419D01*
X68555242Y-100017666D01*
X68576990Y-100147109D01*
X68634770Y-100253045D01*
X68720183Y-100329876D01*
X68824827Y-100372003D01*
X68940304Y-100373826D01*
X69039231Y-100340271D01*
G37*
X69039231Y-100340271D02*
X69115720Y-100282995D01*
X69163613Y-100201046D01*
X69185685Y-100086958D01*
X69185556Y-99946864D01*
X69148352Y-99726469D01*
X69065701Y-99522154D01*
X68941641Y-99338507D01*
X68780208Y-99180115D01*
X68585438Y-99051567D01*
X68361367Y-98957449D01*
X68298932Y-98939217D01*
X68160776Y-98912998D01*
X67985884Y-98899176D01*
X67831900Y-98896522D01*
X67651536Y-98901266D01*
X67481246Y-98916165D01*
X67313023Y-98943370D01*
X67138861Y-98985033D01*
X66950753Y-99043304D01*
X66740693Y-99120334D01*
X66500674Y-99218274D01*
X66282500Y-99312778D01*
X66065659Y-99407720D01*
X65887754Y-99483347D01*
X65741683Y-99541828D01*
X65620347Y-99585331D01*
X65516647Y-99616023D01*
X65423482Y-99636072D01*
X65333754Y-99647646D01*
X65240361Y-99652913D01*
X65164900Y-99654024D01*
X65013506Y-99650420D01*
X64901923Y-99635961D01*
X64819673Y-99606986D01*
X64756277Y-99559835D01*
X64702298Y-99492394D01*
X64670889Y-99436257D01*
X64653046Y-99373652D01*
X64645361Y-99288024D01*
X64644200Y-99210070D01*
X64635469Y-99070598D01*
X64605900Y-98969720D01*
X64550423Y-98897738D01*
X64463969Y-98844955D01*
X64450251Y-98839023D01*
X64359140Y-98809554D01*
X64282553Y-98811107D01*
X64194865Y-98844601D01*
X64187000Y-98848490D01*
X64109414Y-98899963D01*
X64056839Y-98968943D01*
X64026226Y-99063814D01*
X64014521Y-99192961D01*
X64016323Y-99317499D01*
X64023768Y-99443157D01*
X64036234Y-99536173D01*
X64057752Y-99614695D01*
X64092348Y-99696873D01*
X64107506Y-99728260D01*
X64209274Y-99889477D01*
X64342170Y-100031983D01*
X64493727Y-100144050D01*
X64608788Y-100199825D01*
X64732661Y-100237512D01*
X64876365Y-100268001D01*
X65021687Y-100288534D01*
X65150412Y-100296350D01*
X65221616Y-100292683D01*
X65304373Y-100282102D01*
X65406603Y-100269331D01*
X65457000Y-100263137D01*
X65591531Y-100239312D01*
X65747771Y-100197237D01*
X65930999Y-100135094D01*
X66146493Y-100051066D01*
X66399533Y-99943335D01*
X66447600Y-99922118D01*
X66703929Y-99810404D01*
X66922176Y-99720167D01*
X67109287Y-99649361D01*
X67272204Y-99595942D01*
X67417874Y-99557863D01*
X67553238Y-99533079D01*
X67685243Y-99519544D01*
X67820832Y-99515212D01*
X67828950Y-99515200D01*
X68046604Y-99529870D01*
X68224176Y-99574363D01*
X68363230Y-99649407D01*
X68465326Y-99755730D01*
X68508056Y-99831650D01*
X68538073Y-99916948D01*
X68554328Y-100000419D01*
X68555242Y-100017666D01*
X68576990Y-100147109D01*
X68634770Y-100253045D01*
X68720183Y-100329876D01*
X68824827Y-100372003D01*
X68940304Y-100373826D01*
X69039231Y-100340271D01*
G36*
X66816381Y-104155346D02*
G01*
X66997589Y-104128830D01*
X67160876Y-104080321D01*
X67321558Y-104006288D01*
X67349300Y-103991143D01*
X67385329Y-103967743D01*
X67459367Y-103916831D01*
X67568336Y-103840621D01*
X67709156Y-103741326D01*
X67878746Y-103621160D01*
X68074028Y-103482335D01*
X68291921Y-103327066D01*
X68529347Y-103157566D01*
X68783225Y-102976047D01*
X69050475Y-102784724D01*
X69328019Y-102585810D01*
X69612777Y-102381517D01*
X69901668Y-102174060D01*
X70191614Y-101965652D01*
X70479534Y-101758505D01*
X70762350Y-101554834D01*
X71036981Y-101356852D01*
X71300348Y-101166772D01*
X71549371Y-100986807D01*
X71780971Y-100819170D01*
X71992067Y-100666076D01*
X72179581Y-100529738D01*
X72340433Y-100412368D01*
X72471543Y-100316180D01*
X72569832Y-100243388D01*
X72632219Y-100196204D01*
X72653817Y-100178751D01*
X72748405Y-100064387D01*
X72792879Y-99942780D01*
X72787095Y-99814566D01*
X72755869Y-99727038D01*
X72681408Y-99625694D01*
X72574934Y-99554270D01*
X72448195Y-99516892D01*
X72312944Y-99517686D01*
X72225532Y-99540816D01*
X72194412Y-99559540D01*
X72125516Y-99605677D01*
X72022217Y-99676845D01*
X71887885Y-99770663D01*
X71725890Y-99884750D01*
X71539604Y-100016723D01*
X71332397Y-100164202D01*
X71107639Y-100324805D01*
X70868702Y-100496150D01*
X70618957Y-100675856D01*
X70617329Y-100677030D01*
X70331960Y-100882710D01*
X70030630Y-101099880D01*
X69720277Y-101323542D01*
X69407835Y-101548697D01*
X69100240Y-101770348D01*
X68804429Y-101983496D01*
X68527338Y-102183144D01*
X68275903Y-102364293D01*
X68057059Y-102521946D01*
X68009700Y-102556060D01*
X67721069Y-102762959D01*
X67471458Y-102939746D01*
X67261080Y-103086275D01*
X67090147Y-103202402D01*
X66958871Y-103287983D01*
X66867465Y-103342873D01*
X66819749Y-103365818D01*
X66673082Y-103394617D01*
X66514219Y-103392494D01*
X66365405Y-103360720D01*
X66306461Y-103336502D01*
X66273546Y-103315608D01*
X66202043Y-103266809D01*
X66094545Y-103191950D01*
X65953642Y-103092875D01*
X65781925Y-102971431D01*
X65581984Y-102829462D01*
X65356411Y-102668813D01*
X65107796Y-102491329D01*
X64838730Y-102298854D01*
X64551803Y-102093235D01*
X64249607Y-101876316D01*
X63934732Y-101649941D01*
X63625163Y-101427049D01*
X63301309Y-101193885D01*
X62988109Y-100968750D01*
X62688114Y-100753459D01*
X62403874Y-100549826D01*
X62137937Y-100359665D01*
X61892854Y-100184792D01*
X61671174Y-100027021D01*
X61475446Y-99888166D01*
X61308220Y-99770042D01*
X61172046Y-99674464D01*
X61069472Y-99603246D01*
X61003049Y-99558203D01*
X60975560Y-99541232D01*
X60859753Y-99516264D01*
X60735107Y-99519446D01*
X60623230Y-99549079D01*
X60580187Y-99572350D01*
X60477735Y-99668812D01*
X60419443Y-99782818D01*
X60405782Y-99905997D01*
X60437220Y-100029975D01*
X60514228Y-100146378D01*
X60546182Y-100178474D01*
X60581183Y-100206494D01*
X60654255Y-100261579D01*
X60762338Y-100341536D01*
X60902371Y-100444171D01*
X61071293Y-100567289D01*
X61266045Y-100708698D01*
X61483566Y-100866204D01*
X61720797Y-101037612D01*
X61974676Y-101220728D01*
X62242144Y-101413360D01*
X62520140Y-101613313D01*
X62805604Y-101818394D01*
X63095476Y-102026408D01*
X63386695Y-102235162D01*
X63676202Y-102442462D01*
X63960935Y-102646114D01*
X64237836Y-102843925D01*
X64503843Y-103033701D01*
X64755896Y-103213247D01*
X64990935Y-103380370D01*
X65205900Y-103532877D01*
X65397730Y-103668573D01*
X65563366Y-103785265D01*
X65699747Y-103880758D01*
X65803812Y-103952860D01*
X65872502Y-103999376D01*
X65901500Y-104017527D01*
X66045549Y-104082355D01*
X66184441Y-104125889D01*
X66334139Y-104151455D01*
X66510607Y-104162377D01*
X66601934Y-104163400D01*
X66816381Y-104155346D01*
G37*
X66816381Y-104155346D02*
X66997589Y-104128830D01*
X67160876Y-104080321D01*
X67321558Y-104006288D01*
X67349300Y-103991143D01*
X67385329Y-103967743D01*
X67459367Y-103916831D01*
X67568336Y-103840621D01*
X67709156Y-103741326D01*
X67878746Y-103621160D01*
X68074028Y-103482335D01*
X68291921Y-103327066D01*
X68529347Y-103157566D01*
X68783225Y-102976047D01*
X69050475Y-102784724D01*
X69328019Y-102585810D01*
X69612777Y-102381517D01*
X69901668Y-102174060D01*
X70191614Y-101965652D01*
X70479534Y-101758505D01*
X70762350Y-101554834D01*
X71036981Y-101356852D01*
X71300348Y-101166772D01*
X71549371Y-100986807D01*
X71780971Y-100819170D01*
X71992067Y-100666076D01*
X72179581Y-100529738D01*
X72340433Y-100412368D01*
X72471543Y-100316180D01*
X72569832Y-100243388D01*
X72632219Y-100196204D01*
X72653817Y-100178751D01*
X72748405Y-100064387D01*
X72792879Y-99942780D01*
X72787095Y-99814566D01*
X72755869Y-99727038D01*
X72681408Y-99625694D01*
X72574934Y-99554270D01*
X72448195Y-99516892D01*
X72312944Y-99517686D01*
X72225532Y-99540816D01*
X72194412Y-99559540D01*
X72125516Y-99605677D01*
X72022217Y-99676845D01*
X71887885Y-99770663D01*
X71725890Y-99884750D01*
X71539604Y-100016723D01*
X71332397Y-100164202D01*
X71107639Y-100324805D01*
X70868702Y-100496150D01*
X70618957Y-100675856D01*
X70617329Y-100677030D01*
X70331960Y-100882710D01*
X70030630Y-101099880D01*
X69720277Y-101323542D01*
X69407835Y-101548697D01*
X69100240Y-101770348D01*
X68804429Y-101983496D01*
X68527338Y-102183144D01*
X68275903Y-102364293D01*
X68057059Y-102521946D01*
X68009700Y-102556060D01*
X67721069Y-102762959D01*
X67471458Y-102939746D01*
X67261080Y-103086275D01*
X67090147Y-103202402D01*
X66958871Y-103287983D01*
X66867465Y-103342873D01*
X66819749Y-103365818D01*
X66673082Y-103394617D01*
X66514219Y-103392494D01*
X66365405Y-103360720D01*
X66306461Y-103336502D01*
X66273546Y-103315608D01*
X66202043Y-103266809D01*
X66094545Y-103191950D01*
X65953642Y-103092875D01*
X65781925Y-102971431D01*
X65581984Y-102829462D01*
X65356411Y-102668813D01*
X65107796Y-102491329D01*
X64838730Y-102298854D01*
X64551803Y-102093235D01*
X64249607Y-101876316D01*
X63934732Y-101649941D01*
X63625163Y-101427049D01*
X63301309Y-101193885D01*
X62988109Y-100968750D01*
X62688114Y-100753459D01*
X62403874Y-100549826D01*
X62137937Y-100359665D01*
X61892854Y-100184792D01*
X61671174Y-100027021D01*
X61475446Y-99888166D01*
X61308220Y-99770042D01*
X61172046Y-99674464D01*
X61069472Y-99603246D01*
X61003049Y-99558203D01*
X60975560Y-99541232D01*
X60859753Y-99516264D01*
X60735107Y-99519446D01*
X60623230Y-99549079D01*
X60580187Y-99572350D01*
X60477735Y-99668812D01*
X60419443Y-99782818D01*
X60405782Y-99905997D01*
X60437220Y-100029975D01*
X60514228Y-100146378D01*
X60546182Y-100178474D01*
X60581183Y-100206494D01*
X60654255Y-100261579D01*
X60762338Y-100341536D01*
X60902371Y-100444171D01*
X61071293Y-100567289D01*
X61266045Y-100708698D01*
X61483566Y-100866204D01*
X61720797Y-101037612D01*
X61974676Y-101220728D01*
X62242144Y-101413360D01*
X62520140Y-101613313D01*
X62805604Y-101818394D01*
X63095476Y-102026408D01*
X63386695Y-102235162D01*
X63676202Y-102442462D01*
X63960935Y-102646114D01*
X64237836Y-102843925D01*
X64503843Y-103033701D01*
X64755896Y-103213247D01*
X64990935Y-103380370D01*
X65205900Y-103532877D01*
X65397730Y-103668573D01*
X65563366Y-103785265D01*
X65699747Y-103880758D01*
X65803812Y-103952860D01*
X65872502Y-103999376D01*
X65901500Y-104017527D01*
X66045549Y-104082355D01*
X66184441Y-104125889D01*
X66334139Y-104151455D01*
X66510607Y-104162377D01*
X66601934Y-104163400D01*
X66816381Y-104155346D01*
%TD*%
M02*
