%TF.GenerationSoftware,KiCad,Pcbnew,(5.1.10-1-10_14)*%
%TF.CreationDate,2021-06-21T19:24:18+01:00*%
%TF.ProjectId,IAQ_Project,4941515f-5072-46f6-9a65-63742e6b6963,rev?*%
%TF.SameCoordinates,Original*%
%TF.FileFunction,Copper,L1,Top*%
%TF.FilePolarity,Positive*%
%FSLAX46Y46*%
G04 Gerber Fmt 4.6, Leading zero omitted, Abs format (unit mm)*
G04 Created by KiCad (PCBNEW (5.1.10-1-10_14)) date 2021-06-21 19:24:18*
%MOMM*%
%LPD*%
G01*
G04 APERTURE LIST*
%TA.AperFunction,SMDPad,CuDef*%
%ADD10R,5.000000X5.000000*%
%TD*%
%TA.AperFunction,SMDPad,CuDef*%
%ADD11R,0.900000X2.000000*%
%TD*%
%TA.AperFunction,SMDPad,CuDef*%
%ADD12R,2.000000X0.900000*%
%TD*%
%TA.AperFunction,SMDPad,CuDef*%
%ADD13R,1.060000X0.650000*%
%TD*%
%TA.AperFunction,SMDPad,CuDef*%
%ADD14R,2.000000X3.800000*%
%TD*%
%TA.AperFunction,SMDPad,CuDef*%
%ADD15R,2.000000X1.500000*%
%TD*%
%TA.AperFunction,SMDPad,CuDef*%
%ADD16R,2.300000X1.900000*%
%TD*%
%TA.AperFunction,SMDPad,CuDef*%
%ADD17R,0.400000X1.400000*%
%TD*%
%TA.AperFunction,SMDPad,CuDef*%
%ADD18R,1.400000X1.050000*%
%TD*%
%TA.AperFunction,SMDPad,CuDef*%
%ADD19R,1.500000X0.650000*%
%TD*%
%TA.AperFunction,SMDPad,CuDef*%
%ADD20R,2.700000X3.600000*%
%TD*%
%TA.AperFunction,ComponentPad*%
%ADD21R,1.350000X1.350000*%
%TD*%
%TA.AperFunction,ComponentPad*%
%ADD22O,1.350000X1.350000*%
%TD*%
%TA.AperFunction,ComponentPad*%
%ADD23O,1.700000X1.700000*%
%TD*%
%TA.AperFunction,ComponentPad*%
%ADD24R,1.700000X1.700000*%
%TD*%
%TA.AperFunction,SMDPad,CuDef*%
%ADD25R,0.500000X0.800000*%
%TD*%
%TA.AperFunction,SMDPad,CuDef*%
%ADD26R,0.400000X0.800000*%
%TD*%
%TA.AperFunction,ViaPad*%
%ADD27C,0.800000*%
%TD*%
%TA.AperFunction,Conductor*%
%ADD28C,0.400000*%
%TD*%
%TA.AperFunction,Conductor*%
%ADD29C,0.200000*%
%TD*%
%TA.AperFunction,Conductor*%
%ADD30C,0.254000*%
%TD*%
%TA.AperFunction,Conductor*%
%ADD31C,0.100000*%
%TD*%
G04 APERTURE END LIST*
D10*
%TO.P,U3,39*%
%TO.N,GND*%
X58500000Y-92700000D03*
D11*
%TO.P,U3,1*%
X51000000Y-100200000D03*
%TO.P,U3,2*%
%TO.N,VDDA*%
X52270000Y-100200000D03*
%TO.P,U3,3*%
%TO.N,/ESP_EN*%
X53540000Y-100200000D03*
%TO.P,U3,4*%
%TO.N,Net-(U3-Pad4)*%
X54810000Y-100200000D03*
%TO.P,U3,5*%
%TO.N,Net-(U3-Pad5)*%
X56080000Y-100200000D03*
%TO.P,U3,6*%
%TO.N,Net-(U3-Pad6)*%
X57350000Y-100200000D03*
%TO.P,U3,7*%
%TO.N,Net-(U3-Pad7)*%
X58620000Y-100200000D03*
%TO.P,U3,8*%
%TO.N,Net-(U3-Pad8)*%
X59890000Y-100200000D03*
%TO.P,U3,9*%
%TO.N,Net-(U3-Pad9)*%
X61160000Y-100200000D03*
%TO.P,U3,10*%
%TO.N,Net-(U3-Pad10)*%
X62430000Y-100200000D03*
%TO.P,U3,11*%
%TO.N,Net-(U3-Pad11)*%
X63700000Y-100200000D03*
%TO.P,U3,12*%
%TO.N,Net-(U3-Pad12)*%
X64970000Y-100200000D03*
%TO.P,U3,13*%
%TO.N,/ESP_LED*%
X66240000Y-100200000D03*
%TO.P,U3,14*%
%TO.N,Net-(U3-Pad14)*%
X67510000Y-100200000D03*
D12*
%TO.P,U3,15*%
%TO.N,GND*%
X68510000Y-97415000D03*
%TO.P,U3,16*%
%TO.N,/ESP_SW*%
X68510000Y-96145000D03*
%TO.P,U3,17*%
%TO.N,Net-(U3-Pad17)*%
X68510000Y-94875000D03*
%TO.P,U3,18*%
%TO.N,Net-(U3-Pad18)*%
X68510000Y-93605000D03*
%TO.P,U3,19*%
%TO.N,Net-(U3-Pad19)*%
X68510000Y-92335000D03*
%TO.P,U3,20*%
%TO.N,Net-(U3-Pad20)*%
X68510000Y-91065000D03*
%TO.P,U3,21*%
%TO.N,Net-(U3-Pad21)*%
X68510000Y-89795000D03*
%TO.P,U3,22*%
%TO.N,Net-(U3-Pad22)*%
X68510000Y-88525000D03*
%TO.P,U3,23*%
%TO.N,/ESP_MTDO*%
X68510000Y-87255000D03*
%TO.P,U3,24*%
%TO.N,/ESP_I2*%
X68510000Y-85985000D03*
D11*
%TO.P,U3,25*%
%TO.N,/ESP_I0*%
X67510000Y-83200000D03*
%TO.P,U3,26*%
%TO.N,Net-(U3-Pad26)*%
X66240000Y-83200000D03*
%TO.P,U3,27*%
%TO.N,Net-(U3-Pad27)*%
X64970000Y-83200000D03*
%TO.P,U3,28*%
%TO.N,Net-(U3-Pad28)*%
X63700000Y-83200000D03*
%TO.P,U3,29*%
%TO.N,Net-(U3-Pad29)*%
X62430000Y-83200000D03*
%TO.P,U3,30*%
%TO.N,Net-(U3-Pad30)*%
X61160000Y-83200000D03*
%TO.P,U3,31*%
%TO.N,Net-(U3-Pad31)*%
X59890000Y-83200000D03*
%TO.P,U3,32*%
%TO.N,Net-(U3-Pad32)*%
X58620000Y-83200000D03*
%TO.P,U3,33*%
%TO.N,/SDI_3V*%
X57350000Y-83200000D03*
%TO.P,U3,34*%
%TO.N,/ESP_RX*%
X56080000Y-83200000D03*
%TO.P,U3,35*%
%TO.N,/ESP_TX*%
X54810000Y-83200000D03*
%TO.P,U3,36*%
%TO.N,/SCK_3V*%
X53540000Y-83200000D03*
%TO.P,U3,37*%
%TO.N,Net-(U3-Pad37)*%
X52270000Y-83200000D03*
%TO.P,U3,38*%
%TO.N,GND*%
X51000000Y-83200000D03*
%TD*%
%TO.P,U1,1*%
%TO.N,GND*%
%TA.AperFunction,SMDPad,CuDef*%
G36*
G01*
X72875000Y-82000000D02*
X72600000Y-82000000D01*
G75*
G02*
X72475000Y-81875000I0J125000D01*
G01*
X72475000Y-81625000D01*
G75*
G02*
X72600000Y-81500000I125000J0D01*
G01*
X72875000Y-81500000D01*
G75*
G02*
X73000000Y-81625000I0J-125000D01*
G01*
X73000000Y-81875000D01*
G75*
G02*
X72875000Y-82000000I-125000J0D01*
G01*
G37*
%TD.AperFunction*%
%TO.P,U1,2*%
%TO.N,Net-(RN1-Pad4)*%
%TA.AperFunction,SMDPad,CuDef*%
G36*
G01*
X72875000Y-81200000D02*
X72600000Y-81200000D01*
G75*
G02*
X72475000Y-81075000I0J125000D01*
G01*
X72475000Y-80825000D01*
G75*
G02*
X72600000Y-80700000I125000J0D01*
G01*
X72875000Y-80700000D01*
G75*
G02*
X73000000Y-80825000I0J-125000D01*
G01*
X73000000Y-81075000D01*
G75*
G02*
X72875000Y-81200000I-125000J0D01*
G01*
G37*
%TD.AperFunction*%
%TO.P,U1,3*%
%TO.N,/SDI_3V*%
%TA.AperFunction,SMDPad,CuDef*%
G36*
G01*
X72875000Y-80400000D02*
X72600000Y-80400000D01*
G75*
G02*
X72475000Y-80275000I0J125000D01*
G01*
X72475000Y-80025000D01*
G75*
G02*
X72600000Y-79900000I125000J0D01*
G01*
X72875000Y-79900000D01*
G75*
G02*
X73000000Y-80025000I0J-125000D01*
G01*
X73000000Y-80275000D01*
G75*
G02*
X72875000Y-80400000I-125000J0D01*
G01*
G37*
%TD.AperFunction*%
%TO.P,U1,4*%
%TO.N,/SCK_3V*%
%TA.AperFunction,SMDPad,CuDef*%
G36*
G01*
X72875000Y-79600000D02*
X72600000Y-79600000D01*
G75*
G02*
X72475000Y-79475000I0J125000D01*
G01*
X72475000Y-79225000D01*
G75*
G02*
X72600000Y-79100000I125000J0D01*
G01*
X72875000Y-79100000D01*
G75*
G02*
X73000000Y-79225000I0J-125000D01*
G01*
X73000000Y-79475000D01*
G75*
G02*
X72875000Y-79600000I-125000J0D01*
G01*
G37*
%TD.AperFunction*%
%TO.P,U1,5*%
%TO.N,/SDO_ADR*%
%TA.AperFunction,SMDPad,CuDef*%
G36*
G01*
X75250000Y-79600000D02*
X74975000Y-79600000D01*
G75*
G02*
X74850000Y-79475000I0J125000D01*
G01*
X74850000Y-79225000D01*
G75*
G02*
X74975000Y-79100000I125000J0D01*
G01*
X75250000Y-79100000D01*
G75*
G02*
X75375000Y-79225000I0J-125000D01*
G01*
X75375000Y-79475000D01*
G75*
G02*
X75250000Y-79600000I-125000J0D01*
G01*
G37*
%TD.AperFunction*%
%TO.P,U1,6*%
%TO.N,+3V3*%
%TA.AperFunction,SMDPad,CuDef*%
G36*
G01*
X75250000Y-80400000D02*
X74975000Y-80400000D01*
G75*
G02*
X74850000Y-80275000I0J125000D01*
G01*
X74850000Y-80025000D01*
G75*
G02*
X74975000Y-79900000I125000J0D01*
G01*
X75250000Y-79900000D01*
G75*
G02*
X75375000Y-80025000I0J-125000D01*
G01*
X75375000Y-80275000D01*
G75*
G02*
X75250000Y-80400000I-125000J0D01*
G01*
G37*
%TD.AperFunction*%
%TO.P,U1,7*%
%TO.N,GND*%
%TA.AperFunction,SMDPad,CuDef*%
G36*
G01*
X75250000Y-81200000D02*
X74975000Y-81200000D01*
G75*
G02*
X74850000Y-81075000I0J125000D01*
G01*
X74850000Y-80825000D01*
G75*
G02*
X74975000Y-80700000I125000J0D01*
G01*
X75250000Y-80700000D01*
G75*
G02*
X75375000Y-80825000I0J-125000D01*
G01*
X75375000Y-81075000D01*
G75*
G02*
X75250000Y-81200000I-125000J0D01*
G01*
G37*
%TD.AperFunction*%
%TO.P,U1,8*%
%TO.N,+3V3*%
%TA.AperFunction,SMDPad,CuDef*%
G36*
G01*
X75250000Y-82000000D02*
X74975000Y-82000000D01*
G75*
G02*
X74850000Y-81875000I0J125000D01*
G01*
X74850000Y-81625000D01*
G75*
G02*
X74975000Y-81500000I125000J0D01*
G01*
X75250000Y-81500000D01*
G75*
G02*
X75375000Y-81625000I0J-125000D01*
G01*
X75375000Y-81875000D01*
G75*
G02*
X75250000Y-82000000I-125000J0D01*
G01*
G37*
%TD.AperFunction*%
%TD*%
D13*
%TO.P,U2,1*%
%TO.N,VCC*%
X77550000Y-79600000D03*
%TO.P,U2,2*%
%TO.N,GND*%
X77550000Y-80550000D03*
%TO.P,U2,3*%
%TO.N,VCC*%
X77550000Y-81500000D03*
%TO.P,U2,4*%
%TO.N,Net-(U2-Pad4)*%
X79750000Y-81500000D03*
%TO.P,U2,5*%
%TO.N,+3V3*%
X79750000Y-79600000D03*
%TD*%
D14*
%TO.P,U4,4*%
%TO.N,GND*%
X77250000Y-111000000D03*
D15*
%TO.P,U4,2*%
X70950000Y-111000000D03*
%TO.P,U4,3*%
%TO.N,VDDA*%
X70950000Y-113300000D03*
%TO.P,U4,1*%
%TO.N,VCC*%
X70950000Y-108700000D03*
%TD*%
%TO.P,C3,1*%
%TO.N,VCC*%
%TA.AperFunction,SMDPad,CuDef*%
G36*
G01*
X76600000Y-103750000D02*
X76600000Y-104850000D01*
G75*
G02*
X76350000Y-105100000I-250000J0D01*
G01*
X73850000Y-105100000D01*
G75*
G02*
X73600000Y-104850000I0J250000D01*
G01*
X73600000Y-103750000D01*
G75*
G02*
X73850000Y-103500000I250000J0D01*
G01*
X76350000Y-103500000D01*
G75*
G02*
X76600000Y-103750000I0J-250000D01*
G01*
G37*
%TD.AperFunction*%
%TO.P,C3,2*%
%TO.N,GND*%
%TA.AperFunction,SMDPad,CuDef*%
G36*
G01*
X72200000Y-103750000D02*
X72200000Y-104850000D01*
G75*
G02*
X71950000Y-105100000I-250000J0D01*
G01*
X69450000Y-105100000D01*
G75*
G02*
X69200000Y-104850000I0J250000D01*
G01*
X69200000Y-103750000D01*
G75*
G02*
X69450000Y-103500000I250000J0D01*
G01*
X71950000Y-103500000D01*
G75*
G02*
X72200000Y-103750000I0J-250000D01*
G01*
G37*
%TD.AperFunction*%
%TD*%
%TO.P,C1,2*%
%TO.N,GND*%
%TA.AperFunction,SMDPad,CuDef*%
G36*
G01*
X78900000Y-78050000D02*
X78900000Y-77100000D01*
G75*
G02*
X79150000Y-76850000I250000J0D01*
G01*
X79650000Y-76850000D01*
G75*
G02*
X79900000Y-77100000I0J-250000D01*
G01*
X79900000Y-78050000D01*
G75*
G02*
X79650000Y-78300000I-250000J0D01*
G01*
X79150000Y-78300000D01*
G75*
G02*
X78900000Y-78050000I0J250000D01*
G01*
G37*
%TD.AperFunction*%
%TO.P,C1,1*%
%TO.N,VCC*%
%TA.AperFunction,SMDPad,CuDef*%
G36*
G01*
X77000000Y-78050000D02*
X77000000Y-77100000D01*
G75*
G02*
X77250000Y-76850000I250000J0D01*
G01*
X77750000Y-76850000D01*
G75*
G02*
X78000000Y-77100000I0J-250000D01*
G01*
X78000000Y-78050000D01*
G75*
G02*
X77750000Y-78300000I-250000J0D01*
G01*
X77250000Y-78300000D01*
G75*
G02*
X77000000Y-78050000I0J250000D01*
G01*
G37*
%TD.AperFunction*%
%TD*%
%TO.P,C2,1*%
%TO.N,+3V3*%
%TA.AperFunction,SMDPad,CuDef*%
G36*
G01*
X81875000Y-79000000D02*
X82825000Y-79000000D01*
G75*
G02*
X83075000Y-79250000I0J-250000D01*
G01*
X83075000Y-79750000D01*
G75*
G02*
X82825000Y-80000000I-250000J0D01*
G01*
X81875000Y-80000000D01*
G75*
G02*
X81625000Y-79750000I0J250000D01*
G01*
X81625000Y-79250000D01*
G75*
G02*
X81875000Y-79000000I250000J0D01*
G01*
G37*
%TD.AperFunction*%
%TO.P,C2,2*%
%TO.N,GND*%
%TA.AperFunction,SMDPad,CuDef*%
G36*
G01*
X81875000Y-80900000D02*
X82825000Y-80900000D01*
G75*
G02*
X83075000Y-81150000I0J-250000D01*
G01*
X83075000Y-81650000D01*
G75*
G02*
X82825000Y-81900000I-250000J0D01*
G01*
X81875000Y-81900000D01*
G75*
G02*
X81625000Y-81650000I0J250000D01*
G01*
X81625000Y-81150000D01*
G75*
G02*
X81875000Y-80900000I250000J0D01*
G01*
G37*
%TD.AperFunction*%
%TD*%
%TO.P,C4,1*%
%TO.N,VDDA*%
%TA.AperFunction,SMDPad,CuDef*%
G36*
G01*
X68675000Y-113800000D02*
X67725000Y-113800000D01*
G75*
G02*
X67475000Y-113550000I0J250000D01*
G01*
X67475000Y-113050000D01*
G75*
G02*
X67725000Y-112800000I250000J0D01*
G01*
X68675000Y-112800000D01*
G75*
G02*
X68925000Y-113050000I0J-250000D01*
G01*
X68925000Y-113550000D01*
G75*
G02*
X68675000Y-113800000I-250000J0D01*
G01*
G37*
%TD.AperFunction*%
%TO.P,C4,2*%
%TO.N,GND*%
%TA.AperFunction,SMDPad,CuDef*%
G36*
G01*
X68675000Y-111900000D02*
X67725000Y-111900000D01*
G75*
G02*
X67475000Y-111650000I0J250000D01*
G01*
X67475000Y-111150000D01*
G75*
G02*
X67725000Y-110900000I250000J0D01*
G01*
X68675000Y-110900000D01*
G75*
G02*
X68925000Y-111150000I0J-250000D01*
G01*
X68925000Y-111650000D01*
G75*
G02*
X68675000Y-111900000I-250000J0D01*
G01*
G37*
%TD.AperFunction*%
%TD*%
%TO.P,C5,1*%
%TO.N,GND*%
%TA.AperFunction,SMDPad,CuDef*%
G36*
G01*
X73050000Y-97775000D02*
X73050000Y-98725000D01*
G75*
G02*
X72800000Y-98975000I-250000J0D01*
G01*
X72300000Y-98975000D01*
G75*
G02*
X72050000Y-98725000I0J250000D01*
G01*
X72050000Y-97775000D01*
G75*
G02*
X72300000Y-97525000I250000J0D01*
G01*
X72800000Y-97525000D01*
G75*
G02*
X73050000Y-97775000I0J-250000D01*
G01*
G37*
%TD.AperFunction*%
%TO.P,C5,2*%
%TO.N,/ESP_EN*%
%TA.AperFunction,SMDPad,CuDef*%
G36*
G01*
X71150000Y-97775000D02*
X71150000Y-98725000D01*
G75*
G02*
X70900000Y-98975000I-250000J0D01*
G01*
X70400000Y-98975000D01*
G75*
G02*
X70150000Y-98725000I0J250000D01*
G01*
X70150000Y-97775000D01*
G75*
G02*
X70400000Y-97525000I250000J0D01*
G01*
X70900000Y-97525000D01*
G75*
G02*
X71150000Y-97775000I0J-250000D01*
G01*
G37*
%TD.AperFunction*%
%TD*%
%TO.P,C6,2*%
%TO.N,VDDA*%
%TA.AperFunction,SMDPad,CuDef*%
G36*
G01*
X52450000Y-106075000D02*
X52450000Y-105125000D01*
G75*
G02*
X52700000Y-104875000I250000J0D01*
G01*
X53200000Y-104875000D01*
G75*
G02*
X53450000Y-105125000I0J-250000D01*
G01*
X53450000Y-106075000D01*
G75*
G02*
X53200000Y-106325000I-250000J0D01*
G01*
X52700000Y-106325000D01*
G75*
G02*
X52450000Y-106075000I0J250000D01*
G01*
G37*
%TD.AperFunction*%
%TO.P,C6,1*%
%TO.N,GND*%
%TA.AperFunction,SMDPad,CuDef*%
G36*
G01*
X50550000Y-106075000D02*
X50550000Y-105125000D01*
G75*
G02*
X50800000Y-104875000I250000J0D01*
G01*
X51300000Y-104875000D01*
G75*
G02*
X51550000Y-105125000I0J-250000D01*
G01*
X51550000Y-106075000D01*
G75*
G02*
X51300000Y-106325000I-250000J0D01*
G01*
X50800000Y-106325000D01*
G75*
G02*
X50550000Y-106075000I0J250000D01*
G01*
G37*
%TD.AperFunction*%
%TD*%
%TO.P,C7,1*%
%TO.N,VDDA*%
%TA.AperFunction,SMDPad,CuDef*%
G36*
G01*
X53450000Y-102625000D02*
X53450000Y-103575000D01*
G75*
G02*
X53200000Y-103825000I-250000J0D01*
G01*
X52700000Y-103825000D01*
G75*
G02*
X52450000Y-103575000I0J250000D01*
G01*
X52450000Y-102625000D01*
G75*
G02*
X52700000Y-102375000I250000J0D01*
G01*
X53200000Y-102375000D01*
G75*
G02*
X53450000Y-102625000I0J-250000D01*
G01*
G37*
%TD.AperFunction*%
%TO.P,C7,2*%
%TO.N,GND*%
%TA.AperFunction,SMDPad,CuDef*%
G36*
G01*
X51550000Y-102625000D02*
X51550000Y-103575000D01*
G75*
G02*
X51300000Y-103825000I-250000J0D01*
G01*
X50800000Y-103825000D01*
G75*
G02*
X50550000Y-103575000I0J250000D01*
G01*
X50550000Y-102625000D01*
G75*
G02*
X50800000Y-102375000I250000J0D01*
G01*
X51300000Y-102375000D01*
G75*
G02*
X51550000Y-102625000I0J-250000D01*
G01*
G37*
%TD.AperFunction*%
%TD*%
%TO.P,C8,1*%
%TO.N,VBUS*%
%TA.AperFunction,SMDPad,CuDef*%
G36*
G01*
X64370000Y-114330000D02*
X64030000Y-114330000D01*
G75*
G02*
X63890000Y-114190000I0J140000D01*
G01*
X63890000Y-113910000D01*
G75*
G02*
X64030000Y-113770000I140000J0D01*
G01*
X64370000Y-113770000D01*
G75*
G02*
X64510000Y-113910000I0J-140000D01*
G01*
X64510000Y-114190000D01*
G75*
G02*
X64370000Y-114330000I-140000J0D01*
G01*
G37*
%TD.AperFunction*%
%TO.P,C8,2*%
%TO.N,GND*%
%TA.AperFunction,SMDPad,CuDef*%
G36*
G01*
X64370000Y-113370000D02*
X64030000Y-113370000D01*
G75*
G02*
X63890000Y-113230000I0J140000D01*
G01*
X63890000Y-112950000D01*
G75*
G02*
X64030000Y-112810000I140000J0D01*
G01*
X64370000Y-112810000D01*
G75*
G02*
X64510000Y-112950000I0J-140000D01*
G01*
X64510000Y-113230000D01*
G75*
G02*
X64370000Y-113370000I-140000J0D01*
G01*
G37*
%TD.AperFunction*%
%TD*%
%TO.P,C9,2*%
%TO.N,VBat-*%
%TA.AperFunction,SMDPad,CuDef*%
G36*
G01*
X57730000Y-107900000D02*
X58070000Y-107900000D01*
G75*
G02*
X58210000Y-108040000I0J-140000D01*
G01*
X58210000Y-108320000D01*
G75*
G02*
X58070000Y-108460000I-140000J0D01*
G01*
X57730000Y-108460000D01*
G75*
G02*
X57590000Y-108320000I0J140000D01*
G01*
X57590000Y-108040000D01*
G75*
G02*
X57730000Y-107900000I140000J0D01*
G01*
G37*
%TD.AperFunction*%
%TO.P,C9,1*%
%TO.N,Net-(C9-Pad1)*%
%TA.AperFunction,SMDPad,CuDef*%
G36*
G01*
X57730000Y-106940000D02*
X58070000Y-106940000D01*
G75*
G02*
X58210000Y-107080000I0J-140000D01*
G01*
X58210000Y-107360000D01*
G75*
G02*
X58070000Y-107500000I-140000J0D01*
G01*
X57730000Y-107500000D01*
G75*
G02*
X57590000Y-107360000I0J140000D01*
G01*
X57590000Y-107080000D01*
G75*
G02*
X57730000Y-106940000I140000J0D01*
G01*
G37*
%TD.AperFunction*%
%TD*%
%TO.P,C10,1*%
%TO.N,VCC*%
%TA.AperFunction,SMDPad,CuDef*%
G36*
G01*
X59630000Y-108475000D02*
X59630000Y-107525000D01*
G75*
G02*
X59795000Y-107360000I165000J0D01*
G01*
X60125000Y-107360000D01*
G75*
G02*
X60290000Y-107525000I0J-165000D01*
G01*
X60290000Y-108475000D01*
G75*
G02*
X60125000Y-108640000I-165000J0D01*
G01*
X59795000Y-108640000D01*
G75*
G02*
X59630000Y-108475000I0J165000D01*
G01*
G37*
%TD.AperFunction*%
%TO.P,C10,2*%
%TO.N,GND*%
%TA.AperFunction,SMDPad,CuDef*%
G36*
G01*
X60710000Y-108475000D02*
X60710000Y-107525000D01*
G75*
G02*
X60875000Y-107360000I165000J0D01*
G01*
X61205000Y-107360000D01*
G75*
G02*
X61370000Y-107525000I0J-165000D01*
G01*
X61370000Y-108475000D01*
G75*
G02*
X61205000Y-108640000I-165000J0D01*
G01*
X60875000Y-108640000D01*
G75*
G02*
X60710000Y-108475000I0J165000D01*
G01*
G37*
%TD.AperFunction*%
%TD*%
%TO.P,D1,1*%
%TO.N,Net-(D1-Pad1)*%
%TA.AperFunction,SMDPad,CuDef*%
G36*
G01*
X53456250Y-115425000D02*
X52543750Y-115425000D01*
G75*
G02*
X52300000Y-115181250I0J243750D01*
G01*
X52300000Y-114693750D01*
G75*
G02*
X52543750Y-114450000I243750J0D01*
G01*
X53456250Y-114450000D01*
G75*
G02*
X53700000Y-114693750I0J-243750D01*
G01*
X53700000Y-115181250D01*
G75*
G02*
X53456250Y-115425000I-243750J0D01*
G01*
G37*
%TD.AperFunction*%
%TO.P,D1,2*%
%TO.N,VBUS*%
%TA.AperFunction,SMDPad,CuDef*%
G36*
G01*
X53456250Y-113550000D02*
X52543750Y-113550000D01*
G75*
G02*
X52300000Y-113306250I0J243750D01*
G01*
X52300000Y-112818750D01*
G75*
G02*
X52543750Y-112575000I243750J0D01*
G01*
X53456250Y-112575000D01*
G75*
G02*
X53700000Y-112818750I0J-243750D01*
G01*
X53700000Y-113306250D01*
G75*
G02*
X53456250Y-113550000I-243750J0D01*
G01*
G37*
%TD.AperFunction*%
%TD*%
%TO.P,D2,2*%
%TO.N,VBUS*%
%TA.AperFunction,SMDPad,CuDef*%
G36*
G01*
X52543750Y-110450000D02*
X53456250Y-110450000D01*
G75*
G02*
X53700000Y-110693750I0J-243750D01*
G01*
X53700000Y-111181250D01*
G75*
G02*
X53456250Y-111425000I-243750J0D01*
G01*
X52543750Y-111425000D01*
G75*
G02*
X52300000Y-111181250I0J243750D01*
G01*
X52300000Y-110693750D01*
G75*
G02*
X52543750Y-110450000I243750J0D01*
G01*
G37*
%TD.AperFunction*%
%TO.P,D2,1*%
%TO.N,Net-(D2-Pad1)*%
%TA.AperFunction,SMDPad,CuDef*%
G36*
G01*
X52543750Y-108575000D02*
X53456250Y-108575000D01*
G75*
G02*
X53700000Y-108818750I0J-243750D01*
G01*
X53700000Y-109306250D01*
G75*
G02*
X53456250Y-109550000I-243750J0D01*
G01*
X52543750Y-109550000D01*
G75*
G02*
X52300000Y-109306250I0J243750D01*
G01*
X52300000Y-108818750D01*
G75*
G02*
X52543750Y-108575000I243750J0D01*
G01*
G37*
%TD.AperFunction*%
%TD*%
%TO.P,D3,1*%
%TO.N,Net-(D3-Pad1)*%
%TA.AperFunction,SMDPad,CuDef*%
G36*
G01*
X61773750Y-76455000D02*
X62686250Y-76455000D01*
G75*
G02*
X62930000Y-76698750I0J-243750D01*
G01*
X62930000Y-77186250D01*
G75*
G02*
X62686250Y-77430000I-243750J0D01*
G01*
X61773750Y-77430000D01*
G75*
G02*
X61530000Y-77186250I0J243750D01*
G01*
X61530000Y-76698750D01*
G75*
G02*
X61773750Y-76455000I243750J0D01*
G01*
G37*
%TD.AperFunction*%
%TO.P,D3,2*%
%TO.N,/ESP_LED*%
%TA.AperFunction,SMDPad,CuDef*%
G36*
G01*
X61773750Y-78330000D02*
X62686250Y-78330000D01*
G75*
G02*
X62930000Y-78573750I0J-243750D01*
G01*
X62930000Y-79061250D01*
G75*
G02*
X62686250Y-79305000I-243750J0D01*
G01*
X61773750Y-79305000D01*
G75*
G02*
X61530000Y-79061250I0J243750D01*
G01*
X61530000Y-78573750D01*
G75*
G02*
X61773750Y-78330000I243750J0D01*
G01*
G37*
%TD.AperFunction*%
%TD*%
D16*
%TO.P,J2,6*%
%TO.N,Net-(J2-Pad6)*%
X70400000Y-119600000D03*
D17*
%TO.P,J2,5*%
%TO.N,GND*%
X67950000Y-116750000D03*
D16*
%TO.P,J2,6*%
%TO.N,Net-(J2-Pad6)*%
X62900000Y-119600000D03*
D17*
%TO.P,J2,1*%
%TO.N,VBUS*%
X65350000Y-116750000D03*
%TO.P,J2,2*%
%TO.N,Net-(J2-Pad2)*%
X66000000Y-116750000D03*
%TO.P,J2,3*%
%TO.N,Net-(J2-Pad3)*%
X66650000Y-116750000D03*
%TO.P,J2,4*%
%TO.N,Net-(J2-Pad4)*%
X67300000Y-116750000D03*
%TD*%
%TO.P,R1,1*%
%TO.N,Net-(D1-Pad1)*%
%TA.AperFunction,SMDPad,CuDef*%
G36*
G01*
X55275000Y-115225000D02*
X54725000Y-115225000D01*
G75*
G02*
X54525000Y-115025000I0J200000D01*
G01*
X54525000Y-114625000D01*
G75*
G02*
X54725000Y-114425000I200000J0D01*
G01*
X55275000Y-114425000D01*
G75*
G02*
X55475000Y-114625000I0J-200000D01*
G01*
X55475000Y-115025000D01*
G75*
G02*
X55275000Y-115225000I-200000J0D01*
G01*
G37*
%TD.AperFunction*%
%TO.P,R1,2*%
%TO.N,Net-(R1-Pad2)*%
%TA.AperFunction,SMDPad,CuDef*%
G36*
G01*
X55275000Y-113575000D02*
X54725000Y-113575000D01*
G75*
G02*
X54525000Y-113375000I0J200000D01*
G01*
X54525000Y-112975000D01*
G75*
G02*
X54725000Y-112775000I200000J0D01*
G01*
X55275000Y-112775000D01*
G75*
G02*
X55475000Y-112975000I0J-200000D01*
G01*
X55475000Y-113375000D01*
G75*
G02*
X55275000Y-113575000I-200000J0D01*
G01*
G37*
%TD.AperFunction*%
%TD*%
%TO.P,R2,1*%
%TO.N,Net-(R2-Pad1)*%
%TA.AperFunction,SMDPad,CuDef*%
G36*
G01*
X62975000Y-108075000D02*
X62975000Y-107525000D01*
G75*
G02*
X63175000Y-107325000I200000J0D01*
G01*
X63575000Y-107325000D01*
G75*
G02*
X63775000Y-107525000I0J-200000D01*
G01*
X63775000Y-108075000D01*
G75*
G02*
X63575000Y-108275000I-200000J0D01*
G01*
X63175000Y-108275000D01*
G75*
G02*
X62975000Y-108075000I0J200000D01*
G01*
G37*
%TD.AperFunction*%
%TO.P,R2,2*%
%TO.N,GND*%
%TA.AperFunction,SMDPad,CuDef*%
G36*
G01*
X64625000Y-108075000D02*
X64625000Y-107525000D01*
G75*
G02*
X64825000Y-107325000I200000J0D01*
G01*
X65225000Y-107325000D01*
G75*
G02*
X65425000Y-107525000I0J-200000D01*
G01*
X65425000Y-108075000D01*
G75*
G02*
X65225000Y-108275000I-200000J0D01*
G01*
X64825000Y-108275000D01*
G75*
G02*
X64625000Y-108075000I0J200000D01*
G01*
G37*
%TD.AperFunction*%
%TD*%
%TO.P,R3,2*%
%TO.N,Net-(R3-Pad2)*%
%TA.AperFunction,SMDPad,CuDef*%
G36*
G01*
X54725000Y-110425000D02*
X55275000Y-110425000D01*
G75*
G02*
X55475000Y-110625000I0J-200000D01*
G01*
X55475000Y-111025000D01*
G75*
G02*
X55275000Y-111225000I-200000J0D01*
G01*
X54725000Y-111225000D01*
G75*
G02*
X54525000Y-111025000I0J200000D01*
G01*
X54525000Y-110625000D01*
G75*
G02*
X54725000Y-110425000I200000J0D01*
G01*
G37*
%TD.AperFunction*%
%TO.P,R3,1*%
%TO.N,Net-(D2-Pad1)*%
%TA.AperFunction,SMDPad,CuDef*%
G36*
G01*
X54725000Y-108775000D02*
X55275000Y-108775000D01*
G75*
G02*
X55475000Y-108975000I0J-200000D01*
G01*
X55475000Y-109375000D01*
G75*
G02*
X55275000Y-109575000I-200000J0D01*
G01*
X54725000Y-109575000D01*
G75*
G02*
X54525000Y-109375000I0J200000D01*
G01*
X54525000Y-108975000D01*
G75*
G02*
X54725000Y-108775000I200000J0D01*
G01*
G37*
%TD.AperFunction*%
%TD*%
%TO.P,R4,1*%
%TO.N,GND*%
%TA.AperFunction,SMDPad,CuDef*%
G36*
G01*
X64225000Y-109325000D02*
X64775000Y-109325000D01*
G75*
G02*
X64975000Y-109525000I0J-200000D01*
G01*
X64975000Y-109925000D01*
G75*
G02*
X64775000Y-110125000I-200000J0D01*
G01*
X64225000Y-110125000D01*
G75*
G02*
X64025000Y-109925000I0J200000D01*
G01*
X64025000Y-109525000D01*
G75*
G02*
X64225000Y-109325000I200000J0D01*
G01*
G37*
%TD.AperFunction*%
%TO.P,R4,2*%
%TO.N,Net-(R4-Pad2)*%
%TA.AperFunction,SMDPad,CuDef*%
G36*
G01*
X64225000Y-110975000D02*
X64775000Y-110975000D01*
G75*
G02*
X64975000Y-111175000I0J-200000D01*
G01*
X64975000Y-111575000D01*
G75*
G02*
X64775000Y-111775000I-200000J0D01*
G01*
X64225000Y-111775000D01*
G75*
G02*
X64025000Y-111575000I0J200000D01*
G01*
X64025000Y-111175000D01*
G75*
G02*
X64225000Y-110975000I200000J0D01*
G01*
G37*
%TD.AperFunction*%
%TD*%
%TO.P,R5,2*%
%TO.N,VDDA*%
%TA.AperFunction,SMDPad,CuDef*%
G36*
G01*
X71825000Y-100675000D02*
X71825000Y-100125000D01*
G75*
G02*
X72025000Y-99925000I200000J0D01*
G01*
X72425000Y-99925000D01*
G75*
G02*
X72625000Y-100125000I0J-200000D01*
G01*
X72625000Y-100675000D01*
G75*
G02*
X72425000Y-100875000I-200000J0D01*
G01*
X72025000Y-100875000D01*
G75*
G02*
X71825000Y-100675000I0J200000D01*
G01*
G37*
%TD.AperFunction*%
%TO.P,R5,1*%
%TO.N,/ESP_EN*%
%TA.AperFunction,SMDPad,CuDef*%
G36*
G01*
X70175000Y-100675000D02*
X70175000Y-100125000D01*
G75*
G02*
X70375000Y-99925000I200000J0D01*
G01*
X70775000Y-99925000D01*
G75*
G02*
X70975000Y-100125000I0J-200000D01*
G01*
X70975000Y-100675000D01*
G75*
G02*
X70775000Y-100875000I-200000J0D01*
G01*
X70375000Y-100875000D01*
G75*
G02*
X70175000Y-100675000I0J200000D01*
G01*
G37*
%TD.AperFunction*%
%TD*%
%TO.P,R6,1*%
%TO.N,/ESP_I0*%
%TA.AperFunction,SMDPad,CuDef*%
G36*
G01*
X67125000Y-81325000D02*
X67125000Y-80775000D01*
G75*
G02*
X67325000Y-80575000I200000J0D01*
G01*
X67725000Y-80575000D01*
G75*
G02*
X67925000Y-80775000I0J-200000D01*
G01*
X67925000Y-81325000D01*
G75*
G02*
X67725000Y-81525000I-200000J0D01*
G01*
X67325000Y-81525000D01*
G75*
G02*
X67125000Y-81325000I0J200000D01*
G01*
G37*
%TD.AperFunction*%
%TO.P,R6,2*%
%TO.N,VDDA*%
%TA.AperFunction,SMDPad,CuDef*%
G36*
G01*
X68775000Y-81325000D02*
X68775000Y-80775000D01*
G75*
G02*
X68975000Y-80575000I200000J0D01*
G01*
X69375000Y-80575000D01*
G75*
G02*
X69575000Y-80775000I0J-200000D01*
G01*
X69575000Y-81325000D01*
G75*
G02*
X69375000Y-81525000I-200000J0D01*
G01*
X68975000Y-81525000D01*
G75*
G02*
X68775000Y-81325000I0J200000D01*
G01*
G37*
%TD.AperFunction*%
%TD*%
%TO.P,R7,1*%
%TO.N,/ESP_MTDO*%
%TA.AperFunction,SMDPad,CuDef*%
G36*
G01*
X70175000Y-87725000D02*
X70175000Y-87175000D01*
G75*
G02*
X70375000Y-86975000I200000J0D01*
G01*
X70775000Y-86975000D01*
G75*
G02*
X70975000Y-87175000I0J-200000D01*
G01*
X70975000Y-87725000D01*
G75*
G02*
X70775000Y-87925000I-200000J0D01*
G01*
X70375000Y-87925000D01*
G75*
G02*
X70175000Y-87725000I0J200000D01*
G01*
G37*
%TD.AperFunction*%
%TO.P,R7,2*%
%TO.N,GND*%
%TA.AperFunction,SMDPad,CuDef*%
G36*
G01*
X71825000Y-87725000D02*
X71825000Y-87175000D01*
G75*
G02*
X72025000Y-86975000I200000J0D01*
G01*
X72425000Y-86975000D01*
G75*
G02*
X72625000Y-87175000I0J-200000D01*
G01*
X72625000Y-87725000D01*
G75*
G02*
X72425000Y-87925000I-200000J0D01*
G01*
X72025000Y-87925000D01*
G75*
G02*
X71825000Y-87725000I0J200000D01*
G01*
G37*
%TD.AperFunction*%
%TD*%
%TO.P,R8,2*%
%TO.N,GND*%
%TA.AperFunction,SMDPad,CuDef*%
G36*
G01*
X71825000Y-86075000D02*
X71825000Y-85525000D01*
G75*
G02*
X72025000Y-85325000I200000J0D01*
G01*
X72425000Y-85325000D01*
G75*
G02*
X72625000Y-85525000I0J-200000D01*
G01*
X72625000Y-86075000D01*
G75*
G02*
X72425000Y-86275000I-200000J0D01*
G01*
X72025000Y-86275000D01*
G75*
G02*
X71825000Y-86075000I0J200000D01*
G01*
G37*
%TD.AperFunction*%
%TO.P,R8,1*%
%TO.N,/ESP_I2*%
%TA.AperFunction,SMDPad,CuDef*%
G36*
G01*
X70175000Y-86075000D02*
X70175000Y-85525000D01*
G75*
G02*
X70375000Y-85325000I200000J0D01*
G01*
X70775000Y-85325000D01*
G75*
G02*
X70975000Y-85525000I0J-200000D01*
G01*
X70975000Y-86075000D01*
G75*
G02*
X70775000Y-86275000I-200000J0D01*
G01*
X70375000Y-86275000D01*
G75*
G02*
X70175000Y-86075000I0J200000D01*
G01*
G37*
%TD.AperFunction*%
%TD*%
%TO.P,R9,2*%
%TO.N,VCC*%
%TA.AperFunction,SMDPad,CuDef*%
G36*
G01*
X56125000Y-107775000D02*
X56125000Y-107225000D01*
G75*
G02*
X56325000Y-107025000I200000J0D01*
G01*
X56725000Y-107025000D01*
G75*
G02*
X56925000Y-107225000I0J-200000D01*
G01*
X56925000Y-107775000D01*
G75*
G02*
X56725000Y-107975000I-200000J0D01*
G01*
X56325000Y-107975000D01*
G75*
G02*
X56125000Y-107775000I0J200000D01*
G01*
G37*
%TD.AperFunction*%
%TO.P,R9,1*%
%TO.N,Net-(C9-Pad1)*%
%TA.AperFunction,SMDPad,CuDef*%
G36*
G01*
X54475000Y-107775000D02*
X54475000Y-107225000D01*
G75*
G02*
X54675000Y-107025000I200000J0D01*
G01*
X55075000Y-107025000D01*
G75*
G02*
X55275000Y-107225000I0J-200000D01*
G01*
X55275000Y-107775000D01*
G75*
G02*
X55075000Y-107975000I-200000J0D01*
G01*
X54675000Y-107975000D01*
G75*
G02*
X54475000Y-107775000I0J200000D01*
G01*
G37*
%TD.AperFunction*%
%TD*%
%TO.P,R10,2*%
%TO.N,Net-(D3-Pad1)*%
%TA.AperFunction,SMDPad,CuDef*%
G36*
G01*
X60575000Y-77275000D02*
X60025000Y-77275000D01*
G75*
G02*
X59825000Y-77075000I0J200000D01*
G01*
X59825000Y-76675000D01*
G75*
G02*
X60025000Y-76475000I200000J0D01*
G01*
X60575000Y-76475000D01*
G75*
G02*
X60775000Y-76675000I0J-200000D01*
G01*
X60775000Y-77075000D01*
G75*
G02*
X60575000Y-77275000I-200000J0D01*
G01*
G37*
%TD.AperFunction*%
%TO.P,R10,1*%
%TO.N,GND*%
%TA.AperFunction,SMDPad,CuDef*%
G36*
G01*
X60575000Y-78925000D02*
X60025000Y-78925000D01*
G75*
G02*
X59825000Y-78725000I0J200000D01*
G01*
X59825000Y-78325000D01*
G75*
G02*
X60025000Y-78125000I200000J0D01*
G01*
X60575000Y-78125000D01*
G75*
G02*
X60775000Y-78325000I0J-200000D01*
G01*
X60775000Y-78725000D01*
G75*
G02*
X60575000Y-78925000I-200000J0D01*
G01*
G37*
%TD.AperFunction*%
%TD*%
%TO.P,R11,1*%
%TO.N,/ESP_SW*%
%TA.AperFunction,SMDPad,CuDef*%
G36*
G01*
X70175000Y-96425000D02*
X70175000Y-95875000D01*
G75*
G02*
X70375000Y-95675000I200000J0D01*
G01*
X70775000Y-95675000D01*
G75*
G02*
X70975000Y-95875000I0J-200000D01*
G01*
X70975000Y-96425000D01*
G75*
G02*
X70775000Y-96625000I-200000J0D01*
G01*
X70375000Y-96625000D01*
G75*
G02*
X70175000Y-96425000I0J200000D01*
G01*
G37*
%TD.AperFunction*%
%TO.P,R11,2*%
%TO.N,VDDA*%
%TA.AperFunction,SMDPad,CuDef*%
G36*
G01*
X71825000Y-96425000D02*
X71825000Y-95875000D01*
G75*
G02*
X72025000Y-95675000I200000J0D01*
G01*
X72425000Y-95675000D01*
G75*
G02*
X72625000Y-95875000I0J-200000D01*
G01*
X72625000Y-96425000D01*
G75*
G02*
X72425000Y-96625000I-200000J0D01*
G01*
X72025000Y-96625000D01*
G75*
G02*
X71825000Y-96425000I0J200000D01*
G01*
G37*
%TD.AperFunction*%
%TD*%
D18*
%TO.P,SW1,1*%
%TO.N,GND*%
X64850000Y-78220000D03*
X68450000Y-78220000D03*
%TO.P,SW1,2*%
%TO.N,/ESP_SW*%
X64850000Y-76780000D03*
X68450000Y-76780000D03*
%TD*%
D13*
%TO.P,U5,1*%
%TO.N,Net-(U5-Pad1)*%
X57140000Y-105350000D03*
%TO.P,U5,2*%
%TO.N,Net-(R2-Pad1)*%
X57140000Y-104400000D03*
%TO.P,U5,3*%
%TO.N,Net-(U5-Pad3)*%
X57140000Y-103450000D03*
%TO.P,U5,4*%
%TO.N,Net-(U5-Pad4)*%
X54940000Y-103450000D03*
%TO.P,U5,6*%
%TO.N,VBat-*%
X54940000Y-105350000D03*
%TO.P,U5,5*%
%TO.N,Net-(C9-Pad1)*%
X54940000Y-104400000D03*
%TD*%
D19*
%TO.P,U6,1*%
%TO.N,GND*%
X62390000Y-113665000D03*
%TO.P,U6,2*%
%TO.N,Net-(R4-Pad2)*%
X62390000Y-112395000D03*
%TO.P,U6,3*%
%TO.N,GND*%
X62390000Y-111125000D03*
%TO.P,U6,4*%
%TO.N,VBUS*%
X62390000Y-109855000D03*
%TO.P,U6,5*%
%TO.N,VCC*%
X56990000Y-109855000D03*
%TO.P,U6,6*%
%TO.N,Net-(R3-Pad2)*%
X56990000Y-111125000D03*
%TO.P,U6,7*%
%TO.N,Net-(R1-Pad2)*%
X56990000Y-112395000D03*
%TO.P,U6,8*%
%TO.N,VBUS*%
X56990000Y-113665000D03*
D20*
%TO.P,U6,9*%
%TO.N,GND*%
X59690000Y-111760000D03*
%TD*%
%TO.P,U7,1*%
%TO.N,Net-(U7-Pad1)*%
%TA.AperFunction,SMDPad,CuDef*%
G36*
G01*
X58900000Y-103425000D02*
X58900000Y-103225000D01*
G75*
G02*
X59000000Y-103125000I100000J0D01*
G01*
X60275000Y-103125000D01*
G75*
G02*
X60375000Y-103225000I0J-100000D01*
G01*
X60375000Y-103425000D01*
G75*
G02*
X60275000Y-103525000I-100000J0D01*
G01*
X59000000Y-103525000D01*
G75*
G02*
X58900000Y-103425000I0J100000D01*
G01*
G37*
%TD.AperFunction*%
%TO.P,U7,2*%
%TO.N,VBat-*%
%TA.AperFunction,SMDPad,CuDef*%
G36*
G01*
X58900000Y-104075000D02*
X58900000Y-103875000D01*
G75*
G02*
X59000000Y-103775000I100000J0D01*
G01*
X60275000Y-103775000D01*
G75*
G02*
X60375000Y-103875000I0J-100000D01*
G01*
X60375000Y-104075000D01*
G75*
G02*
X60275000Y-104175000I-100000J0D01*
G01*
X59000000Y-104175000D01*
G75*
G02*
X58900000Y-104075000I0J100000D01*
G01*
G37*
%TD.AperFunction*%
%TO.P,U7,3*%
%TA.AperFunction,SMDPad,CuDef*%
G36*
G01*
X58900000Y-104725000D02*
X58900000Y-104525000D01*
G75*
G02*
X59000000Y-104425000I100000J0D01*
G01*
X60275000Y-104425000D01*
G75*
G02*
X60375000Y-104525000I0J-100000D01*
G01*
X60375000Y-104725000D01*
G75*
G02*
X60275000Y-104825000I-100000J0D01*
G01*
X59000000Y-104825000D01*
G75*
G02*
X58900000Y-104725000I0J100000D01*
G01*
G37*
%TD.AperFunction*%
%TO.P,U7,4*%
%TO.N,Net-(U5-Pad1)*%
%TA.AperFunction,SMDPad,CuDef*%
G36*
G01*
X58900000Y-105375000D02*
X58900000Y-105175000D01*
G75*
G02*
X59000000Y-105075000I100000J0D01*
G01*
X60275000Y-105075000D01*
G75*
G02*
X60375000Y-105175000I0J-100000D01*
G01*
X60375000Y-105375000D01*
G75*
G02*
X60275000Y-105475000I-100000J0D01*
G01*
X59000000Y-105475000D01*
G75*
G02*
X58900000Y-105375000I0J100000D01*
G01*
G37*
%TD.AperFunction*%
%TO.P,U7,5*%
%TO.N,Net-(U5-Pad3)*%
%TA.AperFunction,SMDPad,CuDef*%
G36*
G01*
X64625000Y-105375000D02*
X64625000Y-105175000D01*
G75*
G02*
X64725000Y-105075000I100000J0D01*
G01*
X66000000Y-105075000D01*
G75*
G02*
X66100000Y-105175000I0J-100000D01*
G01*
X66100000Y-105375000D01*
G75*
G02*
X66000000Y-105475000I-100000J0D01*
G01*
X64725000Y-105475000D01*
G75*
G02*
X64625000Y-105375000I0J100000D01*
G01*
G37*
%TD.AperFunction*%
%TO.P,U7,6*%
%TO.N,GND*%
%TA.AperFunction,SMDPad,CuDef*%
G36*
G01*
X64625000Y-104725000D02*
X64625000Y-104525000D01*
G75*
G02*
X64725000Y-104425000I100000J0D01*
G01*
X66000000Y-104425000D01*
G75*
G02*
X66100000Y-104525000I0J-100000D01*
G01*
X66100000Y-104725000D01*
G75*
G02*
X66000000Y-104825000I-100000J0D01*
G01*
X64725000Y-104825000D01*
G75*
G02*
X64625000Y-104725000I0J100000D01*
G01*
G37*
%TD.AperFunction*%
%TO.P,U7,7*%
%TA.AperFunction,SMDPad,CuDef*%
G36*
G01*
X64625000Y-104075000D02*
X64625000Y-103875000D01*
G75*
G02*
X64725000Y-103775000I100000J0D01*
G01*
X66000000Y-103775000D01*
G75*
G02*
X66100000Y-103875000I0J-100000D01*
G01*
X66100000Y-104075000D01*
G75*
G02*
X66000000Y-104175000I-100000J0D01*
G01*
X64725000Y-104175000D01*
G75*
G02*
X64625000Y-104075000I0J100000D01*
G01*
G37*
%TD.AperFunction*%
%TO.P,U7,8*%
%TO.N,Net-(U7-Pad8)*%
%TA.AperFunction,SMDPad,CuDef*%
G36*
G01*
X64625000Y-103425000D02*
X64625000Y-103225000D01*
G75*
G02*
X64725000Y-103125000I100000J0D01*
G01*
X66000000Y-103125000D01*
G75*
G02*
X66100000Y-103225000I0J-100000D01*
G01*
X66100000Y-103425000D01*
G75*
G02*
X66000000Y-103525000I-100000J0D01*
G01*
X64725000Y-103525000D01*
G75*
G02*
X64625000Y-103425000I0J100000D01*
G01*
G37*
%TD.AperFunction*%
%TD*%
D21*
%TO.P,J3,1*%
%TO.N,VCC*%
X48900000Y-110700000D03*
D22*
%TO.P,J3,2*%
%TO.N,VBat-*%
X48900000Y-108700000D03*
%TD*%
D23*
%TO.P,J1,3*%
%TO.N,/ESP_TX*%
X80525000Y-93100000D03*
%TO.P,J1,2*%
%TO.N,/ESP_RX*%
X83065000Y-93300000D03*
%TO.P,J1,6*%
%TO.N,GND*%
X72905000Y-93300000D03*
%TO.P,J1,5*%
%TO.N,/ESP_I0*%
X75445000Y-93100000D03*
%TO.P,J1,4*%
%TO.N,/ESP_EN*%
X77985000Y-93300000D03*
D24*
%TO.P,J1,1*%
%TO.N,VDDA*%
X85605000Y-93100000D03*
%TD*%
D25*
%TO.P,RN1,1*%
%TO.N,/SDO_ADR*%
X80225000Y-84400000D03*
D26*
%TO.P,RN1,3*%
%TO.N,/SDI_3V*%
X78625000Y-84400000D03*
%TO.P,RN1,2*%
%TO.N,/SCK_3V*%
X79425000Y-84400000D03*
D25*
%TO.P,RN1,4*%
%TO.N,Net-(RN1-Pad4)*%
X77825000Y-84400000D03*
D26*
%TO.P,RN1,7*%
%TO.N,+3V3*%
X79425000Y-86200000D03*
D25*
%TO.P,RN1,8*%
X80225000Y-86200000D03*
D26*
%TO.P,RN1,6*%
X78625000Y-86200000D03*
D25*
%TO.P,RN1,5*%
X77825000Y-86200000D03*
%TD*%
D27*
%TO.N,GND*%
X59650000Y-110400000D03*
X59650000Y-111300000D03*
X59650000Y-112200000D03*
X59650000Y-113100000D03*
X60500000Y-113100000D03*
X60500000Y-112200000D03*
X60500000Y-111300000D03*
X60500000Y-110400000D03*
X58800000Y-110400000D03*
X58800000Y-111300000D03*
X58800000Y-112200000D03*
X58800000Y-113100000D03*
X77750000Y-110500000D03*
X77750000Y-111500000D03*
X77750000Y-112500000D03*
X76750000Y-112500000D03*
X76750000Y-111500000D03*
X76750000Y-110500000D03*
X77750000Y-109500000D03*
X76750000Y-109500000D03*
X46300000Y-114300000D03*
X74450000Y-118200000D03*
X83800000Y-81400000D03*
X71500000Y-82350000D03*
X74364814Y-82733442D03*
X82500000Y-97500000D03*
X85000000Y-97500000D03*
X87500000Y-97500000D03*
X87500000Y-100000000D03*
X85000000Y-100000000D03*
X82500000Y-100000000D03*
X87500000Y-102500000D03*
X85000000Y-102500000D03*
X82500000Y-102500000D03*
X82500000Y-105000000D03*
X85000000Y-105000000D03*
X87500000Y-105000000D03*
X87500000Y-107500000D03*
X87500000Y-110000000D03*
X87500000Y-112500000D03*
X87500000Y-114700000D03*
X85000000Y-114700000D03*
X82500000Y-115000000D03*
X82500000Y-112500000D03*
X82500000Y-110000000D03*
X82500000Y-107500000D03*
X85000000Y-107500000D03*
X85000000Y-110000000D03*
X85000000Y-112500000D03*
X82500000Y-117500000D03*
X82500000Y-120000000D03*
X80000000Y-120000000D03*
X80000000Y-117500000D03*
X80000000Y-115000000D03*
X80000000Y-112500000D03*
X80000000Y-110000000D03*
X80000000Y-107500000D03*
X80000000Y-105000000D03*
X80000000Y-105000000D03*
X80000000Y-102500000D03*
X77500000Y-120000000D03*
X87500000Y-87500000D03*
X85000000Y-87500000D03*
X87500000Y-85000000D03*
X87500000Y-82500000D03*
X52500000Y-85000000D03*
X52500000Y-87500000D03*
X52500000Y-90000000D03*
X52500000Y-92500000D03*
X55000000Y-90000000D03*
X55000000Y-92500000D03*
X62500000Y-85000000D03*
X65000000Y-85000000D03*
X65000000Y-87500000D03*
X62500000Y-87500000D03*
X57500000Y-85000000D03*
X60000000Y-85000000D03*
X60000000Y-87500000D03*
X55000000Y-95000000D03*
X52500000Y-95000000D03*
X62500000Y-95000000D03*
X65000000Y-95000000D03*
%TO.N,VCC*%
X58100000Y-118800000D03*
X74950000Y-119600000D03*
X75249503Y-83199624D03*
X79300000Y-96650000D03*
%TO.N,/SDO_ADR*%
X82575000Y-82900000D03*
X75100000Y-78150000D03*
%TO.N,/SDI_3V*%
X57325000Y-81200000D03*
X70750000Y-80150000D03*
X75715686Y-84084314D03*
%TO.N,/SCK_3V*%
X81325000Y-82625000D03*
X72725000Y-78250000D03*
%TO.N,VDDA*%
X71100000Y-81300000D03*
X77325000Y-89675000D03*
%TO.N,/ESP_RX*%
X56075000Y-81175000D03*
%TO.N,/ESP_TX*%
X54775000Y-81175000D03*
%TO.N,/ESP_EN*%
X54700000Y-102100000D03*
X68325000Y-103050000D03*
%TO.N,VBUS*%
X59919524Y-109359998D03*
X59300000Y-114400000D03*
%TO.N,VBat-*%
X56700000Y-108600000D03*
X51100000Y-108600000D03*
%TO.N,/ESP_LED*%
X68325000Y-101825000D03*
X60550000Y-79650000D03*
%TO.N,Net-(R2-Pad1)*%
X61400000Y-106600000D03*
X56000000Y-102100000D03*
%TO.N,/ESP_SW*%
X70575000Y-76750000D03*
X50300000Y-78300000D03*
%TO.N,Net-(U5-Pad3)*%
X57200000Y-102100000D03*
X62600000Y-106500000D03*
%TD*%
D28*
%TO.N,GND*%
X51050000Y-103100000D02*
X51050000Y-105600000D01*
X63890000Y-113090000D02*
X64200000Y-113090000D01*
X63315000Y-113665000D02*
X63890000Y-113090000D01*
X62390000Y-113665000D02*
X63315000Y-113665000D01*
X63100000Y-111125000D02*
X64500000Y-109725000D01*
X62390000Y-111125000D02*
X63100000Y-111125000D01*
X51000000Y-103050000D02*
X51050000Y-103100000D01*
X51000000Y-100200000D02*
X51000000Y-103050000D01*
X63450010Y-108675010D02*
X64500000Y-109725000D01*
X61715010Y-108675010D02*
X63450010Y-108675010D01*
X61040000Y-108000000D02*
X61715010Y-108675010D01*
X65025000Y-109200000D02*
X64500000Y-109725000D01*
X65025000Y-107800000D02*
X65025000Y-109200000D01*
X68600000Y-111000000D02*
X68200000Y-111400000D01*
X70950000Y-111000000D02*
X68600000Y-111000000D01*
X67950000Y-116750000D02*
X67950000Y-115350000D01*
X67950000Y-115350000D02*
X67400000Y-114800000D01*
X67400000Y-114800000D02*
X66100000Y-114800000D01*
X66100000Y-114800000D02*
X65400000Y-114100000D01*
X65400000Y-114100000D02*
X65400000Y-113400000D01*
X65090000Y-113090000D02*
X64200000Y-113090000D01*
X65400000Y-113400000D02*
X65090000Y-113090000D01*
X68200000Y-111400000D02*
X65890000Y-111400000D01*
X70950000Y-111000000D02*
X72500000Y-111000000D01*
X46300000Y-115800000D02*
X46300000Y-108100000D01*
X46300000Y-108100000D02*
X47900000Y-106500000D01*
X50150000Y-106500000D02*
X51050000Y-105600000D01*
X47900000Y-106500000D02*
X50150000Y-106500000D01*
X65425000Y-104300000D02*
X65362500Y-104237500D01*
X70700000Y-104300000D02*
X65425000Y-104300000D01*
X65362500Y-104237500D02*
X65362500Y-104625000D01*
X65362500Y-103975000D02*
X65362500Y-104237500D01*
X60300000Y-78525000D02*
X52075000Y-78525000D01*
X51000000Y-79600000D02*
X51000000Y-83200000D01*
X52075000Y-78525000D02*
X51000000Y-79600000D01*
X65780001Y-79150001D02*
X64850000Y-78220000D01*
X67519999Y-79150001D02*
X65780001Y-79150001D01*
X68450000Y-78220000D02*
X67519999Y-79150001D01*
X64460010Y-77830010D02*
X64850000Y-78220000D01*
X60994990Y-77830010D02*
X64460010Y-77830010D01*
X60300000Y-78525000D02*
X60994990Y-77830010D01*
X68800010Y-97124990D02*
X68510000Y-97415000D01*
X71424990Y-97124990D02*
X68800010Y-97124990D01*
X72550000Y-98250000D02*
X71424990Y-97124990D01*
X72500000Y-111000000D02*
X74400000Y-111000000D01*
X74400000Y-111000000D02*
X74750000Y-111350000D01*
X74750000Y-117900000D02*
X74450000Y-118200000D01*
X74750000Y-111350000D02*
X74750000Y-117900000D01*
X72225000Y-85800000D02*
X72225000Y-87450000D01*
X72225000Y-92620000D02*
X72905000Y-93300000D01*
X72225000Y-87450000D02*
X72225000Y-92620000D01*
X71424990Y-94780010D02*
X71424990Y-97124990D01*
X72905000Y-93300000D02*
X71424990Y-94780010D01*
X82350000Y-81400000D02*
X81500000Y-80550000D01*
X78819999Y-80155001D02*
X78425000Y-80550000D01*
X78819999Y-78155001D02*
X78819999Y-80155001D01*
X79400000Y-77575000D02*
X78819999Y-78155001D01*
X78425000Y-80550000D02*
X77550000Y-80550000D01*
X81500000Y-80550000D02*
X78425000Y-80550000D01*
X82350000Y-81400000D02*
X83800000Y-81400000D01*
X75112500Y-80950000D02*
X74625000Y-80950000D01*
X74625000Y-80950000D02*
X74175000Y-81400000D01*
X74175000Y-81400000D02*
X74175000Y-82500000D01*
X72100000Y-81750000D02*
X71500000Y-82350000D01*
X72737500Y-81750000D02*
X72100000Y-81750000D01*
X74175000Y-82543628D02*
X74364814Y-82733442D01*
X74175000Y-82500000D02*
X74175000Y-82543628D01*
%TO.N,VCC*%
X56869990Y-109975010D02*
X56990000Y-109855000D01*
X48900000Y-110700000D02*
X49624990Y-109975010D01*
X56525000Y-107500000D02*
X56100000Y-107500000D01*
X55875010Y-109575010D02*
X56275010Y-109975010D01*
X56100000Y-107500000D02*
X55875010Y-107724990D01*
X55875010Y-107724990D02*
X55875010Y-109575010D01*
X56275010Y-109975010D02*
X56869990Y-109975010D01*
X49624990Y-109975010D02*
X56275010Y-109975010D01*
X57415000Y-109855000D02*
X58270000Y-109000000D01*
X56990000Y-109855000D02*
X57415000Y-109855000D01*
X58960000Y-109000000D02*
X59960000Y-108000000D01*
X58270000Y-109000000D02*
X58960000Y-109000000D01*
X70950000Y-108700000D02*
X72800000Y-108700000D01*
X75100000Y-106400000D02*
X75100000Y-104300000D01*
X72800000Y-108700000D02*
X75100000Y-106400000D01*
X70950000Y-108700000D02*
X74400000Y-108700000D01*
X74400000Y-108700000D02*
X75525000Y-109825000D01*
X75525000Y-119025000D02*
X74950000Y-119600000D01*
X75525000Y-109825000D02*
X75525000Y-119025000D01*
X77500000Y-79550000D02*
X77550000Y-79600000D01*
X77500000Y-77575000D02*
X77500000Y-79550000D01*
X76924998Y-79600000D02*
X77550000Y-79600000D01*
X76619999Y-79904999D02*
X76924998Y-79600000D01*
X76800000Y-81500000D02*
X76619999Y-81319999D01*
X77550000Y-81500000D02*
X76800000Y-81500000D01*
X76619999Y-81319999D02*
X76619999Y-79904999D01*
X76619999Y-81319999D02*
X76619999Y-81353543D01*
X76619999Y-81353543D02*
X76619999Y-81736457D01*
X75249503Y-83106953D02*
X75249503Y-83199624D01*
X76619999Y-81736457D02*
X75249503Y-83106953D01*
X79300000Y-96650000D02*
X79300000Y-98375000D01*
X75100000Y-102575000D02*
X75100000Y-104300000D01*
X79300000Y-98375000D02*
X75100000Y-102575000D01*
X51100000Y-111500000D02*
X50300000Y-110700000D01*
X50300000Y-110700000D02*
X48900000Y-110700000D01*
X51100000Y-115800000D02*
X51100000Y-111500000D01*
X55747926Y-116447926D02*
X51747926Y-116447926D01*
X51747926Y-116447926D02*
X51100000Y-115800000D01*
X58100000Y-118800000D02*
X55747926Y-116447926D01*
%TO.N,+3V3*%
X82250000Y-79600000D02*
X82350000Y-79500000D01*
X79750000Y-79600000D02*
X82250000Y-79600000D01*
X75424998Y-80150000D02*
X76225000Y-79349998D01*
X75112500Y-80150000D02*
X75424998Y-80150000D01*
X79919246Y-76449990D02*
X80300010Y-76830754D01*
X76225000Y-77205744D02*
X76980754Y-76449990D01*
X80300010Y-79049990D02*
X79750000Y-79600000D01*
X80300010Y-76830754D02*
X80300010Y-79049990D01*
X76980754Y-76449990D02*
X79919246Y-76449990D01*
X76225000Y-79349998D02*
X76225000Y-77205744D01*
X75375000Y-81750000D02*
X75112500Y-81750000D01*
X75775010Y-81349990D02*
X75375000Y-81750000D01*
X75375000Y-80150000D02*
X75775010Y-80550010D01*
X75775010Y-80550010D02*
X75775010Y-81349990D01*
X75112500Y-80150000D02*
X75375000Y-80150000D01*
X83084002Y-79500000D02*
X84600001Y-81015999D01*
X82350000Y-79500000D02*
X83084002Y-79500000D01*
X84600001Y-81015999D02*
X84600001Y-85649999D01*
X84050000Y-86200000D02*
X80225000Y-86200000D01*
X84600001Y-85649999D02*
X84050000Y-86200000D01*
X80225000Y-86200000D02*
X79425000Y-86200000D01*
X79425000Y-86200000D02*
X78625000Y-86200000D01*
X78625000Y-86200000D02*
X77825000Y-86200000D01*
%TO.N,/SDO_ADR*%
X75100000Y-79337500D02*
X75112500Y-79350000D01*
X75100000Y-78150000D02*
X75100000Y-79337500D01*
X80225000Y-83925000D02*
X80225000Y-84400000D01*
X80350000Y-83800000D02*
X80225000Y-83925000D01*
X81675000Y-83800000D02*
X80350000Y-83800000D01*
X82575000Y-82900000D02*
X81675000Y-83800000D01*
%TO.N,/SDI_3V*%
X57350000Y-81225000D02*
X57325000Y-81200000D01*
X57350000Y-83200000D02*
X57350000Y-81225000D01*
X70750000Y-80150000D02*
X72737500Y-80150000D01*
X78625000Y-82975000D02*
X78625000Y-84400000D01*
X75715686Y-84084314D02*
X76075000Y-83725000D01*
X76075000Y-83129998D02*
X76454998Y-82750000D01*
X78400000Y-82750000D02*
X78625000Y-82975000D01*
X76454998Y-82750000D02*
X78400000Y-82750000D01*
X76075000Y-83725000D02*
X76075000Y-83129998D01*
%TO.N,/SCK_3V*%
X53540000Y-81185000D02*
X53550000Y-81175000D01*
X53540000Y-83200000D02*
X53540000Y-81185000D01*
X54350001Y-80374999D02*
X53550000Y-81175000D01*
X57684001Y-80374999D02*
X54350001Y-80374999D01*
X57909002Y-80600000D02*
X57684001Y-80374999D01*
X60784002Y-80600000D02*
X57909002Y-80600000D01*
X67350010Y-80174990D02*
X61209012Y-80174990D01*
X61209012Y-80174990D02*
X60784002Y-80600000D01*
X68175000Y-79350000D02*
X67350010Y-80174990D01*
X72737500Y-79350000D02*
X68175000Y-79350000D01*
X72725000Y-79337500D02*
X72737500Y-79350000D01*
X72725000Y-78250000D02*
X72725000Y-79337500D01*
X79425000Y-83175000D02*
X79425000Y-84400000D01*
X79975000Y-82625000D02*
X79425000Y-83175000D01*
X81325000Y-82625000D02*
X79975000Y-82625000D01*
%TO.N,VDDA*%
X52950000Y-103100000D02*
X52950000Y-105600000D01*
X52270000Y-102420000D02*
X52270000Y-100200000D01*
X52950000Y-103100000D02*
X52270000Y-102420000D01*
X70950000Y-113300000D02*
X68200000Y-113300000D01*
X72225000Y-100400000D02*
X72900000Y-100400000D01*
X72900000Y-100400000D02*
X73650000Y-99650000D01*
X73650000Y-99650000D02*
X73650000Y-96700000D01*
X73650000Y-96700000D02*
X73100000Y-96150000D01*
X73100000Y-96150000D02*
X72650000Y-96150000D01*
X72650000Y-96150000D02*
X72225000Y-96150000D01*
X76734999Y-95490001D02*
X76075000Y-96150000D01*
X76734999Y-92699999D02*
X76734999Y-95490001D01*
X76075000Y-96150000D02*
X72650000Y-96150000D01*
X77384999Y-92049999D02*
X76734999Y-92699999D01*
X79274999Y-92739997D02*
X78585001Y-92049999D01*
X80925001Y-94550001D02*
X80124999Y-94550001D01*
X80124999Y-94550001D02*
X79274999Y-93700001D01*
X78585001Y-92049999D02*
X77384999Y-92049999D01*
X81775001Y-92499999D02*
X81775001Y-93700001D01*
X83665001Y-92049999D02*
X82225001Y-92049999D01*
X79274999Y-93700001D02*
X79274999Y-92739997D01*
X82225001Y-92049999D02*
X81775001Y-92499999D01*
X84715002Y-93100000D02*
X83665001Y-92049999D01*
X81775001Y-93700001D02*
X80925001Y-94550001D01*
X85605000Y-93100000D02*
X84715002Y-93100000D01*
X72950000Y-114200000D02*
X72050000Y-113300000D01*
X73750001Y-120400001D02*
X72950000Y-119600000D01*
X72050000Y-113300000D02*
X70950000Y-113300000D01*
X72950000Y-119600000D02*
X72950000Y-114200000D01*
X70850000Y-81050000D02*
X71100000Y-81300000D01*
X69175000Y-81050000D02*
X70850000Y-81050000D01*
X77325000Y-89675000D02*
X78525000Y-89675000D01*
X79274999Y-90424999D02*
X79274999Y-92739997D01*
X78525000Y-89675000D02*
X79274999Y-90424999D01*
X75334001Y-120400001D02*
X76700000Y-119034002D01*
X73750001Y-120400001D02*
X75334001Y-120400001D01*
X76700000Y-119034002D02*
X76700000Y-114100000D01*
X76700000Y-114100000D02*
X78200000Y-114100000D01*
X78650001Y-113649999D02*
X78650001Y-107050001D01*
X78200000Y-114100000D02*
X78650001Y-113649999D01*
X78650001Y-107050001D02*
X77800000Y-106200000D01*
X77800000Y-106200000D02*
X77800000Y-101400000D01*
X80100001Y-94574999D02*
X80124999Y-94550001D01*
X80100001Y-99099999D02*
X80100001Y-94574999D01*
X77800000Y-101400000D02*
X80100001Y-99099999D01*
X48708998Y-107300000D02*
X52700000Y-107300000D01*
X47800000Y-108208998D02*
X48708998Y-107300000D01*
X47800000Y-111670002D02*
X47800000Y-108208998D01*
X50000000Y-112300000D02*
X48429998Y-112300000D01*
X50400000Y-112700000D02*
X50000000Y-112300000D01*
X52700000Y-107300000D02*
X52950000Y-107050000D01*
X50400000Y-116100000D02*
X50400000Y-112700000D01*
X51500000Y-117200000D02*
X50400000Y-116100000D01*
X57100000Y-119900000D02*
X54400000Y-117200000D01*
X52950000Y-107050000D02*
X52950000Y-105600000D01*
X58800000Y-119900000D02*
X57100000Y-119900000D01*
X59400000Y-119300000D02*
X58800000Y-119900000D01*
X60100000Y-117900000D02*
X59400000Y-118600000D01*
X54400000Y-117200000D02*
X51500000Y-117200000D01*
X69800000Y-117900000D02*
X60100000Y-117900000D01*
X59400000Y-118600000D02*
X59400000Y-119300000D01*
X48429998Y-112300000D02*
X47800000Y-111670002D01*
X70950000Y-116750000D02*
X69800000Y-117900000D01*
X70950000Y-113300000D02*
X70950000Y-116750000D01*
%TO.N,/ESP_RX*%
X56080000Y-81180000D02*
X56075000Y-81175000D01*
X56080000Y-83200000D02*
X56080000Y-81180000D01*
%TO.N,/ESP_TX*%
X54810000Y-81210000D02*
X54775000Y-81175000D01*
X54810000Y-83200000D02*
X54810000Y-81210000D01*
%TO.N,/ESP_EN*%
X54040000Y-102100000D02*
X54700000Y-102100000D01*
X53540000Y-101600000D02*
X54040000Y-102100000D01*
X53540000Y-100200000D02*
X53540000Y-101600000D01*
X70650000Y-100325000D02*
X70575000Y-100400000D01*
X70650000Y-98250000D02*
X70650000Y-100325000D01*
X70575000Y-101575000D02*
X70575000Y-100400000D01*
X70100000Y-102050000D02*
X70575000Y-101575000D01*
X77985000Y-93300000D02*
X77985000Y-98215000D01*
X77985000Y-98215000D02*
X74150000Y-102050000D01*
X69850000Y-102050000D02*
X70100000Y-102050000D01*
X74150000Y-102050000D02*
X69850000Y-102050000D01*
X69325000Y-102050000D02*
X69850000Y-102050000D01*
X68325000Y-103050000D02*
X69325000Y-102050000D01*
%TO.N,/ESP_I0*%
X67525000Y-83185000D02*
X67510000Y-83200000D01*
X67525000Y-81050000D02*
X67525000Y-83185000D01*
X75445000Y-93100000D02*
X75445000Y-86045000D01*
X72600000Y-83200000D02*
X67510000Y-83200000D01*
X75445000Y-86045000D02*
X72600000Y-83200000D01*
%TO.N,VBUS*%
X53000000Y-113062500D02*
X51937500Y-113062500D01*
X51937500Y-113062500D02*
X51800000Y-113200000D01*
X51800000Y-115347916D02*
X52300000Y-115847916D01*
X51800000Y-113200000D02*
X51800000Y-115347916D01*
X52300000Y-115847916D02*
X55952084Y-115847916D01*
X55952084Y-115847916D02*
X56990000Y-114810000D01*
X53000000Y-110937500D02*
X53000000Y-113062500D01*
D29*
X61894998Y-109359998D02*
X59919524Y-109359998D01*
X62390000Y-109855000D02*
X61894998Y-109359998D01*
D28*
X59300000Y-114400000D02*
X57500000Y-114400000D01*
X56990000Y-113890000D02*
X56990000Y-113665000D01*
X57500000Y-114400000D02*
X56990000Y-113890000D01*
X56990000Y-114810000D02*
X56990000Y-113890000D01*
X63850000Y-114400000D02*
X64200000Y-114050000D01*
X59300000Y-114400000D02*
X63850000Y-114400000D01*
X64200000Y-115600000D02*
X65350000Y-116750000D01*
X64200000Y-114050000D02*
X64200000Y-115600000D01*
%TO.N,VBat-*%
X54940000Y-105860000D02*
X54940000Y-105350000D01*
X48900000Y-108700000D02*
X51000000Y-108700000D01*
X51000000Y-108700000D02*
X51700000Y-108000000D01*
X53700000Y-108000000D02*
X54000000Y-107700000D01*
X51700000Y-108000000D02*
X53700000Y-108000000D01*
X54000000Y-106800000D02*
X54940000Y-105860000D01*
X54000000Y-107700000D02*
X54000000Y-106800000D01*
X57480000Y-108600000D02*
X56700000Y-108600000D01*
X57900000Y-108180000D02*
X57480000Y-108600000D01*
X59637500Y-103975000D02*
X59637500Y-104625000D01*
X59637500Y-103975000D02*
X61375000Y-103975000D01*
X61375000Y-103975000D02*
X61500000Y-104100000D01*
X61500000Y-104857124D02*
X60157124Y-106200000D01*
X61500000Y-104100000D02*
X61500000Y-104857124D01*
X60157124Y-106200000D02*
X59200000Y-106200000D01*
X59200000Y-106200000D02*
X58900000Y-106500000D01*
X58210000Y-108180000D02*
X57900000Y-108180000D01*
X58900000Y-107490000D02*
X58210000Y-108180000D01*
X58900000Y-106500000D02*
X58900000Y-107490000D01*
%TO.N,Net-(C9-Pad1)*%
X54875000Y-107500000D02*
X54875000Y-106925000D01*
X55175010Y-106624990D02*
X57624990Y-106624990D01*
X54875000Y-106925000D02*
X55175010Y-106624990D01*
X57900000Y-106900000D02*
X57900000Y-107220000D01*
X57624990Y-106624990D02*
X57900000Y-106900000D01*
X55870001Y-105929999D02*
X55175010Y-106624990D01*
X55565002Y-104400000D02*
X55870001Y-104704999D01*
X55870001Y-104704999D02*
X55870001Y-105929999D01*
X54940000Y-104400000D02*
X55565002Y-104400000D01*
%TO.N,Net-(D1-Pad1)*%
X54887500Y-114937500D02*
X55000000Y-114825000D01*
X53000000Y-114937500D02*
X54887500Y-114937500D01*
%TO.N,Net-(D2-Pad1)*%
X54887500Y-109062500D02*
X55000000Y-109175000D01*
X53000000Y-109062500D02*
X54887500Y-109062500D01*
%TO.N,Net-(D3-Pad1)*%
X62162500Y-76875000D02*
X62230000Y-76942500D01*
X60300000Y-76875000D02*
X62162500Y-76875000D01*
%TO.N,/ESP_LED*%
X66465000Y-101825000D02*
X68325000Y-101825000D01*
X66240000Y-101600000D02*
X66465000Y-101825000D01*
X66240000Y-100200000D02*
X66240000Y-101600000D01*
X61382500Y-78817500D02*
X60550000Y-79650000D01*
X62230000Y-78817500D02*
X61382500Y-78817500D01*
%TO.N,Net-(J2-Pad6)*%
X62900000Y-119600000D02*
X70400000Y-119600000D01*
%TO.N,Net-(R1-Pad2)*%
X55780000Y-112395000D02*
X56990000Y-112395000D01*
X55000000Y-113175000D02*
X55780000Y-112395000D01*
%TO.N,Net-(R2-Pad1)*%
X56000000Y-103885002D02*
X56514998Y-104400000D01*
X56514998Y-104400000D02*
X57140000Y-104400000D01*
X56000000Y-102100000D02*
X56000000Y-103885002D01*
X62600000Y-107800000D02*
X61400000Y-106600000D01*
X63375000Y-107800000D02*
X62600000Y-107800000D01*
%TO.N,Net-(R3-Pad2)*%
X55300000Y-111125000D02*
X55000000Y-110825000D01*
X56990000Y-111125000D02*
X55300000Y-111125000D01*
%TO.N,Net-(R4-Pad2)*%
X63480000Y-112395000D02*
X64500000Y-111375000D01*
X62390000Y-112395000D02*
X63480000Y-112395000D01*
%TO.N,/ESP_MTDO*%
X68515000Y-87250000D02*
X68510000Y-87255000D01*
X68705000Y-87450000D02*
X68510000Y-87255000D01*
X70575000Y-87450000D02*
X68705000Y-87450000D01*
%TO.N,/ESP_I2*%
X68695000Y-85800000D02*
X68510000Y-85985000D01*
X70575000Y-85800000D02*
X68695000Y-85800000D01*
%TO.N,/ESP_SW*%
X67580002Y-76780000D02*
X68450000Y-76780000D01*
X67010001Y-77350001D02*
X67580002Y-76780000D01*
X66289999Y-77350001D02*
X67010001Y-77350001D01*
X65719998Y-76780000D02*
X66289999Y-77350001D01*
X64850000Y-76780000D02*
X65719998Y-76780000D01*
X68515000Y-96150000D02*
X68510000Y-96145000D01*
X70575000Y-96150000D02*
X68515000Y-96150000D01*
X70545000Y-76780000D02*
X70575000Y-76750000D01*
X68450000Y-76780000D02*
X70545000Y-76780000D01*
X50149999Y-78450001D02*
X50149999Y-94174999D01*
X50300000Y-78300000D02*
X50149999Y-78450001D01*
X52120000Y-96145000D02*
X68510000Y-96145000D01*
X50149999Y-94174999D02*
X52120000Y-96145000D01*
%TO.N,Net-(RN1-Pad4)*%
X73075000Y-80950000D02*
X72737500Y-80950000D01*
X73400010Y-81275010D02*
X73075000Y-80950000D01*
X73400010Y-82900010D02*
X73400010Y-81275010D01*
X76075000Y-85575000D02*
X73400010Y-82900010D01*
X76825000Y-85575000D02*
X76075000Y-85575000D01*
X77025000Y-85375000D02*
X76825000Y-85575000D01*
X77025000Y-85375000D02*
X77025000Y-84625000D01*
X77250000Y-84400000D02*
X77825000Y-84400000D01*
X77025000Y-84625000D02*
X77250000Y-84400000D01*
%TO.N,Net-(U5-Pad1)*%
X57215000Y-105275000D02*
X57140000Y-105350000D01*
X59637500Y-105275000D02*
X57215000Y-105275000D01*
%TO.N,Net-(U5-Pad3)*%
X57140000Y-102160000D02*
X57200000Y-102100000D01*
X57140000Y-103450000D02*
X57140000Y-102160000D01*
X62600000Y-106500000D02*
X65000000Y-106500000D01*
X65362500Y-106137500D02*
X65362500Y-105275000D01*
X65000000Y-106500000D02*
X65362500Y-106137500D01*
%TD*%
D30*
%TO.N,GND*%
X48115707Y-106706709D02*
X48089559Y-106738571D01*
X47238574Y-107589557D01*
X47206710Y-107615707D01*
X47148902Y-107686146D01*
X47102364Y-107742853D01*
X47024828Y-107887912D01*
X46977082Y-108045310D01*
X46960960Y-108208998D01*
X46965001Y-108250026D01*
X46965000Y-111628983D01*
X46960960Y-111670002D01*
X46965000Y-111711020D01*
X46977082Y-111833690D01*
X47024828Y-111991088D01*
X47102364Y-112136147D01*
X47206709Y-112263293D01*
X47238578Y-112289447D01*
X47810560Y-112861431D01*
X47836707Y-112893291D01*
X47868566Y-112919437D01*
X47868568Y-112919439D01*
X47952464Y-112988290D01*
X47963852Y-112997636D01*
X48108911Y-113075172D01*
X48266309Y-113122918D01*
X48388979Y-113135000D01*
X48388980Y-113135000D01*
X48429998Y-113139040D01*
X48471016Y-113135000D01*
X49565001Y-113135000D01*
X49565000Y-116058981D01*
X49560960Y-116100000D01*
X49569683Y-116188570D01*
X49577082Y-116263688D01*
X49624828Y-116421086D01*
X49702364Y-116566145D01*
X49806709Y-116693291D01*
X49838578Y-116719445D01*
X50880563Y-117761432D01*
X50906709Y-117793291D01*
X50938568Y-117819437D01*
X50938570Y-117819439D01*
X51033854Y-117897636D01*
X51178913Y-117975172D01*
X51336311Y-118022918D01*
X51500000Y-118039040D01*
X51541018Y-118035000D01*
X54054133Y-118035000D01*
X56359131Y-120340000D01*
X45032279Y-120340000D01*
X44934576Y-120330420D01*
X44871643Y-120311420D01*
X44813594Y-120280554D01*
X44762657Y-120239011D01*
X44720752Y-120188356D01*
X44689485Y-120130529D01*
X44670044Y-120067728D01*
X44660000Y-119972165D01*
X44660000Y-117854495D01*
X44965000Y-117854495D01*
X44965000Y-118245505D01*
X45041282Y-118629003D01*
X45190915Y-118990250D01*
X45408149Y-119315364D01*
X45684636Y-119591851D01*
X46009750Y-119809085D01*
X46370997Y-119958718D01*
X46754495Y-120035000D01*
X47145505Y-120035000D01*
X47529003Y-119958718D01*
X47890250Y-119809085D01*
X48215364Y-119591851D01*
X48491851Y-119315364D01*
X48709085Y-118990250D01*
X48858718Y-118629003D01*
X48935000Y-118245505D01*
X48935000Y-117854495D01*
X48858718Y-117470997D01*
X48709085Y-117109750D01*
X48491851Y-116784636D01*
X48215364Y-116508149D01*
X47890250Y-116290915D01*
X47529003Y-116141282D01*
X47145505Y-116065000D01*
X46754495Y-116065000D01*
X46370997Y-116141282D01*
X46009750Y-116290915D01*
X45684636Y-116508149D01*
X45408149Y-116784636D01*
X45190915Y-117109750D01*
X45041282Y-117470997D01*
X44965000Y-117854495D01*
X44660000Y-117854495D01*
X44660000Y-106660000D01*
X48172622Y-106660000D01*
X48115707Y-106706709D01*
%TA.AperFunction,Conductor*%
D31*
G36*
X48115707Y-106706709D02*
G01*
X48089559Y-106738571D01*
X47238574Y-107589557D01*
X47206710Y-107615707D01*
X47148902Y-107686146D01*
X47102364Y-107742853D01*
X47024828Y-107887912D01*
X46977082Y-108045310D01*
X46960960Y-108208998D01*
X46965001Y-108250026D01*
X46965000Y-111628983D01*
X46960960Y-111670002D01*
X46965000Y-111711020D01*
X46977082Y-111833690D01*
X47024828Y-111991088D01*
X47102364Y-112136147D01*
X47206709Y-112263293D01*
X47238578Y-112289447D01*
X47810560Y-112861431D01*
X47836707Y-112893291D01*
X47868566Y-112919437D01*
X47868568Y-112919439D01*
X47952464Y-112988290D01*
X47963852Y-112997636D01*
X48108911Y-113075172D01*
X48266309Y-113122918D01*
X48388979Y-113135000D01*
X48388980Y-113135000D01*
X48429998Y-113139040D01*
X48471016Y-113135000D01*
X49565001Y-113135000D01*
X49565000Y-116058981D01*
X49560960Y-116100000D01*
X49569683Y-116188570D01*
X49577082Y-116263688D01*
X49624828Y-116421086D01*
X49702364Y-116566145D01*
X49806709Y-116693291D01*
X49838578Y-116719445D01*
X50880563Y-117761432D01*
X50906709Y-117793291D01*
X50938568Y-117819437D01*
X50938570Y-117819439D01*
X51033854Y-117897636D01*
X51178913Y-117975172D01*
X51336311Y-118022918D01*
X51500000Y-118039040D01*
X51541018Y-118035000D01*
X54054133Y-118035000D01*
X56359131Y-120340000D01*
X45032279Y-120340000D01*
X44934576Y-120330420D01*
X44871643Y-120311420D01*
X44813594Y-120280554D01*
X44762657Y-120239011D01*
X44720752Y-120188356D01*
X44689485Y-120130529D01*
X44670044Y-120067728D01*
X44660000Y-119972165D01*
X44660000Y-117854495D01*
X44965000Y-117854495D01*
X44965000Y-118245505D01*
X45041282Y-118629003D01*
X45190915Y-118990250D01*
X45408149Y-119315364D01*
X45684636Y-119591851D01*
X46009750Y-119809085D01*
X46370997Y-119958718D01*
X46754495Y-120035000D01*
X47145505Y-120035000D01*
X47529003Y-119958718D01*
X47890250Y-119809085D01*
X48215364Y-119591851D01*
X48491851Y-119315364D01*
X48709085Y-118990250D01*
X48858718Y-118629003D01*
X48935000Y-118245505D01*
X48935000Y-117854495D01*
X48858718Y-117470997D01*
X48709085Y-117109750D01*
X48491851Y-116784636D01*
X48215364Y-116508149D01*
X47890250Y-116290915D01*
X47529003Y-116141282D01*
X47145505Y-116065000D01*
X46754495Y-116065000D01*
X46370997Y-116141282D01*
X46009750Y-116290915D01*
X45684636Y-116508149D01*
X45408149Y-116784636D01*
X45190915Y-117109750D01*
X45041282Y-117470997D01*
X44965000Y-117854495D01*
X44660000Y-117854495D01*
X44660000Y-106660000D01*
X48172622Y-106660000D01*
X48115707Y-106706709D01*
G37*
%TD.AperFunction*%
D30*
X88365424Y-76669580D02*
X88428356Y-76688580D01*
X88486405Y-76719445D01*
X88537343Y-76760989D01*
X88579248Y-76811644D01*
X88610515Y-76869471D01*
X88629956Y-76932272D01*
X88640000Y-77027835D01*
X88640000Y-77932419D01*
X88640001Y-77932429D01*
X88640000Y-87232418D01*
X88640001Y-87232428D01*
X88640000Y-106332418D01*
X88640001Y-106332428D01*
X88640000Y-119967721D01*
X88630420Y-120065424D01*
X88611420Y-120128357D01*
X88580554Y-120186406D01*
X88539011Y-120237343D01*
X88488356Y-120279248D01*
X88430529Y-120310515D01*
X88367728Y-120329956D01*
X88272165Y-120340000D01*
X76574869Y-120340000D01*
X77261428Y-119653442D01*
X77293291Y-119627293D01*
X77397636Y-119500148D01*
X77475172Y-119355089D01*
X77522918Y-119197691D01*
X77535000Y-119075021D01*
X77535000Y-119075011D01*
X77539039Y-119034003D01*
X77535000Y-118992995D01*
X77535000Y-117854495D01*
X84365000Y-117854495D01*
X84365000Y-118245505D01*
X84441282Y-118629003D01*
X84590915Y-118990250D01*
X84808149Y-119315364D01*
X85084636Y-119591851D01*
X85409750Y-119809085D01*
X85770997Y-119958718D01*
X86154495Y-120035000D01*
X86545505Y-120035000D01*
X86929003Y-119958718D01*
X87290250Y-119809085D01*
X87615364Y-119591851D01*
X87891851Y-119315364D01*
X88109085Y-118990250D01*
X88258718Y-118629003D01*
X88335000Y-118245505D01*
X88335000Y-117854495D01*
X88258718Y-117470997D01*
X88109085Y-117109750D01*
X87891851Y-116784636D01*
X87615364Y-116508149D01*
X87290250Y-116290915D01*
X86929003Y-116141282D01*
X86545505Y-116065000D01*
X86154495Y-116065000D01*
X85770997Y-116141282D01*
X85409750Y-116290915D01*
X85084636Y-116508149D01*
X84808149Y-116784636D01*
X84590915Y-117109750D01*
X84441282Y-117470997D01*
X84365000Y-117854495D01*
X77535000Y-117854495D01*
X77535000Y-114935000D01*
X78158982Y-114935000D01*
X78200000Y-114939040D01*
X78241018Y-114935000D01*
X78241019Y-114935000D01*
X78363689Y-114922918D01*
X78521087Y-114875172D01*
X78666146Y-114797636D01*
X78793291Y-114693291D01*
X78819445Y-114661422D01*
X79211428Y-114269440D01*
X79243292Y-114243290D01*
X79347637Y-114116145D01*
X79425173Y-113971086D01*
X79472919Y-113813688D01*
X79485001Y-113691018D01*
X79485001Y-113691017D01*
X79489041Y-113649999D01*
X79485001Y-113608981D01*
X79485001Y-107091018D01*
X79489041Y-107050001D01*
X79480318Y-106961430D01*
X79472919Y-106886312D01*
X79425173Y-106728914D01*
X79347637Y-106583855D01*
X79322965Y-106553792D01*
X79269440Y-106488571D01*
X79269438Y-106488569D01*
X79243292Y-106456710D01*
X79211431Y-106430562D01*
X78635000Y-105854132D01*
X78635000Y-101745867D01*
X80661434Y-99719435D01*
X80693292Y-99693290D01*
X80721112Y-99659392D01*
X80797637Y-99566145D01*
X80875173Y-99421086D01*
X80895838Y-99352962D01*
X80922919Y-99263688D01*
X80935001Y-99141018D01*
X80935001Y-99141017D01*
X80939041Y-99099999D01*
X80935001Y-99058981D01*
X80935001Y-95388056D01*
X80966019Y-95385001D01*
X80966020Y-95385001D01*
X81088690Y-95372919D01*
X81246088Y-95325173D01*
X81391147Y-95247637D01*
X81518292Y-95143292D01*
X81544446Y-95111423D01*
X82168739Y-94487132D01*
X82361589Y-94615990D01*
X82631842Y-94727932D01*
X82918740Y-94785000D01*
X83211260Y-94785000D01*
X83498158Y-94727932D01*
X83768411Y-94615990D01*
X84011632Y-94453475D01*
X84202222Y-94262885D01*
X84224463Y-94304494D01*
X84303815Y-94401185D01*
X84400506Y-94480537D01*
X84510820Y-94539502D01*
X84630518Y-94575812D01*
X84755000Y-94588072D01*
X86455000Y-94588072D01*
X86579482Y-94575812D01*
X86699180Y-94539502D01*
X86809494Y-94480537D01*
X86906185Y-94401185D01*
X86985537Y-94304494D01*
X87044502Y-94194180D01*
X87080812Y-94074482D01*
X87093072Y-93950000D01*
X87093072Y-92250000D01*
X87080812Y-92125518D01*
X87044502Y-92005820D01*
X86985537Y-91895506D01*
X86906185Y-91798815D01*
X86809494Y-91719463D01*
X86699180Y-91660498D01*
X86579482Y-91624188D01*
X86455000Y-91611928D01*
X84755000Y-91611928D01*
X84630518Y-91624188D01*
X84510820Y-91660498D01*
X84475335Y-91679465D01*
X84284446Y-91488577D01*
X84258292Y-91456708D01*
X84131147Y-91352363D01*
X83986088Y-91274827D01*
X83828690Y-91227081D01*
X83706020Y-91214999D01*
X83706019Y-91214999D01*
X83665001Y-91210959D01*
X83623983Y-91214999D01*
X82266019Y-91214999D01*
X82225000Y-91210959D01*
X82183982Y-91214999D01*
X82061312Y-91227081D01*
X81903914Y-91274827D01*
X81758855Y-91352363D01*
X81631710Y-91456708D01*
X81605555Y-91488578D01*
X81277394Y-91816739D01*
X81228411Y-91784010D01*
X80958158Y-91672068D01*
X80671260Y-91615000D01*
X80378740Y-91615000D01*
X80109999Y-91668456D01*
X80109999Y-90466017D01*
X80114039Y-90424999D01*
X80105153Y-90334774D01*
X80097917Y-90261310D01*
X80050171Y-90103912D01*
X79972635Y-89958853D01*
X79868290Y-89831708D01*
X79836432Y-89805563D01*
X79144445Y-89113578D01*
X79118291Y-89081709D01*
X78991146Y-88977364D01*
X78846087Y-88899828D01*
X78688689Y-88852082D01*
X78566019Y-88840000D01*
X78566018Y-88840000D01*
X78525000Y-88835960D01*
X78483982Y-88840000D01*
X77938285Y-88840000D01*
X77815256Y-88757795D01*
X77626898Y-88679774D01*
X77426939Y-88640000D01*
X77223061Y-88640000D01*
X77023102Y-88679774D01*
X76834744Y-88757795D01*
X76665226Y-88871063D01*
X76521063Y-89015226D01*
X76407795Y-89184744D01*
X76329774Y-89373102D01*
X76290000Y-89573061D01*
X76290000Y-89776939D01*
X76329774Y-89976898D01*
X76407795Y-90165256D01*
X76521063Y-90334774D01*
X76665226Y-90478937D01*
X76834744Y-90592205D01*
X77023102Y-90670226D01*
X77223061Y-90710000D01*
X77426939Y-90710000D01*
X77626898Y-90670226D01*
X77815256Y-90592205D01*
X77938285Y-90510000D01*
X78179132Y-90510000D01*
X78439999Y-90770867D01*
X78439999Y-91214999D01*
X77426017Y-91214999D01*
X77384999Y-91210959D01*
X77343980Y-91214999D01*
X77221310Y-91227081D01*
X77063912Y-91274827D01*
X76918853Y-91352363D01*
X76791708Y-91456708D01*
X76765562Y-91488568D01*
X76341262Y-91912869D01*
X76280000Y-91871935D01*
X76280000Y-86410000D01*
X76783982Y-86410000D01*
X76825000Y-86414040D01*
X76866018Y-86410000D01*
X76866019Y-86410000D01*
X76936928Y-86403016D01*
X76936928Y-86600000D01*
X76949188Y-86724482D01*
X76985498Y-86844180D01*
X77044463Y-86954494D01*
X77123815Y-87051185D01*
X77220506Y-87130537D01*
X77330820Y-87189502D01*
X77450518Y-87225812D01*
X77575000Y-87238072D01*
X78075000Y-87238072D01*
X78199482Y-87225812D01*
X78250000Y-87210488D01*
X78300518Y-87225812D01*
X78425000Y-87238072D01*
X78825000Y-87238072D01*
X78949482Y-87225812D01*
X79025000Y-87202904D01*
X79100518Y-87225812D01*
X79225000Y-87238072D01*
X79625000Y-87238072D01*
X79749482Y-87225812D01*
X79800000Y-87210488D01*
X79850518Y-87225812D01*
X79975000Y-87238072D01*
X80475000Y-87238072D01*
X80599482Y-87225812D01*
X80719180Y-87189502D01*
X80829494Y-87130537D01*
X80926185Y-87051185D01*
X80939468Y-87035000D01*
X84008982Y-87035000D01*
X84050000Y-87039040D01*
X84091018Y-87035000D01*
X84091019Y-87035000D01*
X84213689Y-87022918D01*
X84371087Y-86975172D01*
X84516146Y-86897636D01*
X84643291Y-86793291D01*
X84669445Y-86761422D01*
X85161427Y-86269441D01*
X85193292Y-86243290D01*
X85297637Y-86116145D01*
X85375173Y-85971086D01*
X85422919Y-85813688D01*
X85435001Y-85691018D01*
X85439041Y-85649999D01*
X85435001Y-85608981D01*
X85435001Y-81057006D01*
X85439040Y-81015998D01*
X85435001Y-80974990D01*
X85435001Y-80974980D01*
X85422919Y-80852310D01*
X85375173Y-80694912D01*
X85367747Y-80681020D01*
X85409750Y-80709085D01*
X85770997Y-80858718D01*
X86154495Y-80935000D01*
X86545505Y-80935000D01*
X86929003Y-80858718D01*
X87290250Y-80709085D01*
X87615364Y-80491851D01*
X87891851Y-80215364D01*
X88109085Y-79890250D01*
X88258718Y-79529003D01*
X88335000Y-79145505D01*
X88335000Y-78754495D01*
X88258718Y-78370997D01*
X88109085Y-78009750D01*
X87891851Y-77684636D01*
X87615364Y-77408149D01*
X87290250Y-77190915D01*
X86929003Y-77041282D01*
X86545505Y-76965000D01*
X86154495Y-76965000D01*
X85770997Y-77041282D01*
X85409750Y-77190915D01*
X85084636Y-77408149D01*
X84808149Y-77684636D01*
X84590915Y-78009750D01*
X84441282Y-78370997D01*
X84365000Y-78754495D01*
X84365000Y-79145505D01*
X84441282Y-79529003D01*
X84545516Y-79780646D01*
X83703448Y-78938579D01*
X83677293Y-78906709D01*
X83617329Y-78857498D01*
X83563405Y-78756614D01*
X83452962Y-78622038D01*
X83318386Y-78511595D01*
X83164850Y-78429528D01*
X82998254Y-78378992D01*
X82825000Y-78361928D01*
X81875000Y-78361928D01*
X81701746Y-78378992D01*
X81535150Y-78429528D01*
X81381614Y-78511595D01*
X81247038Y-78622038D01*
X81136595Y-78756614D01*
X81135010Y-78759579D01*
X81135010Y-76871772D01*
X81139050Y-76830754D01*
X81131247Y-76751530D01*
X81122928Y-76667065D01*
X81120785Y-76660000D01*
X88267721Y-76660000D01*
X88365424Y-76669580D01*
%TA.AperFunction,Conductor*%
D31*
G36*
X88365424Y-76669580D02*
G01*
X88428356Y-76688580D01*
X88486405Y-76719445D01*
X88537343Y-76760989D01*
X88579248Y-76811644D01*
X88610515Y-76869471D01*
X88629956Y-76932272D01*
X88640000Y-77027835D01*
X88640000Y-77932419D01*
X88640001Y-77932429D01*
X88640000Y-87232418D01*
X88640001Y-87232428D01*
X88640000Y-106332418D01*
X88640001Y-106332428D01*
X88640000Y-119967721D01*
X88630420Y-120065424D01*
X88611420Y-120128357D01*
X88580554Y-120186406D01*
X88539011Y-120237343D01*
X88488356Y-120279248D01*
X88430529Y-120310515D01*
X88367728Y-120329956D01*
X88272165Y-120340000D01*
X76574869Y-120340000D01*
X77261428Y-119653442D01*
X77293291Y-119627293D01*
X77397636Y-119500148D01*
X77475172Y-119355089D01*
X77522918Y-119197691D01*
X77535000Y-119075021D01*
X77535000Y-119075011D01*
X77539039Y-119034003D01*
X77535000Y-118992995D01*
X77535000Y-117854495D01*
X84365000Y-117854495D01*
X84365000Y-118245505D01*
X84441282Y-118629003D01*
X84590915Y-118990250D01*
X84808149Y-119315364D01*
X85084636Y-119591851D01*
X85409750Y-119809085D01*
X85770997Y-119958718D01*
X86154495Y-120035000D01*
X86545505Y-120035000D01*
X86929003Y-119958718D01*
X87290250Y-119809085D01*
X87615364Y-119591851D01*
X87891851Y-119315364D01*
X88109085Y-118990250D01*
X88258718Y-118629003D01*
X88335000Y-118245505D01*
X88335000Y-117854495D01*
X88258718Y-117470997D01*
X88109085Y-117109750D01*
X87891851Y-116784636D01*
X87615364Y-116508149D01*
X87290250Y-116290915D01*
X86929003Y-116141282D01*
X86545505Y-116065000D01*
X86154495Y-116065000D01*
X85770997Y-116141282D01*
X85409750Y-116290915D01*
X85084636Y-116508149D01*
X84808149Y-116784636D01*
X84590915Y-117109750D01*
X84441282Y-117470997D01*
X84365000Y-117854495D01*
X77535000Y-117854495D01*
X77535000Y-114935000D01*
X78158982Y-114935000D01*
X78200000Y-114939040D01*
X78241018Y-114935000D01*
X78241019Y-114935000D01*
X78363689Y-114922918D01*
X78521087Y-114875172D01*
X78666146Y-114797636D01*
X78793291Y-114693291D01*
X78819445Y-114661422D01*
X79211428Y-114269440D01*
X79243292Y-114243290D01*
X79347637Y-114116145D01*
X79425173Y-113971086D01*
X79472919Y-113813688D01*
X79485001Y-113691018D01*
X79485001Y-113691017D01*
X79489041Y-113649999D01*
X79485001Y-113608981D01*
X79485001Y-107091018D01*
X79489041Y-107050001D01*
X79480318Y-106961430D01*
X79472919Y-106886312D01*
X79425173Y-106728914D01*
X79347637Y-106583855D01*
X79322965Y-106553792D01*
X79269440Y-106488571D01*
X79269438Y-106488569D01*
X79243292Y-106456710D01*
X79211431Y-106430562D01*
X78635000Y-105854132D01*
X78635000Y-101745867D01*
X80661434Y-99719435D01*
X80693292Y-99693290D01*
X80721112Y-99659392D01*
X80797637Y-99566145D01*
X80875173Y-99421086D01*
X80895838Y-99352962D01*
X80922919Y-99263688D01*
X80935001Y-99141018D01*
X80935001Y-99141017D01*
X80939041Y-99099999D01*
X80935001Y-99058981D01*
X80935001Y-95388056D01*
X80966019Y-95385001D01*
X80966020Y-95385001D01*
X81088690Y-95372919D01*
X81246088Y-95325173D01*
X81391147Y-95247637D01*
X81518292Y-95143292D01*
X81544446Y-95111423D01*
X82168739Y-94487132D01*
X82361589Y-94615990D01*
X82631842Y-94727932D01*
X82918740Y-94785000D01*
X83211260Y-94785000D01*
X83498158Y-94727932D01*
X83768411Y-94615990D01*
X84011632Y-94453475D01*
X84202222Y-94262885D01*
X84224463Y-94304494D01*
X84303815Y-94401185D01*
X84400506Y-94480537D01*
X84510820Y-94539502D01*
X84630518Y-94575812D01*
X84755000Y-94588072D01*
X86455000Y-94588072D01*
X86579482Y-94575812D01*
X86699180Y-94539502D01*
X86809494Y-94480537D01*
X86906185Y-94401185D01*
X86985537Y-94304494D01*
X87044502Y-94194180D01*
X87080812Y-94074482D01*
X87093072Y-93950000D01*
X87093072Y-92250000D01*
X87080812Y-92125518D01*
X87044502Y-92005820D01*
X86985537Y-91895506D01*
X86906185Y-91798815D01*
X86809494Y-91719463D01*
X86699180Y-91660498D01*
X86579482Y-91624188D01*
X86455000Y-91611928D01*
X84755000Y-91611928D01*
X84630518Y-91624188D01*
X84510820Y-91660498D01*
X84475335Y-91679465D01*
X84284446Y-91488577D01*
X84258292Y-91456708D01*
X84131147Y-91352363D01*
X83986088Y-91274827D01*
X83828690Y-91227081D01*
X83706020Y-91214999D01*
X83706019Y-91214999D01*
X83665001Y-91210959D01*
X83623983Y-91214999D01*
X82266019Y-91214999D01*
X82225000Y-91210959D01*
X82183982Y-91214999D01*
X82061312Y-91227081D01*
X81903914Y-91274827D01*
X81758855Y-91352363D01*
X81631710Y-91456708D01*
X81605555Y-91488578D01*
X81277394Y-91816739D01*
X81228411Y-91784010D01*
X80958158Y-91672068D01*
X80671260Y-91615000D01*
X80378740Y-91615000D01*
X80109999Y-91668456D01*
X80109999Y-90466017D01*
X80114039Y-90424999D01*
X80105153Y-90334774D01*
X80097917Y-90261310D01*
X80050171Y-90103912D01*
X79972635Y-89958853D01*
X79868290Y-89831708D01*
X79836432Y-89805563D01*
X79144445Y-89113578D01*
X79118291Y-89081709D01*
X78991146Y-88977364D01*
X78846087Y-88899828D01*
X78688689Y-88852082D01*
X78566019Y-88840000D01*
X78566018Y-88840000D01*
X78525000Y-88835960D01*
X78483982Y-88840000D01*
X77938285Y-88840000D01*
X77815256Y-88757795D01*
X77626898Y-88679774D01*
X77426939Y-88640000D01*
X77223061Y-88640000D01*
X77023102Y-88679774D01*
X76834744Y-88757795D01*
X76665226Y-88871063D01*
X76521063Y-89015226D01*
X76407795Y-89184744D01*
X76329774Y-89373102D01*
X76290000Y-89573061D01*
X76290000Y-89776939D01*
X76329774Y-89976898D01*
X76407795Y-90165256D01*
X76521063Y-90334774D01*
X76665226Y-90478937D01*
X76834744Y-90592205D01*
X77023102Y-90670226D01*
X77223061Y-90710000D01*
X77426939Y-90710000D01*
X77626898Y-90670226D01*
X77815256Y-90592205D01*
X77938285Y-90510000D01*
X78179132Y-90510000D01*
X78439999Y-90770867D01*
X78439999Y-91214999D01*
X77426017Y-91214999D01*
X77384999Y-91210959D01*
X77343980Y-91214999D01*
X77221310Y-91227081D01*
X77063912Y-91274827D01*
X76918853Y-91352363D01*
X76791708Y-91456708D01*
X76765562Y-91488568D01*
X76341262Y-91912869D01*
X76280000Y-91871935D01*
X76280000Y-86410000D01*
X76783982Y-86410000D01*
X76825000Y-86414040D01*
X76866018Y-86410000D01*
X76866019Y-86410000D01*
X76936928Y-86403016D01*
X76936928Y-86600000D01*
X76949188Y-86724482D01*
X76985498Y-86844180D01*
X77044463Y-86954494D01*
X77123815Y-87051185D01*
X77220506Y-87130537D01*
X77330820Y-87189502D01*
X77450518Y-87225812D01*
X77575000Y-87238072D01*
X78075000Y-87238072D01*
X78199482Y-87225812D01*
X78250000Y-87210488D01*
X78300518Y-87225812D01*
X78425000Y-87238072D01*
X78825000Y-87238072D01*
X78949482Y-87225812D01*
X79025000Y-87202904D01*
X79100518Y-87225812D01*
X79225000Y-87238072D01*
X79625000Y-87238072D01*
X79749482Y-87225812D01*
X79800000Y-87210488D01*
X79850518Y-87225812D01*
X79975000Y-87238072D01*
X80475000Y-87238072D01*
X80599482Y-87225812D01*
X80719180Y-87189502D01*
X80829494Y-87130537D01*
X80926185Y-87051185D01*
X80939468Y-87035000D01*
X84008982Y-87035000D01*
X84050000Y-87039040D01*
X84091018Y-87035000D01*
X84091019Y-87035000D01*
X84213689Y-87022918D01*
X84371087Y-86975172D01*
X84516146Y-86897636D01*
X84643291Y-86793291D01*
X84669445Y-86761422D01*
X85161427Y-86269441D01*
X85193292Y-86243290D01*
X85297637Y-86116145D01*
X85375173Y-85971086D01*
X85422919Y-85813688D01*
X85435001Y-85691018D01*
X85439041Y-85649999D01*
X85435001Y-85608981D01*
X85435001Y-81057006D01*
X85439040Y-81015998D01*
X85435001Y-80974990D01*
X85435001Y-80974980D01*
X85422919Y-80852310D01*
X85375173Y-80694912D01*
X85367747Y-80681020D01*
X85409750Y-80709085D01*
X85770997Y-80858718D01*
X86154495Y-80935000D01*
X86545505Y-80935000D01*
X86929003Y-80858718D01*
X87290250Y-80709085D01*
X87615364Y-80491851D01*
X87891851Y-80215364D01*
X88109085Y-79890250D01*
X88258718Y-79529003D01*
X88335000Y-79145505D01*
X88335000Y-78754495D01*
X88258718Y-78370997D01*
X88109085Y-78009750D01*
X87891851Y-77684636D01*
X87615364Y-77408149D01*
X87290250Y-77190915D01*
X86929003Y-77041282D01*
X86545505Y-76965000D01*
X86154495Y-76965000D01*
X85770997Y-77041282D01*
X85409750Y-77190915D01*
X85084636Y-77408149D01*
X84808149Y-77684636D01*
X84590915Y-78009750D01*
X84441282Y-78370997D01*
X84365000Y-78754495D01*
X84365000Y-79145505D01*
X84441282Y-79529003D01*
X84545516Y-79780646D01*
X83703448Y-78938579D01*
X83677293Y-78906709D01*
X83617329Y-78857498D01*
X83563405Y-78756614D01*
X83452962Y-78622038D01*
X83318386Y-78511595D01*
X83164850Y-78429528D01*
X82998254Y-78378992D01*
X82825000Y-78361928D01*
X81875000Y-78361928D01*
X81701746Y-78378992D01*
X81535150Y-78429528D01*
X81381614Y-78511595D01*
X81247038Y-78622038D01*
X81136595Y-78756614D01*
X81135010Y-78759579D01*
X81135010Y-76871772D01*
X81139050Y-76830754D01*
X81131247Y-76751530D01*
X81122928Y-76667065D01*
X81120785Y-76660000D01*
X88267721Y-76660000D01*
X88365424Y-76669580D01*
G37*
%TD.AperFunction*%
D30*
X72800000Y-109539040D02*
X72841018Y-109535000D01*
X74054133Y-109535000D01*
X74690000Y-110170868D01*
X74690001Y-118596440D01*
X74648102Y-118604774D01*
X74459744Y-118682795D01*
X74290226Y-118796063D01*
X74146063Y-118940226D01*
X74032795Y-119109744D01*
X73954774Y-119298102D01*
X73933902Y-119403034D01*
X73785000Y-119254133D01*
X73785000Y-114241015D01*
X73789040Y-114199999D01*
X73780781Y-114116145D01*
X73772918Y-114036311D01*
X73725172Y-113878913D01*
X73647636Y-113733854D01*
X73543291Y-113606709D01*
X73511426Y-113580558D01*
X72669446Y-112738579D01*
X72643291Y-112706709D01*
X72588072Y-112661392D01*
X72588072Y-112550000D01*
X72575812Y-112425518D01*
X72539502Y-112305820D01*
X72480537Y-112195506D01*
X72443191Y-112150000D01*
X72480537Y-112104494D01*
X72539502Y-111994180D01*
X72575812Y-111874482D01*
X72588072Y-111750000D01*
X72585000Y-111285750D01*
X72426250Y-111127000D01*
X71077000Y-111127000D01*
X71077000Y-111147000D01*
X70823000Y-111147000D01*
X70823000Y-111127000D01*
X70803000Y-111127000D01*
X70803000Y-110873000D01*
X70823000Y-110873000D01*
X70823000Y-110853000D01*
X71077000Y-110853000D01*
X71077000Y-110873000D01*
X72426250Y-110873000D01*
X72585000Y-110714250D01*
X72588072Y-110250000D01*
X72575812Y-110125518D01*
X72539502Y-110005820D01*
X72480537Y-109895506D01*
X72443191Y-109850000D01*
X72480537Y-109804494D01*
X72539502Y-109694180D01*
X72575812Y-109574482D01*
X72579701Y-109535000D01*
X72758982Y-109535000D01*
X72800000Y-109539040D01*
%TA.AperFunction,Conductor*%
D31*
G36*
X72800000Y-109539040D02*
G01*
X72841018Y-109535000D01*
X74054133Y-109535000D01*
X74690000Y-110170868D01*
X74690001Y-118596440D01*
X74648102Y-118604774D01*
X74459744Y-118682795D01*
X74290226Y-118796063D01*
X74146063Y-118940226D01*
X74032795Y-119109744D01*
X73954774Y-119298102D01*
X73933902Y-119403034D01*
X73785000Y-119254133D01*
X73785000Y-114241015D01*
X73789040Y-114199999D01*
X73780781Y-114116145D01*
X73772918Y-114036311D01*
X73725172Y-113878913D01*
X73647636Y-113733854D01*
X73543291Y-113606709D01*
X73511426Y-113580558D01*
X72669446Y-112738579D01*
X72643291Y-112706709D01*
X72588072Y-112661392D01*
X72588072Y-112550000D01*
X72575812Y-112425518D01*
X72539502Y-112305820D01*
X72480537Y-112195506D01*
X72443191Y-112150000D01*
X72480537Y-112104494D01*
X72539502Y-111994180D01*
X72575812Y-111874482D01*
X72588072Y-111750000D01*
X72585000Y-111285750D01*
X72426250Y-111127000D01*
X71077000Y-111127000D01*
X71077000Y-111147000D01*
X70823000Y-111147000D01*
X70823000Y-111127000D01*
X70803000Y-111127000D01*
X70803000Y-110873000D01*
X70823000Y-110873000D01*
X70823000Y-110853000D01*
X71077000Y-110853000D01*
X71077000Y-110873000D01*
X72426250Y-110873000D01*
X72585000Y-110714250D01*
X72588072Y-110250000D01*
X72575812Y-110125518D01*
X72539502Y-110005820D01*
X72480537Y-109895506D01*
X72443191Y-109850000D01*
X72480537Y-109804494D01*
X72539502Y-109694180D01*
X72575812Y-109574482D01*
X72579701Y-109535000D01*
X72758982Y-109535000D01*
X72800000Y-109539040D01*
G37*
%TD.AperFunction*%
D30*
X67329774Y-102748102D02*
X67290000Y-102948061D01*
X67290000Y-103151939D01*
X67329774Y-103351898D01*
X67407795Y-103540256D01*
X67521063Y-103709774D01*
X67665226Y-103853937D01*
X67834744Y-103967205D01*
X68023102Y-104045226D01*
X68223061Y-104085000D01*
X68426939Y-104085000D01*
X68601106Y-104050356D01*
X68723750Y-104173000D01*
X70573000Y-104173000D01*
X70573000Y-104153000D01*
X70827000Y-104153000D01*
X70827000Y-104173000D01*
X72676250Y-104173000D01*
X72835000Y-104014250D01*
X72838072Y-103500000D01*
X72825812Y-103375518D01*
X72789502Y-103255820D01*
X72730537Y-103145506D01*
X72651185Y-103048815D01*
X72554494Y-102969463D01*
X72444180Y-102910498D01*
X72360124Y-102885000D01*
X73656940Y-102885000D01*
X73510150Y-102929528D01*
X73356614Y-103011595D01*
X73222038Y-103122038D01*
X73111595Y-103256614D01*
X73029528Y-103410150D01*
X72978992Y-103576746D01*
X72961928Y-103750000D01*
X72961928Y-104850000D01*
X72978992Y-105023254D01*
X73029528Y-105189850D01*
X73111595Y-105343386D01*
X73222038Y-105477962D01*
X73356614Y-105588405D01*
X73510150Y-105670472D01*
X73676746Y-105721008D01*
X73850000Y-105738072D01*
X74265000Y-105738072D01*
X74265000Y-106054132D01*
X72556681Y-107762452D01*
X72539502Y-107705820D01*
X72480537Y-107595506D01*
X72401185Y-107498815D01*
X72304494Y-107419463D01*
X72194180Y-107360498D01*
X72074482Y-107324188D01*
X71950000Y-107311928D01*
X69950000Y-107311928D01*
X69825518Y-107324188D01*
X69705820Y-107360498D01*
X69595506Y-107419463D01*
X69498815Y-107498815D01*
X69419463Y-107595506D01*
X69360498Y-107705820D01*
X69324188Y-107825518D01*
X69311928Y-107950000D01*
X69311928Y-109450000D01*
X69324188Y-109574482D01*
X69360498Y-109694180D01*
X69419463Y-109804494D01*
X69456809Y-109850000D01*
X69419463Y-109895506D01*
X69360498Y-110005820D01*
X69324188Y-110125518D01*
X69311928Y-110250000D01*
X69312900Y-110396878D01*
X69279494Y-110369463D01*
X69169180Y-110310498D01*
X69049482Y-110274188D01*
X68925000Y-110261928D01*
X68485750Y-110265000D01*
X68327000Y-110423750D01*
X68327000Y-111273000D01*
X68347000Y-111273000D01*
X68347000Y-111527000D01*
X68327000Y-111527000D01*
X68327000Y-111547000D01*
X68073000Y-111547000D01*
X68073000Y-111527000D01*
X66998750Y-111527000D01*
X66840000Y-111685750D01*
X66836928Y-111900000D01*
X66849188Y-112024482D01*
X66885498Y-112144180D01*
X66944463Y-112254494D01*
X67023815Y-112351185D01*
X67103594Y-112416658D01*
X67097038Y-112422038D01*
X66986595Y-112556614D01*
X66904528Y-112710150D01*
X66853992Y-112876746D01*
X66836928Y-113050000D01*
X66836928Y-113550000D01*
X66853992Y-113723254D01*
X66904528Y-113889850D01*
X66986595Y-114043386D01*
X67097038Y-114177962D01*
X67231614Y-114288405D01*
X67385150Y-114370472D01*
X67551746Y-114421008D01*
X67725000Y-114438072D01*
X68675000Y-114438072D01*
X68848254Y-114421008D01*
X69014850Y-114370472D01*
X69168386Y-114288405D01*
X69302962Y-114177962D01*
X69322220Y-114154496D01*
X69324188Y-114174482D01*
X69360498Y-114294180D01*
X69419463Y-114404494D01*
X69498815Y-114501185D01*
X69595506Y-114580537D01*
X69705820Y-114639502D01*
X69825518Y-114675812D01*
X69950000Y-114688072D01*
X70115000Y-114688072D01*
X70115001Y-116404131D01*
X69454133Y-117065000D01*
X68785217Y-117065000D01*
X68785000Y-117035750D01*
X68626250Y-116877000D01*
X68138072Y-116877000D01*
X68138072Y-116623000D01*
X68626250Y-116623000D01*
X68785000Y-116464250D01*
X68787994Y-116059954D01*
X68777677Y-115935296D01*
X68743239Y-115815046D01*
X68686003Y-115703826D01*
X68608169Y-115605908D01*
X68512727Y-115525057D01*
X68403346Y-115464379D01*
X68284229Y-115426206D01*
X68181750Y-115415000D01*
X68023000Y-115573750D01*
X68023000Y-115686322D01*
X67951185Y-115598815D01*
X67854494Y-115519463D01*
X67786218Y-115482968D01*
X67718250Y-115415000D01*
X67627064Y-115424971D01*
X67624482Y-115424188D01*
X67500000Y-115411928D01*
X67100000Y-115411928D01*
X66975518Y-115424188D01*
X66975000Y-115424345D01*
X66974482Y-115424188D01*
X66850000Y-115411928D01*
X66450000Y-115411928D01*
X66325518Y-115424188D01*
X66325000Y-115424345D01*
X66324482Y-115424188D01*
X66200000Y-115411928D01*
X65800000Y-115411928D01*
X65675518Y-115424188D01*
X65675000Y-115424345D01*
X65674482Y-115424188D01*
X65550000Y-115411928D01*
X65192796Y-115411928D01*
X65035000Y-115254133D01*
X65035000Y-114588492D01*
X65088845Y-114487755D01*
X65133122Y-114341794D01*
X65148072Y-114190000D01*
X65148072Y-113910000D01*
X65133122Y-113758206D01*
X65093172Y-113626509D01*
X65098377Y-113616878D01*
X65135235Y-113497348D01*
X65145000Y-113375750D01*
X64986250Y-113217000D01*
X64716108Y-113217000D01*
X64667755Y-113191155D01*
X64521794Y-113146878D01*
X64370000Y-113131928D01*
X64053000Y-113131928D01*
X64053000Y-113004943D01*
X64073291Y-112988291D01*
X64099445Y-112956422D01*
X64112867Y-112943000D01*
X64327000Y-112943000D01*
X64327000Y-112963000D01*
X64986250Y-112963000D01*
X65145000Y-112804250D01*
X65135235Y-112682652D01*
X65098377Y-112563122D01*
X65038908Y-112453079D01*
X64981597Y-112383896D01*
X65095716Y-112349278D01*
X65240608Y-112271831D01*
X65367606Y-112167606D01*
X65471831Y-112040608D01*
X65549278Y-111895716D01*
X65596969Y-111738500D01*
X65613072Y-111575000D01*
X65613072Y-111175000D01*
X65596969Y-111011500D01*
X65563146Y-110900000D01*
X66836928Y-110900000D01*
X66840000Y-111114250D01*
X66998750Y-111273000D01*
X68073000Y-111273000D01*
X68073000Y-110423750D01*
X67914250Y-110265000D01*
X67475000Y-110261928D01*
X67350518Y-110274188D01*
X67230820Y-110310498D01*
X67120506Y-110369463D01*
X67023815Y-110448815D01*
X66944463Y-110545506D01*
X66885498Y-110655820D01*
X66849188Y-110775518D01*
X66836928Y-110900000D01*
X65563146Y-110900000D01*
X65549278Y-110854284D01*
X65471831Y-110709392D01*
X65388137Y-110607410D01*
X65426185Y-110576185D01*
X65505537Y-110479494D01*
X65564502Y-110369180D01*
X65600812Y-110249482D01*
X65613072Y-110125000D01*
X65610000Y-110010750D01*
X65451250Y-109852000D01*
X64627000Y-109852000D01*
X64627000Y-109872000D01*
X64373000Y-109872000D01*
X64373000Y-109852000D01*
X64353000Y-109852000D01*
X64353000Y-109598000D01*
X64373000Y-109598000D01*
X64373000Y-109578000D01*
X64627000Y-109578000D01*
X64627000Y-109598000D01*
X65451250Y-109598000D01*
X65610000Y-109439250D01*
X65613072Y-109325000D01*
X65600812Y-109200518D01*
X65564502Y-109080820D01*
X65505537Y-108970506D01*
X65455904Y-108910028D01*
X65549482Y-108900812D01*
X65669180Y-108864502D01*
X65779494Y-108805537D01*
X65876185Y-108726185D01*
X65955537Y-108629494D01*
X66014502Y-108519180D01*
X66050812Y-108399482D01*
X66063072Y-108275000D01*
X66060000Y-108085750D01*
X65901250Y-107927000D01*
X65152000Y-107927000D01*
X65152000Y-107947000D01*
X64898000Y-107947000D01*
X64898000Y-107927000D01*
X64878000Y-107927000D01*
X64878000Y-107673000D01*
X64898000Y-107673000D01*
X64898000Y-107653000D01*
X65152000Y-107653000D01*
X65152000Y-107673000D01*
X65901250Y-107673000D01*
X66060000Y-107514250D01*
X66063072Y-107325000D01*
X66050812Y-107200518D01*
X66014502Y-107080820D01*
X65955537Y-106970506D01*
X65876185Y-106873815D01*
X65838214Y-106842653D01*
X65923922Y-106756945D01*
X65955791Y-106730791D01*
X66060136Y-106603646D01*
X66137672Y-106458587D01*
X66185418Y-106301189D01*
X66197500Y-106178519D01*
X66197500Y-106178509D01*
X66201539Y-106137501D01*
X66197500Y-106096493D01*
X66197500Y-106082658D01*
X66282448Y-106056890D01*
X66410051Y-105988684D01*
X66521896Y-105896896D01*
X66613684Y-105785051D01*
X66681890Y-105657448D01*
X66723890Y-105518991D01*
X66738072Y-105375000D01*
X66738072Y-105175000D01*
X66730686Y-105100000D01*
X68561928Y-105100000D01*
X68574188Y-105224482D01*
X68610498Y-105344180D01*
X68669463Y-105454494D01*
X68748815Y-105551185D01*
X68845506Y-105630537D01*
X68955820Y-105689502D01*
X69075518Y-105725812D01*
X69200000Y-105738072D01*
X70414250Y-105735000D01*
X70573000Y-105576250D01*
X70573000Y-104427000D01*
X70827000Y-104427000D01*
X70827000Y-105576250D01*
X70985750Y-105735000D01*
X72200000Y-105738072D01*
X72324482Y-105725812D01*
X72444180Y-105689502D01*
X72554494Y-105630537D01*
X72651185Y-105551185D01*
X72730537Y-105454494D01*
X72789502Y-105344180D01*
X72825812Y-105224482D01*
X72838072Y-105100000D01*
X72835000Y-104585750D01*
X72676250Y-104427000D01*
X70827000Y-104427000D01*
X70573000Y-104427000D01*
X68723750Y-104427000D01*
X68565000Y-104585750D01*
X68561928Y-105100000D01*
X66730686Y-105100000D01*
X66723890Y-105031009D01*
X66712650Y-104993955D01*
X66723868Y-104958883D01*
X66735000Y-104856750D01*
X66576250Y-104698000D01*
X66558741Y-104698000D01*
X66521896Y-104653104D01*
X66520463Y-104651928D01*
X66544346Y-104632922D01*
X66625144Y-104537436D01*
X66667789Y-104460461D01*
X66735000Y-104393250D01*
X66724836Y-104300000D01*
X66735000Y-104206750D01*
X66667789Y-104139539D01*
X66625144Y-104062564D01*
X66544346Y-103967078D01*
X66520463Y-103948072D01*
X66521896Y-103946896D01*
X66558741Y-103902000D01*
X66576250Y-103902000D01*
X66735000Y-103743250D01*
X66723868Y-103641117D01*
X66712650Y-103606045D01*
X66723890Y-103568991D01*
X66738072Y-103425000D01*
X66738072Y-103225000D01*
X66723890Y-103081009D01*
X66681890Y-102942552D01*
X66613684Y-102814949D01*
X66521896Y-102703104D01*
X66473300Y-102663222D01*
X66506018Y-102660000D01*
X67366267Y-102660000D01*
X67329774Y-102748102D01*
%TA.AperFunction,Conductor*%
D31*
G36*
X67329774Y-102748102D02*
G01*
X67290000Y-102948061D01*
X67290000Y-103151939D01*
X67329774Y-103351898D01*
X67407795Y-103540256D01*
X67521063Y-103709774D01*
X67665226Y-103853937D01*
X67834744Y-103967205D01*
X68023102Y-104045226D01*
X68223061Y-104085000D01*
X68426939Y-104085000D01*
X68601106Y-104050356D01*
X68723750Y-104173000D01*
X70573000Y-104173000D01*
X70573000Y-104153000D01*
X70827000Y-104153000D01*
X70827000Y-104173000D01*
X72676250Y-104173000D01*
X72835000Y-104014250D01*
X72838072Y-103500000D01*
X72825812Y-103375518D01*
X72789502Y-103255820D01*
X72730537Y-103145506D01*
X72651185Y-103048815D01*
X72554494Y-102969463D01*
X72444180Y-102910498D01*
X72360124Y-102885000D01*
X73656940Y-102885000D01*
X73510150Y-102929528D01*
X73356614Y-103011595D01*
X73222038Y-103122038D01*
X73111595Y-103256614D01*
X73029528Y-103410150D01*
X72978992Y-103576746D01*
X72961928Y-103750000D01*
X72961928Y-104850000D01*
X72978992Y-105023254D01*
X73029528Y-105189850D01*
X73111595Y-105343386D01*
X73222038Y-105477962D01*
X73356614Y-105588405D01*
X73510150Y-105670472D01*
X73676746Y-105721008D01*
X73850000Y-105738072D01*
X74265000Y-105738072D01*
X74265000Y-106054132D01*
X72556681Y-107762452D01*
X72539502Y-107705820D01*
X72480537Y-107595506D01*
X72401185Y-107498815D01*
X72304494Y-107419463D01*
X72194180Y-107360498D01*
X72074482Y-107324188D01*
X71950000Y-107311928D01*
X69950000Y-107311928D01*
X69825518Y-107324188D01*
X69705820Y-107360498D01*
X69595506Y-107419463D01*
X69498815Y-107498815D01*
X69419463Y-107595506D01*
X69360498Y-107705820D01*
X69324188Y-107825518D01*
X69311928Y-107950000D01*
X69311928Y-109450000D01*
X69324188Y-109574482D01*
X69360498Y-109694180D01*
X69419463Y-109804494D01*
X69456809Y-109850000D01*
X69419463Y-109895506D01*
X69360498Y-110005820D01*
X69324188Y-110125518D01*
X69311928Y-110250000D01*
X69312900Y-110396878D01*
X69279494Y-110369463D01*
X69169180Y-110310498D01*
X69049482Y-110274188D01*
X68925000Y-110261928D01*
X68485750Y-110265000D01*
X68327000Y-110423750D01*
X68327000Y-111273000D01*
X68347000Y-111273000D01*
X68347000Y-111527000D01*
X68327000Y-111527000D01*
X68327000Y-111547000D01*
X68073000Y-111547000D01*
X68073000Y-111527000D01*
X66998750Y-111527000D01*
X66840000Y-111685750D01*
X66836928Y-111900000D01*
X66849188Y-112024482D01*
X66885498Y-112144180D01*
X66944463Y-112254494D01*
X67023815Y-112351185D01*
X67103594Y-112416658D01*
X67097038Y-112422038D01*
X66986595Y-112556614D01*
X66904528Y-112710150D01*
X66853992Y-112876746D01*
X66836928Y-113050000D01*
X66836928Y-113550000D01*
X66853992Y-113723254D01*
X66904528Y-113889850D01*
X66986595Y-114043386D01*
X67097038Y-114177962D01*
X67231614Y-114288405D01*
X67385150Y-114370472D01*
X67551746Y-114421008D01*
X67725000Y-114438072D01*
X68675000Y-114438072D01*
X68848254Y-114421008D01*
X69014850Y-114370472D01*
X69168386Y-114288405D01*
X69302962Y-114177962D01*
X69322220Y-114154496D01*
X69324188Y-114174482D01*
X69360498Y-114294180D01*
X69419463Y-114404494D01*
X69498815Y-114501185D01*
X69595506Y-114580537D01*
X69705820Y-114639502D01*
X69825518Y-114675812D01*
X69950000Y-114688072D01*
X70115000Y-114688072D01*
X70115001Y-116404131D01*
X69454133Y-117065000D01*
X68785217Y-117065000D01*
X68785000Y-117035750D01*
X68626250Y-116877000D01*
X68138072Y-116877000D01*
X68138072Y-116623000D01*
X68626250Y-116623000D01*
X68785000Y-116464250D01*
X68787994Y-116059954D01*
X68777677Y-115935296D01*
X68743239Y-115815046D01*
X68686003Y-115703826D01*
X68608169Y-115605908D01*
X68512727Y-115525057D01*
X68403346Y-115464379D01*
X68284229Y-115426206D01*
X68181750Y-115415000D01*
X68023000Y-115573750D01*
X68023000Y-115686322D01*
X67951185Y-115598815D01*
X67854494Y-115519463D01*
X67786218Y-115482968D01*
X67718250Y-115415000D01*
X67627064Y-115424971D01*
X67624482Y-115424188D01*
X67500000Y-115411928D01*
X67100000Y-115411928D01*
X66975518Y-115424188D01*
X66975000Y-115424345D01*
X66974482Y-115424188D01*
X66850000Y-115411928D01*
X66450000Y-115411928D01*
X66325518Y-115424188D01*
X66325000Y-115424345D01*
X66324482Y-115424188D01*
X66200000Y-115411928D01*
X65800000Y-115411928D01*
X65675518Y-115424188D01*
X65675000Y-115424345D01*
X65674482Y-115424188D01*
X65550000Y-115411928D01*
X65192796Y-115411928D01*
X65035000Y-115254133D01*
X65035000Y-114588492D01*
X65088845Y-114487755D01*
X65133122Y-114341794D01*
X65148072Y-114190000D01*
X65148072Y-113910000D01*
X65133122Y-113758206D01*
X65093172Y-113626509D01*
X65098377Y-113616878D01*
X65135235Y-113497348D01*
X65145000Y-113375750D01*
X64986250Y-113217000D01*
X64716108Y-113217000D01*
X64667755Y-113191155D01*
X64521794Y-113146878D01*
X64370000Y-113131928D01*
X64053000Y-113131928D01*
X64053000Y-113004943D01*
X64073291Y-112988291D01*
X64099445Y-112956422D01*
X64112867Y-112943000D01*
X64327000Y-112943000D01*
X64327000Y-112963000D01*
X64986250Y-112963000D01*
X65145000Y-112804250D01*
X65135235Y-112682652D01*
X65098377Y-112563122D01*
X65038908Y-112453079D01*
X64981597Y-112383896D01*
X65095716Y-112349278D01*
X65240608Y-112271831D01*
X65367606Y-112167606D01*
X65471831Y-112040608D01*
X65549278Y-111895716D01*
X65596969Y-111738500D01*
X65613072Y-111575000D01*
X65613072Y-111175000D01*
X65596969Y-111011500D01*
X65563146Y-110900000D01*
X66836928Y-110900000D01*
X66840000Y-111114250D01*
X66998750Y-111273000D01*
X68073000Y-111273000D01*
X68073000Y-110423750D01*
X67914250Y-110265000D01*
X67475000Y-110261928D01*
X67350518Y-110274188D01*
X67230820Y-110310498D01*
X67120506Y-110369463D01*
X67023815Y-110448815D01*
X66944463Y-110545506D01*
X66885498Y-110655820D01*
X66849188Y-110775518D01*
X66836928Y-110900000D01*
X65563146Y-110900000D01*
X65549278Y-110854284D01*
X65471831Y-110709392D01*
X65388137Y-110607410D01*
X65426185Y-110576185D01*
X65505537Y-110479494D01*
X65564502Y-110369180D01*
X65600812Y-110249482D01*
X65613072Y-110125000D01*
X65610000Y-110010750D01*
X65451250Y-109852000D01*
X64627000Y-109852000D01*
X64627000Y-109872000D01*
X64373000Y-109872000D01*
X64373000Y-109852000D01*
X64353000Y-109852000D01*
X64353000Y-109598000D01*
X64373000Y-109598000D01*
X64373000Y-109578000D01*
X64627000Y-109578000D01*
X64627000Y-109598000D01*
X65451250Y-109598000D01*
X65610000Y-109439250D01*
X65613072Y-109325000D01*
X65600812Y-109200518D01*
X65564502Y-109080820D01*
X65505537Y-108970506D01*
X65455904Y-108910028D01*
X65549482Y-108900812D01*
X65669180Y-108864502D01*
X65779494Y-108805537D01*
X65876185Y-108726185D01*
X65955537Y-108629494D01*
X66014502Y-108519180D01*
X66050812Y-108399482D01*
X66063072Y-108275000D01*
X66060000Y-108085750D01*
X65901250Y-107927000D01*
X65152000Y-107927000D01*
X65152000Y-107947000D01*
X64898000Y-107947000D01*
X64898000Y-107927000D01*
X64878000Y-107927000D01*
X64878000Y-107673000D01*
X64898000Y-107673000D01*
X64898000Y-107653000D01*
X65152000Y-107653000D01*
X65152000Y-107673000D01*
X65901250Y-107673000D01*
X66060000Y-107514250D01*
X66063072Y-107325000D01*
X66050812Y-107200518D01*
X66014502Y-107080820D01*
X65955537Y-106970506D01*
X65876185Y-106873815D01*
X65838214Y-106842653D01*
X65923922Y-106756945D01*
X65955791Y-106730791D01*
X66060136Y-106603646D01*
X66137672Y-106458587D01*
X66185418Y-106301189D01*
X66197500Y-106178519D01*
X66197500Y-106178509D01*
X66201539Y-106137501D01*
X66197500Y-106096493D01*
X66197500Y-106082658D01*
X66282448Y-106056890D01*
X66410051Y-105988684D01*
X66521896Y-105896896D01*
X66613684Y-105785051D01*
X66681890Y-105657448D01*
X66723890Y-105518991D01*
X66738072Y-105375000D01*
X66738072Y-105175000D01*
X66730686Y-105100000D01*
X68561928Y-105100000D01*
X68574188Y-105224482D01*
X68610498Y-105344180D01*
X68669463Y-105454494D01*
X68748815Y-105551185D01*
X68845506Y-105630537D01*
X68955820Y-105689502D01*
X69075518Y-105725812D01*
X69200000Y-105738072D01*
X70414250Y-105735000D01*
X70573000Y-105576250D01*
X70573000Y-104427000D01*
X70827000Y-104427000D01*
X70827000Y-105576250D01*
X70985750Y-105735000D01*
X72200000Y-105738072D01*
X72324482Y-105725812D01*
X72444180Y-105689502D01*
X72554494Y-105630537D01*
X72651185Y-105551185D01*
X72730537Y-105454494D01*
X72789502Y-105344180D01*
X72825812Y-105224482D01*
X72838072Y-105100000D01*
X72835000Y-104585750D01*
X72676250Y-104427000D01*
X70827000Y-104427000D01*
X70573000Y-104427000D01*
X68723750Y-104427000D01*
X68565000Y-104585750D01*
X68561928Y-105100000D01*
X66730686Y-105100000D01*
X66723890Y-105031009D01*
X66712650Y-104993955D01*
X66723868Y-104958883D01*
X66735000Y-104856750D01*
X66576250Y-104698000D01*
X66558741Y-104698000D01*
X66521896Y-104653104D01*
X66520463Y-104651928D01*
X66544346Y-104632922D01*
X66625144Y-104537436D01*
X66667789Y-104460461D01*
X66735000Y-104393250D01*
X66724836Y-104300000D01*
X66735000Y-104206750D01*
X66667789Y-104139539D01*
X66625144Y-104062564D01*
X66544346Y-103967078D01*
X66520463Y-103948072D01*
X66521896Y-103946896D01*
X66558741Y-103902000D01*
X66576250Y-103902000D01*
X66735000Y-103743250D01*
X66723868Y-103641117D01*
X66712650Y-103606045D01*
X66723890Y-103568991D01*
X66738072Y-103425000D01*
X66738072Y-103225000D01*
X66723890Y-103081009D01*
X66681890Y-102942552D01*
X66613684Y-102814949D01*
X66521896Y-102703104D01*
X66473300Y-102663222D01*
X66506018Y-102660000D01*
X67366267Y-102660000D01*
X67329774Y-102748102D01*
G37*
%TD.AperFunction*%
D30*
X59817000Y-111633000D02*
X59837000Y-111633000D01*
X59837000Y-111887000D01*
X59817000Y-111887000D01*
X59817000Y-111907000D01*
X59563000Y-111907000D01*
X59563000Y-111887000D01*
X59543000Y-111887000D01*
X59543000Y-111633000D01*
X59563000Y-111633000D01*
X59563000Y-111613000D01*
X59817000Y-111613000D01*
X59817000Y-111633000D01*
%TA.AperFunction,Conductor*%
D31*
G36*
X59817000Y-111633000D02*
G01*
X59837000Y-111633000D01*
X59837000Y-111887000D01*
X59817000Y-111887000D01*
X59817000Y-111907000D01*
X59563000Y-111907000D01*
X59563000Y-111887000D01*
X59543000Y-111887000D01*
X59543000Y-111633000D01*
X59563000Y-111633000D01*
X59563000Y-111613000D01*
X59817000Y-111613000D01*
X59817000Y-111633000D01*
G37*
%TD.AperFunction*%
D30*
X62517000Y-110998000D02*
X62537000Y-110998000D01*
X62537000Y-111252000D01*
X62517000Y-111252000D01*
X62517000Y-111272000D01*
X62263000Y-111272000D01*
X62263000Y-111252000D01*
X62243000Y-111252000D01*
X62243000Y-110998000D01*
X62263000Y-110998000D01*
X62263000Y-110978000D01*
X62517000Y-110978000D01*
X62517000Y-110998000D01*
%TA.AperFunction,Conductor*%
D31*
G36*
X62517000Y-110998000D02*
G01*
X62537000Y-110998000D01*
X62537000Y-111252000D01*
X62517000Y-111252000D01*
X62517000Y-111272000D01*
X62263000Y-111272000D01*
X62263000Y-111252000D01*
X62243000Y-111252000D01*
X62243000Y-110998000D01*
X62263000Y-110998000D01*
X62263000Y-110978000D01*
X62517000Y-110978000D01*
X62517000Y-110998000D01*
G37*
%TD.AperFunction*%
D30*
X76965000Y-106158981D02*
X76960960Y-106200000D01*
X76965000Y-106241018D01*
X76977082Y-106363688D01*
X77024828Y-106521086D01*
X77102364Y-106666145D01*
X77206709Y-106793291D01*
X77238578Y-106819445D01*
X77815002Y-107395870D01*
X77815002Y-108463799D01*
X77535750Y-108465000D01*
X77377000Y-108623750D01*
X77377000Y-110873000D01*
X77397000Y-110873000D01*
X77397000Y-111127000D01*
X77377000Y-111127000D01*
X77377000Y-111147000D01*
X77123000Y-111147000D01*
X77123000Y-111127000D01*
X77103000Y-111127000D01*
X77103000Y-110873000D01*
X77123000Y-110873000D01*
X77123000Y-108623750D01*
X76964250Y-108465000D01*
X76250000Y-108461928D01*
X76125518Y-108474188D01*
X76005820Y-108510498D01*
X75895506Y-108569463D01*
X75798815Y-108648815D01*
X75719463Y-108745506D01*
X75687037Y-108806170D01*
X75019446Y-108138579D01*
X74993291Y-108106709D01*
X74866146Y-108002364D01*
X74743865Y-107937003D01*
X75661428Y-107019440D01*
X75693291Y-106993291D01*
X75797636Y-106866146D01*
X75875172Y-106721087D01*
X75922918Y-106563689D01*
X75926745Y-106524829D01*
X75939040Y-106400001D01*
X75935000Y-106358982D01*
X75935000Y-105738072D01*
X76350000Y-105738072D01*
X76523254Y-105721008D01*
X76689850Y-105670472D01*
X76843386Y-105588405D01*
X76965000Y-105488599D01*
X76965000Y-106158981D01*
%TA.AperFunction,Conductor*%
D31*
G36*
X76965000Y-106158981D02*
G01*
X76960960Y-106200000D01*
X76965000Y-106241018D01*
X76977082Y-106363688D01*
X77024828Y-106521086D01*
X77102364Y-106666145D01*
X77206709Y-106793291D01*
X77238578Y-106819445D01*
X77815002Y-107395870D01*
X77815002Y-108463799D01*
X77535750Y-108465000D01*
X77377000Y-108623750D01*
X77377000Y-110873000D01*
X77397000Y-110873000D01*
X77397000Y-111127000D01*
X77377000Y-111127000D01*
X77377000Y-111147000D01*
X77123000Y-111147000D01*
X77123000Y-111127000D01*
X77103000Y-111127000D01*
X77103000Y-110873000D01*
X77123000Y-110873000D01*
X77123000Y-108623750D01*
X76964250Y-108465000D01*
X76250000Y-108461928D01*
X76125518Y-108474188D01*
X76005820Y-108510498D01*
X75895506Y-108569463D01*
X75798815Y-108648815D01*
X75719463Y-108745506D01*
X75687037Y-108806170D01*
X75019446Y-108138579D01*
X74993291Y-108106709D01*
X74866146Y-108002364D01*
X74743865Y-107937003D01*
X75661428Y-107019440D01*
X75693291Y-106993291D01*
X75797636Y-106866146D01*
X75875172Y-106721087D01*
X75922918Y-106563689D01*
X75926745Y-106524829D01*
X75939040Y-106400001D01*
X75935000Y-106358982D01*
X75935000Y-105738072D01*
X76350000Y-105738072D01*
X76523254Y-105721008D01*
X76689850Y-105670472D01*
X76843386Y-105588405D01*
X76965000Y-105488599D01*
X76965000Y-106158981D01*
G37*
%TD.AperFunction*%
D30*
X61167000Y-107873000D02*
X61187000Y-107873000D01*
X61187000Y-108127000D01*
X61167000Y-108127000D01*
X61167000Y-108147000D01*
X60928072Y-108147000D01*
X60928072Y-107853000D01*
X61167000Y-107853000D01*
X61167000Y-107873000D01*
%TA.AperFunction,Conductor*%
D31*
G36*
X61167000Y-107873000D02*
G01*
X61187000Y-107873000D01*
X61187000Y-108127000D01*
X61167000Y-108127000D01*
X61167000Y-108147000D01*
X60928072Y-108147000D01*
X60928072Y-107853000D01*
X61167000Y-107853000D01*
X61167000Y-107873000D01*
G37*
%TD.AperFunction*%
D30*
X51500559Y-96706427D02*
X51526709Y-96738291D01*
X51564662Y-96769438D01*
X51653854Y-96842636D01*
X51798913Y-96920172D01*
X51956311Y-96967918D01*
X52119999Y-96984040D01*
X52161018Y-96980000D01*
X66872209Y-96980000D01*
X66875000Y-97129250D01*
X67033750Y-97288000D01*
X68383000Y-97288000D01*
X68383000Y-97268000D01*
X68637000Y-97268000D01*
X68637000Y-97288000D01*
X68657000Y-97288000D01*
X68657000Y-97542000D01*
X68637000Y-97542000D01*
X68637000Y-98341250D01*
X68795750Y-98500000D01*
X69510000Y-98503072D01*
X69511928Y-98502882D01*
X69511928Y-98725000D01*
X69528992Y-98898254D01*
X69579528Y-99064850D01*
X69661595Y-99218386D01*
X69772038Y-99352962D01*
X69815001Y-99388220D01*
X69815001Y-99505634D01*
X69782394Y-99532394D01*
X69678169Y-99659392D01*
X69600722Y-99804284D01*
X69553031Y-99961500D01*
X69536928Y-100125000D01*
X69536928Y-100675000D01*
X69553031Y-100838500D01*
X69600722Y-100995716D01*
X69678169Y-101140608D01*
X69739221Y-101215000D01*
X69366018Y-101215000D01*
X69325000Y-101210960D01*
X69283982Y-101215000D01*
X69283981Y-101215000D01*
X69169715Y-101226254D01*
X69128937Y-101165226D01*
X68984774Y-101021063D01*
X68815256Y-100907795D01*
X68626898Y-100829774D01*
X68598072Y-100824040D01*
X68598072Y-99200000D01*
X68585812Y-99075518D01*
X68549502Y-98955820D01*
X68490537Y-98845506D01*
X68411185Y-98748815D01*
X68314494Y-98669463D01*
X68204180Y-98610498D01*
X68084482Y-98574188D01*
X67960000Y-98561928D01*
X67060000Y-98561928D01*
X66935518Y-98574188D01*
X66875000Y-98592546D01*
X66814482Y-98574188D01*
X66690000Y-98561928D01*
X65790000Y-98561928D01*
X65665518Y-98574188D01*
X65605000Y-98592546D01*
X65544482Y-98574188D01*
X65420000Y-98561928D01*
X64520000Y-98561928D01*
X64395518Y-98574188D01*
X64335000Y-98592546D01*
X64274482Y-98574188D01*
X64150000Y-98561928D01*
X63250000Y-98561928D01*
X63125518Y-98574188D01*
X63065000Y-98592546D01*
X63004482Y-98574188D01*
X62880000Y-98561928D01*
X61980000Y-98561928D01*
X61855518Y-98574188D01*
X61795000Y-98592546D01*
X61734482Y-98574188D01*
X61610000Y-98561928D01*
X60710000Y-98561928D01*
X60585518Y-98574188D01*
X60525000Y-98592546D01*
X60464482Y-98574188D01*
X60340000Y-98561928D01*
X59440000Y-98561928D01*
X59315518Y-98574188D01*
X59255000Y-98592546D01*
X59194482Y-98574188D01*
X59070000Y-98561928D01*
X58170000Y-98561928D01*
X58045518Y-98574188D01*
X57985000Y-98592546D01*
X57924482Y-98574188D01*
X57800000Y-98561928D01*
X56900000Y-98561928D01*
X56775518Y-98574188D01*
X56715000Y-98592546D01*
X56654482Y-98574188D01*
X56530000Y-98561928D01*
X55630000Y-98561928D01*
X55505518Y-98574188D01*
X55445000Y-98592546D01*
X55384482Y-98574188D01*
X55260000Y-98561928D01*
X54360000Y-98561928D01*
X54235518Y-98574188D01*
X54175000Y-98592546D01*
X54114482Y-98574188D01*
X53990000Y-98561928D01*
X53090000Y-98561928D01*
X52965518Y-98574188D01*
X52905000Y-98592546D01*
X52844482Y-98574188D01*
X52720000Y-98561928D01*
X51820000Y-98561928D01*
X51695518Y-98574188D01*
X51635000Y-98592546D01*
X51574482Y-98574188D01*
X51450000Y-98561928D01*
X51285750Y-98565000D01*
X51127000Y-98723750D01*
X51127000Y-100073000D01*
X51147000Y-100073000D01*
X51147000Y-100327000D01*
X51127000Y-100327000D01*
X51127000Y-101676250D01*
X51263250Y-101812500D01*
X51177000Y-101898750D01*
X51177000Y-102973000D01*
X51197000Y-102973000D01*
X51197000Y-103227000D01*
X51177000Y-103227000D01*
X51177000Y-104301250D01*
X51225750Y-104350000D01*
X51177000Y-104398750D01*
X51177000Y-105473000D01*
X51197000Y-105473000D01*
X51197000Y-105727000D01*
X51177000Y-105727000D01*
X51177000Y-105747000D01*
X50923000Y-105747000D01*
X50923000Y-105727000D01*
X50903000Y-105727000D01*
X50903000Y-105473000D01*
X50923000Y-105473000D01*
X50923000Y-104398750D01*
X50874250Y-104350000D01*
X50923000Y-104301250D01*
X50923000Y-103227000D01*
X50903000Y-103227000D01*
X50903000Y-102973000D01*
X50923000Y-102973000D01*
X50923000Y-101898750D01*
X50786750Y-101762500D01*
X50873000Y-101676250D01*
X50873000Y-100327000D01*
X50853000Y-100327000D01*
X50853000Y-100073000D01*
X50873000Y-100073000D01*
X50873000Y-98723750D01*
X50714250Y-98565000D01*
X50550000Y-98561928D01*
X50425518Y-98574188D01*
X50305820Y-98610498D01*
X50260000Y-98634990D01*
X50260000Y-97865000D01*
X66871928Y-97865000D01*
X66884188Y-97989482D01*
X66920498Y-98109180D01*
X66979463Y-98219494D01*
X67058815Y-98316185D01*
X67155506Y-98395537D01*
X67265820Y-98454502D01*
X67385518Y-98490812D01*
X67510000Y-98503072D01*
X68224250Y-98500000D01*
X68383000Y-98341250D01*
X68383000Y-97542000D01*
X67033750Y-97542000D01*
X66875000Y-97700750D01*
X66871928Y-97865000D01*
X50260000Y-97865000D01*
X50260000Y-95465867D01*
X51500559Y-96706427D01*
%TA.AperFunction,Conductor*%
D31*
G36*
X51500559Y-96706427D02*
G01*
X51526709Y-96738291D01*
X51564662Y-96769438D01*
X51653854Y-96842636D01*
X51798913Y-96920172D01*
X51956311Y-96967918D01*
X52119999Y-96984040D01*
X52161018Y-96980000D01*
X66872209Y-96980000D01*
X66875000Y-97129250D01*
X67033750Y-97288000D01*
X68383000Y-97288000D01*
X68383000Y-97268000D01*
X68637000Y-97268000D01*
X68637000Y-97288000D01*
X68657000Y-97288000D01*
X68657000Y-97542000D01*
X68637000Y-97542000D01*
X68637000Y-98341250D01*
X68795750Y-98500000D01*
X69510000Y-98503072D01*
X69511928Y-98502882D01*
X69511928Y-98725000D01*
X69528992Y-98898254D01*
X69579528Y-99064850D01*
X69661595Y-99218386D01*
X69772038Y-99352962D01*
X69815001Y-99388220D01*
X69815001Y-99505634D01*
X69782394Y-99532394D01*
X69678169Y-99659392D01*
X69600722Y-99804284D01*
X69553031Y-99961500D01*
X69536928Y-100125000D01*
X69536928Y-100675000D01*
X69553031Y-100838500D01*
X69600722Y-100995716D01*
X69678169Y-101140608D01*
X69739221Y-101215000D01*
X69366018Y-101215000D01*
X69325000Y-101210960D01*
X69283982Y-101215000D01*
X69283981Y-101215000D01*
X69169715Y-101226254D01*
X69128937Y-101165226D01*
X68984774Y-101021063D01*
X68815256Y-100907795D01*
X68626898Y-100829774D01*
X68598072Y-100824040D01*
X68598072Y-99200000D01*
X68585812Y-99075518D01*
X68549502Y-98955820D01*
X68490537Y-98845506D01*
X68411185Y-98748815D01*
X68314494Y-98669463D01*
X68204180Y-98610498D01*
X68084482Y-98574188D01*
X67960000Y-98561928D01*
X67060000Y-98561928D01*
X66935518Y-98574188D01*
X66875000Y-98592546D01*
X66814482Y-98574188D01*
X66690000Y-98561928D01*
X65790000Y-98561928D01*
X65665518Y-98574188D01*
X65605000Y-98592546D01*
X65544482Y-98574188D01*
X65420000Y-98561928D01*
X64520000Y-98561928D01*
X64395518Y-98574188D01*
X64335000Y-98592546D01*
X64274482Y-98574188D01*
X64150000Y-98561928D01*
X63250000Y-98561928D01*
X63125518Y-98574188D01*
X63065000Y-98592546D01*
X63004482Y-98574188D01*
X62880000Y-98561928D01*
X61980000Y-98561928D01*
X61855518Y-98574188D01*
X61795000Y-98592546D01*
X61734482Y-98574188D01*
X61610000Y-98561928D01*
X60710000Y-98561928D01*
X60585518Y-98574188D01*
X60525000Y-98592546D01*
X60464482Y-98574188D01*
X60340000Y-98561928D01*
X59440000Y-98561928D01*
X59315518Y-98574188D01*
X59255000Y-98592546D01*
X59194482Y-98574188D01*
X59070000Y-98561928D01*
X58170000Y-98561928D01*
X58045518Y-98574188D01*
X57985000Y-98592546D01*
X57924482Y-98574188D01*
X57800000Y-98561928D01*
X56900000Y-98561928D01*
X56775518Y-98574188D01*
X56715000Y-98592546D01*
X56654482Y-98574188D01*
X56530000Y-98561928D01*
X55630000Y-98561928D01*
X55505518Y-98574188D01*
X55445000Y-98592546D01*
X55384482Y-98574188D01*
X55260000Y-98561928D01*
X54360000Y-98561928D01*
X54235518Y-98574188D01*
X54175000Y-98592546D01*
X54114482Y-98574188D01*
X53990000Y-98561928D01*
X53090000Y-98561928D01*
X52965518Y-98574188D01*
X52905000Y-98592546D01*
X52844482Y-98574188D01*
X52720000Y-98561928D01*
X51820000Y-98561928D01*
X51695518Y-98574188D01*
X51635000Y-98592546D01*
X51574482Y-98574188D01*
X51450000Y-98561928D01*
X51285750Y-98565000D01*
X51127000Y-98723750D01*
X51127000Y-100073000D01*
X51147000Y-100073000D01*
X51147000Y-100327000D01*
X51127000Y-100327000D01*
X51127000Y-101676250D01*
X51263250Y-101812500D01*
X51177000Y-101898750D01*
X51177000Y-102973000D01*
X51197000Y-102973000D01*
X51197000Y-103227000D01*
X51177000Y-103227000D01*
X51177000Y-104301250D01*
X51225750Y-104350000D01*
X51177000Y-104398750D01*
X51177000Y-105473000D01*
X51197000Y-105473000D01*
X51197000Y-105727000D01*
X51177000Y-105727000D01*
X51177000Y-105747000D01*
X50923000Y-105747000D01*
X50923000Y-105727000D01*
X50903000Y-105727000D01*
X50903000Y-105473000D01*
X50923000Y-105473000D01*
X50923000Y-104398750D01*
X50874250Y-104350000D01*
X50923000Y-104301250D01*
X50923000Y-103227000D01*
X50903000Y-103227000D01*
X50903000Y-102973000D01*
X50923000Y-102973000D01*
X50923000Y-101898750D01*
X50786750Y-101762500D01*
X50873000Y-101676250D01*
X50873000Y-100327000D01*
X50853000Y-100327000D01*
X50853000Y-100073000D01*
X50873000Y-100073000D01*
X50873000Y-98723750D01*
X50714250Y-98565000D01*
X50550000Y-98561928D01*
X50425518Y-98574188D01*
X50305820Y-98610498D01*
X50260000Y-98634990D01*
X50260000Y-97865000D01*
X66871928Y-97865000D01*
X66884188Y-97989482D01*
X66920498Y-98109180D01*
X66979463Y-98219494D01*
X67058815Y-98316185D01*
X67155506Y-98395537D01*
X67265820Y-98454502D01*
X67385518Y-98490812D01*
X67510000Y-98503072D01*
X68224250Y-98500000D01*
X68383000Y-98341250D01*
X68383000Y-97542000D01*
X67033750Y-97542000D01*
X66875000Y-97700750D01*
X66871928Y-97865000D01*
X50260000Y-97865000D01*
X50260000Y-95465867D01*
X51500559Y-96706427D01*
G37*
%TD.AperFunction*%
D30*
X72677000Y-98123000D02*
X72697000Y-98123000D01*
X72697000Y-98377000D01*
X72677000Y-98377000D01*
X72677000Y-98397000D01*
X72423000Y-98397000D01*
X72423000Y-98377000D01*
X72403000Y-98377000D01*
X72403000Y-98123000D01*
X72423000Y-98123000D01*
X72423000Y-98103000D01*
X72677000Y-98103000D01*
X72677000Y-98123000D01*
%TA.AperFunction,Conductor*%
D31*
G36*
X72677000Y-98123000D02*
G01*
X72697000Y-98123000D01*
X72697000Y-98377000D01*
X72677000Y-98377000D01*
X72677000Y-98397000D01*
X72423000Y-98397000D01*
X72423000Y-98377000D01*
X72403000Y-98377000D01*
X72403000Y-98123000D01*
X72423000Y-98123000D01*
X72423000Y-98103000D01*
X72677000Y-98103000D01*
X72677000Y-98123000D01*
G37*
%TD.AperFunction*%
D30*
X71432394Y-97017606D02*
X71559392Y-97121831D01*
X71559404Y-97121837D01*
X71533342Y-97153594D01*
X71527962Y-97147038D01*
X71393386Y-97036595D01*
X71363762Y-97020761D01*
X71367606Y-97017606D01*
X71400000Y-96978134D01*
X71432394Y-97017606D01*
%TA.AperFunction,Conductor*%
D31*
G36*
X71432394Y-97017606D02*
G01*
X71559392Y-97121831D01*
X71559404Y-97121837D01*
X71533342Y-97153594D01*
X71527962Y-97147038D01*
X71393386Y-97036595D01*
X71363762Y-97020761D01*
X71367606Y-97017606D01*
X71400000Y-96978134D01*
X71432394Y-97017606D01*
G37*
%TD.AperFunction*%
D30*
X59186928Y-76675000D02*
X59186928Y-77075000D01*
X59203031Y-77238500D01*
X59250722Y-77395716D01*
X59328169Y-77540608D01*
X59411863Y-77642590D01*
X59373815Y-77673815D01*
X59294463Y-77770506D01*
X59235498Y-77880820D01*
X59199188Y-78000518D01*
X59186928Y-78125000D01*
X59190000Y-78239250D01*
X59348750Y-78398000D01*
X60173000Y-78398000D01*
X60173000Y-78378000D01*
X60427000Y-78378000D01*
X60427000Y-78398000D01*
X60447000Y-78398000D01*
X60447000Y-78572132D01*
X60393224Y-78625908D01*
X60248102Y-78654774D01*
X60206514Y-78672000D01*
X60173000Y-78672000D01*
X60173000Y-78652000D01*
X59348750Y-78652000D01*
X59190000Y-78810750D01*
X59186928Y-78925000D01*
X59199188Y-79049482D01*
X59235498Y-79169180D01*
X59294463Y-79279494D01*
X59373815Y-79376185D01*
X59470506Y-79455537D01*
X59527359Y-79485926D01*
X59515000Y-79548061D01*
X59515000Y-79751939D01*
X59517598Y-79765000D01*
X58256933Y-79765000D01*
X58150147Y-79677363D01*
X58005088Y-79599827D01*
X57847690Y-79552081D01*
X57725020Y-79539999D01*
X57725019Y-79539999D01*
X57684001Y-79535959D01*
X57642983Y-79539999D01*
X54391008Y-79539999D01*
X54350000Y-79535960D01*
X54308992Y-79539999D01*
X54308982Y-79539999D01*
X54186312Y-79552081D01*
X54028914Y-79599827D01*
X53883855Y-79677363D01*
X53756710Y-79781708D01*
X53730559Y-79813573D01*
X52988571Y-80555562D01*
X52978574Y-80565559D01*
X52946710Y-80591709D01*
X52886562Y-80665000D01*
X52842364Y-80718855D01*
X52764828Y-80863914D01*
X52717082Y-81021312D01*
X52700960Y-81185000D01*
X52705001Y-81226028D01*
X52705001Y-81561928D01*
X51820000Y-81561928D01*
X51695518Y-81574188D01*
X51635000Y-81592546D01*
X51574482Y-81574188D01*
X51450000Y-81561928D01*
X51285750Y-81565000D01*
X51127000Y-81723750D01*
X51127000Y-83073000D01*
X51147000Y-83073000D01*
X51147000Y-83327000D01*
X51127000Y-83327000D01*
X51127000Y-84676250D01*
X51285750Y-84835000D01*
X51450000Y-84838072D01*
X51574482Y-84825812D01*
X51635000Y-84807454D01*
X51695518Y-84825812D01*
X51820000Y-84838072D01*
X52720000Y-84838072D01*
X52844482Y-84825812D01*
X52905000Y-84807454D01*
X52965518Y-84825812D01*
X53090000Y-84838072D01*
X53990000Y-84838072D01*
X54114482Y-84825812D01*
X54175000Y-84807454D01*
X54235518Y-84825812D01*
X54360000Y-84838072D01*
X55260000Y-84838072D01*
X55384482Y-84825812D01*
X55445000Y-84807454D01*
X55505518Y-84825812D01*
X55630000Y-84838072D01*
X56530000Y-84838072D01*
X56654482Y-84825812D01*
X56715000Y-84807454D01*
X56775518Y-84825812D01*
X56900000Y-84838072D01*
X57800000Y-84838072D01*
X57924482Y-84825812D01*
X57985000Y-84807454D01*
X58045518Y-84825812D01*
X58170000Y-84838072D01*
X59070000Y-84838072D01*
X59194482Y-84825812D01*
X59255000Y-84807454D01*
X59315518Y-84825812D01*
X59440000Y-84838072D01*
X60340000Y-84838072D01*
X60464482Y-84825812D01*
X60525000Y-84807454D01*
X60585518Y-84825812D01*
X60710000Y-84838072D01*
X61610000Y-84838072D01*
X61734482Y-84825812D01*
X61795000Y-84807454D01*
X61855518Y-84825812D01*
X61980000Y-84838072D01*
X62880000Y-84838072D01*
X63004482Y-84825812D01*
X63065000Y-84807454D01*
X63125518Y-84825812D01*
X63250000Y-84838072D01*
X64150000Y-84838072D01*
X64274482Y-84825812D01*
X64335000Y-84807454D01*
X64395518Y-84825812D01*
X64520000Y-84838072D01*
X65420000Y-84838072D01*
X65544482Y-84825812D01*
X65605000Y-84807454D01*
X65665518Y-84825812D01*
X65790000Y-84838072D01*
X66690000Y-84838072D01*
X66814482Y-84825812D01*
X66875000Y-84807454D01*
X66935518Y-84825812D01*
X67060000Y-84838072D01*
X67960000Y-84838072D01*
X68084482Y-84825812D01*
X68204180Y-84789502D01*
X68314494Y-84730537D01*
X68411185Y-84651185D01*
X68490537Y-84554494D01*
X68549502Y-84444180D01*
X68585812Y-84324482D01*
X68598072Y-84200000D01*
X68598072Y-84035000D01*
X72254133Y-84035000D01*
X74610001Y-86390870D01*
X74610000Y-91871935D01*
X74498368Y-91946525D01*
X74291525Y-92153368D01*
X74129010Y-92396589D01*
X74111796Y-92438148D01*
X74100178Y-92418645D01*
X73905269Y-92202412D01*
X73671920Y-92028359D01*
X73409099Y-91903175D01*
X73261890Y-91858524D01*
X73032000Y-91979845D01*
X73032000Y-93173000D01*
X73052000Y-93173000D01*
X73052000Y-93427000D01*
X73032000Y-93427000D01*
X73032000Y-94620155D01*
X73261890Y-94741476D01*
X73409099Y-94696825D01*
X73671920Y-94571641D01*
X73905269Y-94397588D01*
X74100178Y-94181355D01*
X74232790Y-93958729D01*
X74291525Y-94046632D01*
X74498368Y-94253475D01*
X74741589Y-94415990D01*
X75011842Y-94527932D01*
X75298740Y-94585000D01*
X75591260Y-94585000D01*
X75878158Y-94527932D01*
X75900000Y-94518885D01*
X75900000Y-95144132D01*
X75729132Y-95315000D01*
X73141018Y-95315000D01*
X73100000Y-95310960D01*
X73058982Y-95315000D01*
X73044365Y-95315000D01*
X73017606Y-95282394D01*
X72890608Y-95178169D01*
X72745716Y-95100722D01*
X72588500Y-95053031D01*
X72425000Y-95036928D01*
X72025000Y-95036928D01*
X71861500Y-95053031D01*
X71704284Y-95100722D01*
X71559392Y-95178169D01*
X71432394Y-95282394D01*
X71400000Y-95321866D01*
X71367606Y-95282394D01*
X71240608Y-95178169D01*
X71095716Y-95100722D01*
X70938500Y-95053031D01*
X70775000Y-95036928D01*
X70375000Y-95036928D01*
X70211500Y-95053031D01*
X70148072Y-95072272D01*
X70148072Y-94425000D01*
X70135812Y-94300518D01*
X70117454Y-94240000D01*
X70135812Y-94179482D01*
X70148072Y-94055000D01*
X70148072Y-93656891D01*
X71463519Y-93656891D01*
X71560843Y-93931252D01*
X71709822Y-94181355D01*
X71904731Y-94397588D01*
X72138080Y-94571641D01*
X72400901Y-94696825D01*
X72548110Y-94741476D01*
X72778000Y-94620155D01*
X72778000Y-93427000D01*
X71584186Y-93427000D01*
X71463519Y-93656891D01*
X70148072Y-93656891D01*
X70148072Y-93155000D01*
X70135812Y-93030518D01*
X70117454Y-92970000D01*
X70125611Y-92943109D01*
X71463519Y-92943109D01*
X71584186Y-93173000D01*
X72778000Y-93173000D01*
X72778000Y-91979845D01*
X72548110Y-91858524D01*
X72400901Y-91903175D01*
X72138080Y-92028359D01*
X71904731Y-92202412D01*
X71709822Y-92418645D01*
X71560843Y-92668748D01*
X71463519Y-92943109D01*
X70125611Y-92943109D01*
X70135812Y-92909482D01*
X70148072Y-92785000D01*
X70148072Y-91885000D01*
X70135812Y-91760518D01*
X70117454Y-91700000D01*
X70135812Y-91639482D01*
X70148072Y-91515000D01*
X70148072Y-90615000D01*
X70135812Y-90490518D01*
X70117454Y-90430000D01*
X70135812Y-90369482D01*
X70148072Y-90245000D01*
X70148072Y-89345000D01*
X70135812Y-89220518D01*
X70117454Y-89160000D01*
X70135812Y-89099482D01*
X70148072Y-88975000D01*
X70148072Y-88527728D01*
X70211500Y-88546969D01*
X70375000Y-88563072D01*
X70775000Y-88563072D01*
X70938500Y-88546969D01*
X71095716Y-88499278D01*
X71240608Y-88421831D01*
X71342590Y-88338137D01*
X71373815Y-88376185D01*
X71470506Y-88455537D01*
X71580820Y-88514502D01*
X71700518Y-88550812D01*
X71825000Y-88563072D01*
X71939250Y-88560000D01*
X72098000Y-88401250D01*
X72098000Y-87577000D01*
X72352000Y-87577000D01*
X72352000Y-88401250D01*
X72510750Y-88560000D01*
X72625000Y-88563072D01*
X72749482Y-88550812D01*
X72869180Y-88514502D01*
X72979494Y-88455537D01*
X73076185Y-88376185D01*
X73155537Y-88279494D01*
X73214502Y-88169180D01*
X73250812Y-88049482D01*
X73263072Y-87925000D01*
X73260000Y-87735750D01*
X73101250Y-87577000D01*
X72352000Y-87577000D01*
X72098000Y-87577000D01*
X72078000Y-87577000D01*
X72078000Y-87323000D01*
X72098000Y-87323000D01*
X72098000Y-85927000D01*
X72352000Y-85927000D01*
X72352000Y-87323000D01*
X73101250Y-87323000D01*
X73260000Y-87164250D01*
X73263072Y-86975000D01*
X73250812Y-86850518D01*
X73214502Y-86730820D01*
X73157939Y-86625000D01*
X73214502Y-86519180D01*
X73250812Y-86399482D01*
X73263072Y-86275000D01*
X73260000Y-86085750D01*
X73101250Y-85927000D01*
X72352000Y-85927000D01*
X72098000Y-85927000D01*
X72078000Y-85927000D01*
X72078000Y-85673000D01*
X72098000Y-85673000D01*
X72098000Y-84848750D01*
X72352000Y-84848750D01*
X72352000Y-85673000D01*
X73101250Y-85673000D01*
X73260000Y-85514250D01*
X73263072Y-85325000D01*
X73250812Y-85200518D01*
X73214502Y-85080820D01*
X73155537Y-84970506D01*
X73076185Y-84873815D01*
X72979494Y-84794463D01*
X72869180Y-84735498D01*
X72749482Y-84699188D01*
X72625000Y-84686928D01*
X72510750Y-84690000D01*
X72352000Y-84848750D01*
X72098000Y-84848750D01*
X71939250Y-84690000D01*
X71825000Y-84686928D01*
X71700518Y-84699188D01*
X71580820Y-84735498D01*
X71470506Y-84794463D01*
X71373815Y-84873815D01*
X71342590Y-84911863D01*
X71240608Y-84828169D01*
X71095716Y-84750722D01*
X70938500Y-84703031D01*
X70775000Y-84686928D01*
X70375000Y-84686928D01*
X70211500Y-84703031D01*
X70054284Y-84750722D01*
X69909392Y-84828169D01*
X69782394Y-84932394D01*
X69766316Y-84951985D01*
X69754180Y-84945498D01*
X69634482Y-84909188D01*
X69510000Y-84896928D01*
X67510000Y-84896928D01*
X67385518Y-84909188D01*
X67265820Y-84945498D01*
X67155506Y-85004463D01*
X67058815Y-85083815D01*
X66979463Y-85180506D01*
X66920498Y-85290820D01*
X66884188Y-85410518D01*
X66871928Y-85535000D01*
X66871928Y-86435000D01*
X66884188Y-86559482D01*
X66902546Y-86620000D01*
X66884188Y-86680518D01*
X66871928Y-86805000D01*
X66871928Y-87705000D01*
X66884188Y-87829482D01*
X66902546Y-87890000D01*
X66884188Y-87950518D01*
X66871928Y-88075000D01*
X66871928Y-88975000D01*
X66884188Y-89099482D01*
X66902546Y-89160000D01*
X66884188Y-89220518D01*
X66871928Y-89345000D01*
X66871928Y-90245000D01*
X66884188Y-90369482D01*
X66902546Y-90430000D01*
X66884188Y-90490518D01*
X66871928Y-90615000D01*
X66871928Y-91515000D01*
X66884188Y-91639482D01*
X66902546Y-91700000D01*
X66884188Y-91760518D01*
X66871928Y-91885000D01*
X66871928Y-92785000D01*
X66884188Y-92909482D01*
X66902546Y-92970000D01*
X66884188Y-93030518D01*
X66871928Y-93155000D01*
X66871928Y-94055000D01*
X66884188Y-94179482D01*
X66902546Y-94240000D01*
X66884188Y-94300518D01*
X66871928Y-94425000D01*
X66871928Y-95310000D01*
X61627238Y-95310000D01*
X61638072Y-95200000D01*
X61635000Y-92985750D01*
X61476250Y-92827000D01*
X58627000Y-92827000D01*
X58627000Y-92847000D01*
X58373000Y-92847000D01*
X58373000Y-92827000D01*
X55523750Y-92827000D01*
X55365000Y-92985750D01*
X55361928Y-95200000D01*
X55372762Y-95310000D01*
X52465868Y-95310000D01*
X50984999Y-93829132D01*
X50984999Y-90200000D01*
X55361928Y-90200000D01*
X55365000Y-92414250D01*
X55523750Y-92573000D01*
X58373000Y-92573000D01*
X58373000Y-89723750D01*
X58627000Y-89723750D01*
X58627000Y-92573000D01*
X61476250Y-92573000D01*
X61635000Y-92414250D01*
X61638072Y-90200000D01*
X61625812Y-90075518D01*
X61589502Y-89955820D01*
X61530537Y-89845506D01*
X61451185Y-89748815D01*
X61354494Y-89669463D01*
X61244180Y-89610498D01*
X61124482Y-89574188D01*
X61000000Y-89561928D01*
X58785750Y-89565000D01*
X58627000Y-89723750D01*
X58373000Y-89723750D01*
X58214250Y-89565000D01*
X56000000Y-89561928D01*
X55875518Y-89574188D01*
X55755820Y-89610498D01*
X55645506Y-89669463D01*
X55548815Y-89748815D01*
X55469463Y-89845506D01*
X55410498Y-89955820D01*
X55374188Y-90075518D01*
X55361928Y-90200000D01*
X50984999Y-90200000D01*
X50984999Y-79078712D01*
X51103937Y-78959774D01*
X51217205Y-78790256D01*
X51295226Y-78601898D01*
X51335000Y-78401939D01*
X51335000Y-78198061D01*
X51295226Y-77998102D01*
X51217205Y-77809744D01*
X51103937Y-77640226D01*
X50959774Y-77496063D01*
X50790256Y-77382795D01*
X50601898Y-77304774D01*
X50401939Y-77265000D01*
X50248746Y-77265000D01*
X50212710Y-77146207D01*
X50151425Y-77031550D01*
X50068948Y-76931052D01*
X49968450Y-76848575D01*
X49853793Y-76787290D01*
X49729383Y-76749550D01*
X49632419Y-76740000D01*
X49600000Y-76736807D01*
X49567581Y-76740000D01*
X44788376Y-76740000D01*
X44811644Y-76720752D01*
X44869471Y-76689485D01*
X44932272Y-76670044D01*
X45027835Y-76660000D01*
X59188405Y-76660000D01*
X59186928Y-76675000D01*
%TA.AperFunction,Conductor*%
D31*
G36*
X59186928Y-76675000D02*
G01*
X59186928Y-77075000D01*
X59203031Y-77238500D01*
X59250722Y-77395716D01*
X59328169Y-77540608D01*
X59411863Y-77642590D01*
X59373815Y-77673815D01*
X59294463Y-77770506D01*
X59235498Y-77880820D01*
X59199188Y-78000518D01*
X59186928Y-78125000D01*
X59190000Y-78239250D01*
X59348750Y-78398000D01*
X60173000Y-78398000D01*
X60173000Y-78378000D01*
X60427000Y-78378000D01*
X60427000Y-78398000D01*
X60447000Y-78398000D01*
X60447000Y-78572132D01*
X60393224Y-78625908D01*
X60248102Y-78654774D01*
X60206514Y-78672000D01*
X60173000Y-78672000D01*
X60173000Y-78652000D01*
X59348750Y-78652000D01*
X59190000Y-78810750D01*
X59186928Y-78925000D01*
X59199188Y-79049482D01*
X59235498Y-79169180D01*
X59294463Y-79279494D01*
X59373815Y-79376185D01*
X59470506Y-79455537D01*
X59527359Y-79485926D01*
X59515000Y-79548061D01*
X59515000Y-79751939D01*
X59517598Y-79765000D01*
X58256933Y-79765000D01*
X58150147Y-79677363D01*
X58005088Y-79599827D01*
X57847690Y-79552081D01*
X57725020Y-79539999D01*
X57725019Y-79539999D01*
X57684001Y-79535959D01*
X57642983Y-79539999D01*
X54391008Y-79539999D01*
X54350000Y-79535960D01*
X54308992Y-79539999D01*
X54308982Y-79539999D01*
X54186312Y-79552081D01*
X54028914Y-79599827D01*
X53883855Y-79677363D01*
X53756710Y-79781708D01*
X53730559Y-79813573D01*
X52988571Y-80555562D01*
X52978574Y-80565559D01*
X52946710Y-80591709D01*
X52886562Y-80665000D01*
X52842364Y-80718855D01*
X52764828Y-80863914D01*
X52717082Y-81021312D01*
X52700960Y-81185000D01*
X52705001Y-81226028D01*
X52705001Y-81561928D01*
X51820000Y-81561928D01*
X51695518Y-81574188D01*
X51635000Y-81592546D01*
X51574482Y-81574188D01*
X51450000Y-81561928D01*
X51285750Y-81565000D01*
X51127000Y-81723750D01*
X51127000Y-83073000D01*
X51147000Y-83073000D01*
X51147000Y-83327000D01*
X51127000Y-83327000D01*
X51127000Y-84676250D01*
X51285750Y-84835000D01*
X51450000Y-84838072D01*
X51574482Y-84825812D01*
X51635000Y-84807454D01*
X51695518Y-84825812D01*
X51820000Y-84838072D01*
X52720000Y-84838072D01*
X52844482Y-84825812D01*
X52905000Y-84807454D01*
X52965518Y-84825812D01*
X53090000Y-84838072D01*
X53990000Y-84838072D01*
X54114482Y-84825812D01*
X54175000Y-84807454D01*
X54235518Y-84825812D01*
X54360000Y-84838072D01*
X55260000Y-84838072D01*
X55384482Y-84825812D01*
X55445000Y-84807454D01*
X55505518Y-84825812D01*
X55630000Y-84838072D01*
X56530000Y-84838072D01*
X56654482Y-84825812D01*
X56715000Y-84807454D01*
X56775518Y-84825812D01*
X56900000Y-84838072D01*
X57800000Y-84838072D01*
X57924482Y-84825812D01*
X57985000Y-84807454D01*
X58045518Y-84825812D01*
X58170000Y-84838072D01*
X59070000Y-84838072D01*
X59194482Y-84825812D01*
X59255000Y-84807454D01*
X59315518Y-84825812D01*
X59440000Y-84838072D01*
X60340000Y-84838072D01*
X60464482Y-84825812D01*
X60525000Y-84807454D01*
X60585518Y-84825812D01*
X60710000Y-84838072D01*
X61610000Y-84838072D01*
X61734482Y-84825812D01*
X61795000Y-84807454D01*
X61855518Y-84825812D01*
X61980000Y-84838072D01*
X62880000Y-84838072D01*
X63004482Y-84825812D01*
X63065000Y-84807454D01*
X63125518Y-84825812D01*
X63250000Y-84838072D01*
X64150000Y-84838072D01*
X64274482Y-84825812D01*
X64335000Y-84807454D01*
X64395518Y-84825812D01*
X64520000Y-84838072D01*
X65420000Y-84838072D01*
X65544482Y-84825812D01*
X65605000Y-84807454D01*
X65665518Y-84825812D01*
X65790000Y-84838072D01*
X66690000Y-84838072D01*
X66814482Y-84825812D01*
X66875000Y-84807454D01*
X66935518Y-84825812D01*
X67060000Y-84838072D01*
X67960000Y-84838072D01*
X68084482Y-84825812D01*
X68204180Y-84789502D01*
X68314494Y-84730537D01*
X68411185Y-84651185D01*
X68490537Y-84554494D01*
X68549502Y-84444180D01*
X68585812Y-84324482D01*
X68598072Y-84200000D01*
X68598072Y-84035000D01*
X72254133Y-84035000D01*
X74610001Y-86390870D01*
X74610000Y-91871935D01*
X74498368Y-91946525D01*
X74291525Y-92153368D01*
X74129010Y-92396589D01*
X74111796Y-92438148D01*
X74100178Y-92418645D01*
X73905269Y-92202412D01*
X73671920Y-92028359D01*
X73409099Y-91903175D01*
X73261890Y-91858524D01*
X73032000Y-91979845D01*
X73032000Y-93173000D01*
X73052000Y-93173000D01*
X73052000Y-93427000D01*
X73032000Y-93427000D01*
X73032000Y-94620155D01*
X73261890Y-94741476D01*
X73409099Y-94696825D01*
X73671920Y-94571641D01*
X73905269Y-94397588D01*
X74100178Y-94181355D01*
X74232790Y-93958729D01*
X74291525Y-94046632D01*
X74498368Y-94253475D01*
X74741589Y-94415990D01*
X75011842Y-94527932D01*
X75298740Y-94585000D01*
X75591260Y-94585000D01*
X75878158Y-94527932D01*
X75900000Y-94518885D01*
X75900000Y-95144132D01*
X75729132Y-95315000D01*
X73141018Y-95315000D01*
X73100000Y-95310960D01*
X73058982Y-95315000D01*
X73044365Y-95315000D01*
X73017606Y-95282394D01*
X72890608Y-95178169D01*
X72745716Y-95100722D01*
X72588500Y-95053031D01*
X72425000Y-95036928D01*
X72025000Y-95036928D01*
X71861500Y-95053031D01*
X71704284Y-95100722D01*
X71559392Y-95178169D01*
X71432394Y-95282394D01*
X71400000Y-95321866D01*
X71367606Y-95282394D01*
X71240608Y-95178169D01*
X71095716Y-95100722D01*
X70938500Y-95053031D01*
X70775000Y-95036928D01*
X70375000Y-95036928D01*
X70211500Y-95053031D01*
X70148072Y-95072272D01*
X70148072Y-94425000D01*
X70135812Y-94300518D01*
X70117454Y-94240000D01*
X70135812Y-94179482D01*
X70148072Y-94055000D01*
X70148072Y-93656891D01*
X71463519Y-93656891D01*
X71560843Y-93931252D01*
X71709822Y-94181355D01*
X71904731Y-94397588D01*
X72138080Y-94571641D01*
X72400901Y-94696825D01*
X72548110Y-94741476D01*
X72778000Y-94620155D01*
X72778000Y-93427000D01*
X71584186Y-93427000D01*
X71463519Y-93656891D01*
X70148072Y-93656891D01*
X70148072Y-93155000D01*
X70135812Y-93030518D01*
X70117454Y-92970000D01*
X70125611Y-92943109D01*
X71463519Y-92943109D01*
X71584186Y-93173000D01*
X72778000Y-93173000D01*
X72778000Y-91979845D01*
X72548110Y-91858524D01*
X72400901Y-91903175D01*
X72138080Y-92028359D01*
X71904731Y-92202412D01*
X71709822Y-92418645D01*
X71560843Y-92668748D01*
X71463519Y-92943109D01*
X70125611Y-92943109D01*
X70135812Y-92909482D01*
X70148072Y-92785000D01*
X70148072Y-91885000D01*
X70135812Y-91760518D01*
X70117454Y-91700000D01*
X70135812Y-91639482D01*
X70148072Y-91515000D01*
X70148072Y-90615000D01*
X70135812Y-90490518D01*
X70117454Y-90430000D01*
X70135812Y-90369482D01*
X70148072Y-90245000D01*
X70148072Y-89345000D01*
X70135812Y-89220518D01*
X70117454Y-89160000D01*
X70135812Y-89099482D01*
X70148072Y-88975000D01*
X70148072Y-88527728D01*
X70211500Y-88546969D01*
X70375000Y-88563072D01*
X70775000Y-88563072D01*
X70938500Y-88546969D01*
X71095716Y-88499278D01*
X71240608Y-88421831D01*
X71342590Y-88338137D01*
X71373815Y-88376185D01*
X71470506Y-88455537D01*
X71580820Y-88514502D01*
X71700518Y-88550812D01*
X71825000Y-88563072D01*
X71939250Y-88560000D01*
X72098000Y-88401250D01*
X72098000Y-87577000D01*
X72352000Y-87577000D01*
X72352000Y-88401250D01*
X72510750Y-88560000D01*
X72625000Y-88563072D01*
X72749482Y-88550812D01*
X72869180Y-88514502D01*
X72979494Y-88455537D01*
X73076185Y-88376185D01*
X73155537Y-88279494D01*
X73214502Y-88169180D01*
X73250812Y-88049482D01*
X73263072Y-87925000D01*
X73260000Y-87735750D01*
X73101250Y-87577000D01*
X72352000Y-87577000D01*
X72098000Y-87577000D01*
X72078000Y-87577000D01*
X72078000Y-87323000D01*
X72098000Y-87323000D01*
X72098000Y-85927000D01*
X72352000Y-85927000D01*
X72352000Y-87323000D01*
X73101250Y-87323000D01*
X73260000Y-87164250D01*
X73263072Y-86975000D01*
X73250812Y-86850518D01*
X73214502Y-86730820D01*
X73157939Y-86625000D01*
X73214502Y-86519180D01*
X73250812Y-86399482D01*
X73263072Y-86275000D01*
X73260000Y-86085750D01*
X73101250Y-85927000D01*
X72352000Y-85927000D01*
X72098000Y-85927000D01*
X72078000Y-85927000D01*
X72078000Y-85673000D01*
X72098000Y-85673000D01*
X72098000Y-84848750D01*
X72352000Y-84848750D01*
X72352000Y-85673000D01*
X73101250Y-85673000D01*
X73260000Y-85514250D01*
X73263072Y-85325000D01*
X73250812Y-85200518D01*
X73214502Y-85080820D01*
X73155537Y-84970506D01*
X73076185Y-84873815D01*
X72979494Y-84794463D01*
X72869180Y-84735498D01*
X72749482Y-84699188D01*
X72625000Y-84686928D01*
X72510750Y-84690000D01*
X72352000Y-84848750D01*
X72098000Y-84848750D01*
X71939250Y-84690000D01*
X71825000Y-84686928D01*
X71700518Y-84699188D01*
X71580820Y-84735498D01*
X71470506Y-84794463D01*
X71373815Y-84873815D01*
X71342590Y-84911863D01*
X71240608Y-84828169D01*
X71095716Y-84750722D01*
X70938500Y-84703031D01*
X70775000Y-84686928D01*
X70375000Y-84686928D01*
X70211500Y-84703031D01*
X70054284Y-84750722D01*
X69909392Y-84828169D01*
X69782394Y-84932394D01*
X69766316Y-84951985D01*
X69754180Y-84945498D01*
X69634482Y-84909188D01*
X69510000Y-84896928D01*
X67510000Y-84896928D01*
X67385518Y-84909188D01*
X67265820Y-84945498D01*
X67155506Y-85004463D01*
X67058815Y-85083815D01*
X66979463Y-85180506D01*
X66920498Y-85290820D01*
X66884188Y-85410518D01*
X66871928Y-85535000D01*
X66871928Y-86435000D01*
X66884188Y-86559482D01*
X66902546Y-86620000D01*
X66884188Y-86680518D01*
X66871928Y-86805000D01*
X66871928Y-87705000D01*
X66884188Y-87829482D01*
X66902546Y-87890000D01*
X66884188Y-87950518D01*
X66871928Y-88075000D01*
X66871928Y-88975000D01*
X66884188Y-89099482D01*
X66902546Y-89160000D01*
X66884188Y-89220518D01*
X66871928Y-89345000D01*
X66871928Y-90245000D01*
X66884188Y-90369482D01*
X66902546Y-90430000D01*
X66884188Y-90490518D01*
X66871928Y-90615000D01*
X66871928Y-91515000D01*
X66884188Y-91639482D01*
X66902546Y-91700000D01*
X66884188Y-91760518D01*
X66871928Y-91885000D01*
X66871928Y-92785000D01*
X66884188Y-92909482D01*
X66902546Y-92970000D01*
X66884188Y-93030518D01*
X66871928Y-93155000D01*
X66871928Y-94055000D01*
X66884188Y-94179482D01*
X66902546Y-94240000D01*
X66884188Y-94300518D01*
X66871928Y-94425000D01*
X66871928Y-95310000D01*
X61627238Y-95310000D01*
X61638072Y-95200000D01*
X61635000Y-92985750D01*
X61476250Y-92827000D01*
X58627000Y-92827000D01*
X58627000Y-92847000D01*
X58373000Y-92847000D01*
X58373000Y-92827000D01*
X55523750Y-92827000D01*
X55365000Y-92985750D01*
X55361928Y-95200000D01*
X55372762Y-95310000D01*
X52465868Y-95310000D01*
X50984999Y-93829132D01*
X50984999Y-90200000D01*
X55361928Y-90200000D01*
X55365000Y-92414250D01*
X55523750Y-92573000D01*
X58373000Y-92573000D01*
X58373000Y-89723750D01*
X58627000Y-89723750D01*
X58627000Y-92573000D01*
X61476250Y-92573000D01*
X61635000Y-92414250D01*
X61638072Y-90200000D01*
X61625812Y-90075518D01*
X61589502Y-89955820D01*
X61530537Y-89845506D01*
X61451185Y-89748815D01*
X61354494Y-89669463D01*
X61244180Y-89610498D01*
X61124482Y-89574188D01*
X61000000Y-89561928D01*
X58785750Y-89565000D01*
X58627000Y-89723750D01*
X58373000Y-89723750D01*
X58214250Y-89565000D01*
X56000000Y-89561928D01*
X55875518Y-89574188D01*
X55755820Y-89610498D01*
X55645506Y-89669463D01*
X55548815Y-89748815D01*
X55469463Y-89845506D01*
X55410498Y-89955820D01*
X55374188Y-90075518D01*
X55361928Y-90200000D01*
X50984999Y-90200000D01*
X50984999Y-79078712D01*
X51103937Y-78959774D01*
X51217205Y-78790256D01*
X51295226Y-78601898D01*
X51335000Y-78401939D01*
X51335000Y-78198061D01*
X51295226Y-77998102D01*
X51217205Y-77809744D01*
X51103937Y-77640226D01*
X50959774Y-77496063D01*
X50790256Y-77382795D01*
X50601898Y-77304774D01*
X50401939Y-77265000D01*
X50248746Y-77265000D01*
X50212710Y-77146207D01*
X50151425Y-77031550D01*
X50068948Y-76931052D01*
X49968450Y-76848575D01*
X49853793Y-76787290D01*
X49729383Y-76749550D01*
X49632419Y-76740000D01*
X49600000Y-76736807D01*
X49567581Y-76740000D01*
X44788376Y-76740000D01*
X44811644Y-76720752D01*
X44869471Y-76689485D01*
X44932272Y-76670044D01*
X45027835Y-76660000D01*
X59188405Y-76660000D01*
X59186928Y-76675000D01*
G37*
%TD.AperFunction*%
D30*
X81173815Y-80448815D02*
X81094463Y-80545506D01*
X81035498Y-80655820D01*
X80999188Y-80775518D01*
X80986928Y-80900000D01*
X80990000Y-81114250D01*
X81148750Y-81273000D01*
X82223000Y-81273000D01*
X82223000Y-81253000D01*
X82477000Y-81253000D01*
X82477000Y-81273000D01*
X83551250Y-81273000D01*
X83613692Y-81210558D01*
X83765001Y-81361867D01*
X83765002Y-85304131D01*
X83704133Y-85365000D01*
X80939468Y-85365000D01*
X80926185Y-85348815D01*
X80866704Y-85300000D01*
X80926185Y-85251185D01*
X81005537Y-85154494D01*
X81064502Y-85044180D01*
X81100812Y-84924482D01*
X81113072Y-84800000D01*
X81113072Y-84635000D01*
X81633982Y-84635000D01*
X81675000Y-84639040D01*
X81716018Y-84635000D01*
X81716019Y-84635000D01*
X81838689Y-84622918D01*
X81996087Y-84575172D01*
X82141146Y-84497636D01*
X82268291Y-84393291D01*
X82294446Y-84361421D01*
X82731775Y-83924093D01*
X82876898Y-83895226D01*
X83065256Y-83817205D01*
X83234774Y-83703937D01*
X83378937Y-83559774D01*
X83492205Y-83390256D01*
X83570226Y-83201898D01*
X83610000Y-83001939D01*
X83610000Y-82798061D01*
X83570226Y-82598102D01*
X83492205Y-82409744D01*
X83478969Y-82389934D01*
X83526185Y-82351185D01*
X83605537Y-82254494D01*
X83664502Y-82144180D01*
X83700812Y-82024482D01*
X83713072Y-81900000D01*
X83710000Y-81685750D01*
X83551250Y-81527000D01*
X82477000Y-81527000D01*
X82477000Y-81547000D01*
X82223000Y-81547000D01*
X82223000Y-81527000D01*
X81148750Y-81527000D01*
X81051656Y-81624094D01*
X81023102Y-81629774D01*
X80918072Y-81673279D01*
X80918072Y-81175000D01*
X80905812Y-81050518D01*
X80869502Y-80930820D01*
X80810537Y-80820506D01*
X80731185Y-80723815D01*
X80634494Y-80644463D01*
X80524180Y-80585498D01*
X80407159Y-80550000D01*
X80524180Y-80514502D01*
X80634494Y-80455537D01*
X80659518Y-80435000D01*
X81190649Y-80435000D01*
X81173815Y-80448815D01*
%TA.AperFunction,Conductor*%
D31*
G36*
X81173815Y-80448815D02*
G01*
X81094463Y-80545506D01*
X81035498Y-80655820D01*
X80999188Y-80775518D01*
X80986928Y-80900000D01*
X80990000Y-81114250D01*
X81148750Y-81273000D01*
X82223000Y-81273000D01*
X82223000Y-81253000D01*
X82477000Y-81253000D01*
X82477000Y-81273000D01*
X83551250Y-81273000D01*
X83613692Y-81210558D01*
X83765001Y-81361867D01*
X83765002Y-85304131D01*
X83704133Y-85365000D01*
X80939468Y-85365000D01*
X80926185Y-85348815D01*
X80866704Y-85300000D01*
X80926185Y-85251185D01*
X81005537Y-85154494D01*
X81064502Y-85044180D01*
X81100812Y-84924482D01*
X81113072Y-84800000D01*
X81113072Y-84635000D01*
X81633982Y-84635000D01*
X81675000Y-84639040D01*
X81716018Y-84635000D01*
X81716019Y-84635000D01*
X81838689Y-84622918D01*
X81996087Y-84575172D01*
X82141146Y-84497636D01*
X82268291Y-84393291D01*
X82294446Y-84361421D01*
X82731775Y-83924093D01*
X82876898Y-83895226D01*
X83065256Y-83817205D01*
X83234774Y-83703937D01*
X83378937Y-83559774D01*
X83492205Y-83390256D01*
X83570226Y-83201898D01*
X83610000Y-83001939D01*
X83610000Y-82798061D01*
X83570226Y-82598102D01*
X83492205Y-82409744D01*
X83478969Y-82389934D01*
X83526185Y-82351185D01*
X83605537Y-82254494D01*
X83664502Y-82144180D01*
X83700812Y-82024482D01*
X83713072Y-81900000D01*
X83710000Y-81685750D01*
X83551250Y-81527000D01*
X82477000Y-81527000D01*
X82477000Y-81547000D01*
X82223000Y-81547000D01*
X82223000Y-81527000D01*
X81148750Y-81527000D01*
X81051656Y-81624094D01*
X81023102Y-81629774D01*
X80918072Y-81673279D01*
X80918072Y-81175000D01*
X80905812Y-81050518D01*
X80869502Y-80930820D01*
X80810537Y-80820506D01*
X80731185Y-80723815D01*
X80634494Y-80644463D01*
X80524180Y-80585498D01*
X80407159Y-80550000D01*
X80524180Y-80514502D01*
X80634494Y-80455537D01*
X80659518Y-80435000D01*
X81190649Y-80435000D01*
X81173815Y-80448815D01*
G37*
%TD.AperFunction*%
D30*
X74270013Y-82167015D02*
X74340529Y-82298940D01*
X74435427Y-82414573D01*
X74509803Y-82475613D01*
X74445566Y-82539850D01*
X74355504Y-82674637D01*
X74235010Y-82554143D01*
X74235010Y-82051625D01*
X74270013Y-82167015D01*
%TA.AperFunction,Conductor*%
D31*
G36*
X74270013Y-82167015D02*
G01*
X74340529Y-82298940D01*
X74435427Y-82414573D01*
X74509803Y-82475613D01*
X74445566Y-82539850D01*
X74355504Y-82674637D01*
X74235010Y-82554143D01*
X74235010Y-82051625D01*
X74270013Y-82167015D01*
G37*
%TD.AperFunction*%
D30*
X71840000Y-82031750D02*
X71852829Y-82141558D01*
X71892400Y-82260217D01*
X71952149Y-82365000D01*
X68598072Y-82365000D01*
X68598072Y-82200000D01*
X68585812Y-82075518D01*
X68581164Y-82060194D01*
X68654284Y-82099278D01*
X68811500Y-82146969D01*
X68975000Y-82163072D01*
X69375000Y-82163072D01*
X69538500Y-82146969D01*
X69695716Y-82099278D01*
X69840608Y-82021831D01*
X69967606Y-81917606D01*
X69994365Y-81885000D01*
X70246101Y-81885000D01*
X70296063Y-81959774D01*
X70440226Y-82103937D01*
X70609744Y-82217205D01*
X70798102Y-82295226D01*
X70998061Y-82335000D01*
X71201939Y-82335000D01*
X71401898Y-82295226D01*
X71590256Y-82217205D01*
X71759774Y-82103937D01*
X71903937Y-81959774D01*
X71959243Y-81877002D01*
X71994748Y-81877002D01*
X71840000Y-82031750D01*
%TA.AperFunction,Conductor*%
D31*
G36*
X71840000Y-82031750D02*
G01*
X71852829Y-82141558D01*
X71892400Y-82260217D01*
X71952149Y-82365000D01*
X68598072Y-82365000D01*
X68598072Y-82200000D01*
X68585812Y-82075518D01*
X68581164Y-82060194D01*
X68654284Y-82099278D01*
X68811500Y-82146969D01*
X68975000Y-82163072D01*
X69375000Y-82163072D01*
X69538500Y-82146969D01*
X69695716Y-82099278D01*
X69840608Y-82021831D01*
X69967606Y-81917606D01*
X69994365Y-81885000D01*
X70246101Y-81885000D01*
X70296063Y-81959774D01*
X70440226Y-82103937D01*
X70609744Y-82217205D01*
X70798102Y-82295226D01*
X70998061Y-82335000D01*
X71201939Y-82335000D01*
X71401898Y-82295226D01*
X71590256Y-82217205D01*
X71759774Y-82103937D01*
X71903937Y-81959774D01*
X71959243Y-81877002D01*
X71994748Y-81877002D01*
X71840000Y-82031750D01*
G37*
%TD.AperFunction*%
D30*
X74248557Y-81403715D02*
X74235010Y-81448375D01*
X74235010Y-81363091D01*
X74248557Y-81403715D01*
%TA.AperFunction,Conductor*%
D31*
G36*
X74248557Y-81403715D02*
G01*
X74235010Y-81448375D01*
X74235010Y-81363091D01*
X74248557Y-81403715D01*
G37*
%TD.AperFunction*%
D30*
X75553884Y-76707285D02*
X75527364Y-76739599D01*
X75449828Y-76884658D01*
X75402082Y-77042056D01*
X75391190Y-77152644D01*
X75201939Y-77115000D01*
X74998061Y-77115000D01*
X74798102Y-77154774D01*
X74609744Y-77232795D01*
X74440226Y-77346063D01*
X74296063Y-77490226D01*
X74182795Y-77659744D01*
X74104774Y-77848102D01*
X74065000Y-78048061D01*
X74065000Y-78251939D01*
X74104774Y-78451898D01*
X74182795Y-78640256D01*
X74265001Y-78763286D01*
X74265001Y-78949509D01*
X74226590Y-79076132D01*
X74211928Y-79225000D01*
X74211928Y-79475000D01*
X74226590Y-79623868D01*
X74264852Y-79750000D01*
X74226590Y-79876132D01*
X74211928Y-80025000D01*
X74211928Y-80275000D01*
X74226590Y-80423868D01*
X74248557Y-80496285D01*
X74227829Y-80558442D01*
X74215000Y-80668250D01*
X74373750Y-80827000D01*
X74450569Y-80827000D01*
X74551060Y-80909471D01*
X74626884Y-80950000D01*
X74551060Y-80990529D01*
X74450569Y-81073000D01*
X74373750Y-81073000D01*
X74233015Y-81213735D01*
X74232647Y-81209999D01*
X74222928Y-81111321D01*
X74175182Y-80953923D01*
X74097646Y-80808864D01*
X73993301Y-80681719D01*
X73961436Y-80655568D01*
X73694445Y-80388578D01*
X73668291Y-80356709D01*
X73632886Y-80327653D01*
X73638072Y-80275000D01*
X73638072Y-80025000D01*
X73623410Y-79876132D01*
X73585148Y-79750000D01*
X73623410Y-79623868D01*
X73638072Y-79475000D01*
X73638072Y-79225000D01*
X73623410Y-79076132D01*
X73579987Y-78932985D01*
X73560000Y-78895592D01*
X73560000Y-78863285D01*
X73642205Y-78740256D01*
X73720226Y-78551898D01*
X73760000Y-78351939D01*
X73760000Y-78148061D01*
X73720226Y-77948102D01*
X73642205Y-77759744D01*
X73528937Y-77590226D01*
X73384774Y-77446063D01*
X73215256Y-77332795D01*
X73026898Y-77254774D01*
X72826939Y-77215000D01*
X72623061Y-77215000D01*
X72423102Y-77254774D01*
X72234744Y-77332795D01*
X72065226Y-77446063D01*
X71921063Y-77590226D01*
X71807795Y-77759744D01*
X71729774Y-77948102D01*
X71690000Y-78148061D01*
X71690000Y-78351939D01*
X71722435Y-78515000D01*
X69785119Y-78515000D01*
X69785000Y-78505750D01*
X69626250Y-78347000D01*
X68577000Y-78347000D01*
X68577000Y-78367000D01*
X68323000Y-78367000D01*
X68323000Y-78347000D01*
X68303000Y-78347000D01*
X68303000Y-78093000D01*
X68323000Y-78093000D01*
X68323000Y-78073000D01*
X68577000Y-78073000D01*
X68577000Y-78093000D01*
X69626250Y-78093000D01*
X69785000Y-77934250D01*
X69788072Y-77695000D01*
X69780193Y-77615000D01*
X70006613Y-77615000D01*
X70084744Y-77667205D01*
X70273102Y-77745226D01*
X70473061Y-77785000D01*
X70676939Y-77785000D01*
X70876898Y-77745226D01*
X71065256Y-77667205D01*
X71234774Y-77553937D01*
X71378937Y-77409774D01*
X71492205Y-77240256D01*
X71570226Y-77051898D01*
X71610000Y-76851939D01*
X71610000Y-76660000D01*
X75592689Y-76660000D01*
X75553884Y-76707285D01*
%TA.AperFunction,Conductor*%
D31*
G36*
X75553884Y-76707285D02*
G01*
X75527364Y-76739599D01*
X75449828Y-76884658D01*
X75402082Y-77042056D01*
X75391190Y-77152644D01*
X75201939Y-77115000D01*
X74998061Y-77115000D01*
X74798102Y-77154774D01*
X74609744Y-77232795D01*
X74440226Y-77346063D01*
X74296063Y-77490226D01*
X74182795Y-77659744D01*
X74104774Y-77848102D01*
X74065000Y-78048061D01*
X74065000Y-78251939D01*
X74104774Y-78451898D01*
X74182795Y-78640256D01*
X74265001Y-78763286D01*
X74265001Y-78949509D01*
X74226590Y-79076132D01*
X74211928Y-79225000D01*
X74211928Y-79475000D01*
X74226590Y-79623868D01*
X74264852Y-79750000D01*
X74226590Y-79876132D01*
X74211928Y-80025000D01*
X74211928Y-80275000D01*
X74226590Y-80423868D01*
X74248557Y-80496285D01*
X74227829Y-80558442D01*
X74215000Y-80668250D01*
X74373750Y-80827000D01*
X74450569Y-80827000D01*
X74551060Y-80909471D01*
X74626884Y-80950000D01*
X74551060Y-80990529D01*
X74450569Y-81073000D01*
X74373750Y-81073000D01*
X74233015Y-81213735D01*
X74232647Y-81209999D01*
X74222928Y-81111321D01*
X74175182Y-80953923D01*
X74097646Y-80808864D01*
X73993301Y-80681719D01*
X73961436Y-80655568D01*
X73694445Y-80388578D01*
X73668291Y-80356709D01*
X73632886Y-80327653D01*
X73638072Y-80275000D01*
X73638072Y-80025000D01*
X73623410Y-79876132D01*
X73585148Y-79750000D01*
X73623410Y-79623868D01*
X73638072Y-79475000D01*
X73638072Y-79225000D01*
X73623410Y-79076132D01*
X73579987Y-78932985D01*
X73560000Y-78895592D01*
X73560000Y-78863285D01*
X73642205Y-78740256D01*
X73720226Y-78551898D01*
X73760000Y-78351939D01*
X73760000Y-78148061D01*
X73720226Y-77948102D01*
X73642205Y-77759744D01*
X73528937Y-77590226D01*
X73384774Y-77446063D01*
X73215256Y-77332795D01*
X73026898Y-77254774D01*
X72826939Y-77215000D01*
X72623061Y-77215000D01*
X72423102Y-77254774D01*
X72234744Y-77332795D01*
X72065226Y-77446063D01*
X71921063Y-77590226D01*
X71807795Y-77759744D01*
X71729774Y-77948102D01*
X71690000Y-78148061D01*
X71690000Y-78351939D01*
X71722435Y-78515000D01*
X69785119Y-78515000D01*
X69785000Y-78505750D01*
X69626250Y-78347000D01*
X68577000Y-78347000D01*
X68577000Y-78367000D01*
X68323000Y-78367000D01*
X68323000Y-78347000D01*
X68303000Y-78347000D01*
X68303000Y-78093000D01*
X68323000Y-78093000D01*
X68323000Y-78073000D01*
X68577000Y-78073000D01*
X68577000Y-78093000D01*
X69626250Y-78093000D01*
X69785000Y-77934250D01*
X69788072Y-77695000D01*
X69780193Y-77615000D01*
X70006613Y-77615000D01*
X70084744Y-77667205D01*
X70273102Y-77745226D01*
X70473061Y-77785000D01*
X70676939Y-77785000D01*
X70876898Y-77745226D01*
X71065256Y-77667205D01*
X71234774Y-77553937D01*
X71378937Y-77409774D01*
X71492205Y-77240256D01*
X71570226Y-77051898D01*
X71610000Y-76851939D01*
X71610000Y-76660000D01*
X75592689Y-76660000D01*
X75553884Y-76707285D01*
G37*
%TD.AperFunction*%
D30*
X78768815Y-80376185D02*
X78865506Y-80455537D01*
X78975820Y-80514502D01*
X79092841Y-80550000D01*
X78975820Y-80585498D01*
X78865506Y-80644463D01*
X78768815Y-80723815D01*
X78694103Y-80814853D01*
X78556250Y-80677000D01*
X78474141Y-80677000D01*
X78434494Y-80644463D01*
X78324180Y-80585498D01*
X78207159Y-80550000D01*
X78324180Y-80514502D01*
X78434494Y-80455537D01*
X78474141Y-80423000D01*
X78556250Y-80423000D01*
X78694103Y-80285147D01*
X78768815Y-80376185D01*
%TA.AperFunction,Conductor*%
D31*
G36*
X78768815Y-80376185D02*
G01*
X78865506Y-80455537D01*
X78975820Y-80514502D01*
X79092841Y-80550000D01*
X78975820Y-80585498D01*
X78865506Y-80644463D01*
X78768815Y-80723815D01*
X78694103Y-80814853D01*
X78556250Y-80677000D01*
X78474141Y-80677000D01*
X78434494Y-80644463D01*
X78324180Y-80585498D01*
X78207159Y-80550000D01*
X78324180Y-80514502D01*
X78434494Y-80455537D01*
X78474141Y-80423000D01*
X78556250Y-80423000D01*
X78694103Y-80285147D01*
X78768815Y-80376185D01*
G37*
%TD.AperFunction*%
D30*
X63545579Y-77500000D02*
X63524188Y-77570518D01*
X63511928Y-77695000D01*
X63515000Y-77934250D01*
X63673750Y-78093000D01*
X64723000Y-78093000D01*
X64723000Y-78073000D01*
X64977000Y-78073000D01*
X64977000Y-78093000D01*
X64997000Y-78093000D01*
X64997000Y-78347000D01*
X64977000Y-78347000D01*
X64977000Y-78367000D01*
X64723000Y-78367000D01*
X64723000Y-78347000D01*
X63673750Y-78347000D01*
X63557217Y-78463533D01*
X63551128Y-78401715D01*
X63500947Y-78236291D01*
X63419458Y-78083836D01*
X63309792Y-77950208D01*
X63224244Y-77880000D01*
X63309792Y-77809792D01*
X63419458Y-77676164D01*
X63500947Y-77523709D01*
X63526859Y-77438288D01*
X63545579Y-77500000D01*
%TA.AperFunction,Conductor*%
D31*
G36*
X63545579Y-77500000D02*
G01*
X63524188Y-77570518D01*
X63511928Y-77695000D01*
X63515000Y-77934250D01*
X63673750Y-78093000D01*
X64723000Y-78093000D01*
X64723000Y-78073000D01*
X64977000Y-78073000D01*
X64977000Y-78093000D01*
X64997000Y-78093000D01*
X64997000Y-78347000D01*
X64977000Y-78347000D01*
X64977000Y-78367000D01*
X64723000Y-78367000D01*
X64723000Y-78347000D01*
X63673750Y-78347000D01*
X63557217Y-78463533D01*
X63551128Y-78401715D01*
X63500947Y-78236291D01*
X63419458Y-78083836D01*
X63309792Y-77950208D01*
X63224244Y-77880000D01*
X63309792Y-77809792D01*
X63419458Y-77676164D01*
X63500947Y-77523709D01*
X63526859Y-77438288D01*
X63545579Y-77500000D01*
G37*
%TD.AperFunction*%
D30*
X79465010Y-77722000D02*
X79273000Y-77722000D01*
X79273000Y-77702000D01*
X79253000Y-77702000D01*
X79253000Y-77448000D01*
X79273000Y-77448000D01*
X79273000Y-77428000D01*
X79465010Y-77428000D01*
X79465010Y-77722000D01*
%TA.AperFunction,Conductor*%
D31*
G36*
X79465010Y-77722000D02*
G01*
X79273000Y-77722000D01*
X79273000Y-77702000D01*
X79253000Y-77702000D01*
X79253000Y-77448000D01*
X79273000Y-77448000D01*
X79273000Y-77428000D01*
X79465010Y-77428000D01*
X79465010Y-77722000D01*
G37*
%TD.AperFunction*%
%TD*%
M02*
