M48
; DRILL file {KiCad (5.1.10-1-10_14)} date Monday, June 21, 2021 at 07:24:20 PM
; FORMAT={-:-/ absolute / inch / decimal}
; #@! TF.CreationDate,2021-06-21T19:24:20+01:00
; #@! TF.GenerationSoftware,Kicad,Pcbnew,(5.1.10-1-10_14)
; #@! TF.FileFunction,Plated,1,2,PTH
FMAT,2
INCH
T1C0.0157
T2C0.0315
T3C0.0394
%
G90
G05
T1
X1.8228Y-4.5
X1.9803Y-3.0827
X2.0118Y-4.2756
X2.0669Y-3.3465
X2.0669Y-3.4449
X2.0669Y-3.5433
X2.0669Y-3.6417
X2.0669Y-3.7402
X2.1535Y-4.0197
X2.1565Y-3.1959
X2.1654Y-3.5433
X2.1654Y-3.6417
X2.1654Y-3.7402
X2.2047Y-4.0197
X2.2077Y-3.1959
X2.2323Y-4.2756
X2.252Y-4.0197
X2.2569Y-3.1969
X2.2638Y-3.3465
X2.2874Y-4.6772
X2.315Y-4.3465
X2.315Y-4.3819
X2.315Y-4.4173
X2.315Y-4.4528
X2.3346Y-4.5039
X2.3484Y-4.3465
X2.3484Y-4.3819
X2.3484Y-4.4173
X2.3484Y-4.4528
X2.359Y-4.3055
X2.3622Y-3.3465
X2.3622Y-3.4449
X2.3819Y-4.3465
X2.3819Y-4.3819
X2.3819Y-4.4173
X2.3819Y-4.4528
X2.3839Y-3.1358
X2.4173Y-4.1969
X2.4606Y-3.3465
X2.4606Y-3.4449
X2.4606Y-3.7402
X2.4646Y-4.1929
X2.5591Y-3.3465
X2.5591Y-3.4449
X2.5591Y-3.7402
X2.69Y-4.0089
X2.69Y-4.0571
X2.7785Y-3.0217
X2.7854Y-3.1555
X2.7992Y-3.2008
X2.815Y-3.2421
X2.8632Y-3.0807
X2.9277Y-3.2572
X2.9311Y-4.6535
X2.9508Y-4.7087
X2.9567Y-3.0768
X2.9626Y-3.2756
X2.9809Y-3.3104
X3.0217Y-4.311
X3.0217Y-4.3504
X3.0217Y-4.3898
X3.0217Y-4.4291
X3.0443Y-3.5305
X3.0512Y-4.7244
X3.061Y-4.311
X3.061Y-4.3504
X3.061Y-4.3898
X3.061Y-4.4291
X3.122Y-3.8051
X3.1496Y-4.0354
X3.1496Y-4.1339
X3.1496Y-4.1339
X3.1496Y-4.2323
X3.1496Y-4.3307
X3.1496Y-4.4291
X3.1496Y-4.5276
X3.1496Y-4.626
X3.1496Y-4.7244
X3.2018Y-3.253
X3.248Y-3.8386
X3.248Y-3.937
X3.248Y-4.0354
X3.248Y-4.1339
X3.248Y-4.2323
X3.248Y-4.3307
X3.248Y-4.4291
X3.248Y-4.5276
X3.248Y-4.626
X3.248Y-4.7244
X3.251Y-3.2638
X3.2992Y-3.2047
X3.3465Y-3.4449
X3.3465Y-3.8386
X3.3465Y-3.937
X3.3465Y-4.0354
X3.3465Y-4.1339
X3.3465Y-4.2323
X3.3465Y-4.3307
X3.3465Y-4.4291
X3.3465Y-4.5157
X3.4449Y-3.248
X3.4449Y-3.3465
X3.4449Y-3.4449
X3.4449Y-3.8386
X3.4449Y-3.937
X3.4449Y-4.0354
X3.4449Y-4.1339
X3.4449Y-4.2323
X3.4449Y-4.3307
X3.4449Y-4.4291
X3.4449Y-4.5157
T2
X1.9252Y-4.2795
X1.9252Y-4.3583
T3
X2.8703Y-3.6732
X2.9703Y-3.6654
X3.0703Y-3.6732
X3.1703Y-3.6654
X3.2703Y-3.6732
X3.3703Y-3.6654
T0
M30
