%TF.GenerationSoftware,KiCad,Pcbnew,(5.1.10-1-10_14)*%
%TF.CreationDate,2021-06-21T19:24:18+01:00*%
%TF.ProjectId,IAQ_Project,4941515f-5072-46f6-9a65-63742e6b6963,rev?*%
%TF.SameCoordinates,Original*%
%TF.FileFunction,Soldermask,Top*%
%TF.FilePolarity,Negative*%
%FSLAX46Y46*%
G04 Gerber Fmt 4.6, Leading zero omitted, Abs format (unit mm)*
G04 Created by KiCad (PCBNEW (5.1.10-1-10_14)) date 2021-06-21 19:24:18*
%MOMM*%
%LPD*%
G01*
G04 APERTURE LIST*
%ADD10C,2.700000*%
%ADD11R,5.000000X5.000000*%
%ADD12R,0.900000X2.000000*%
%ADD13R,2.000000X0.900000*%
%ADD14R,1.060000X0.650000*%
%ADD15R,2.000000X3.800000*%
%ADD16R,2.000000X1.500000*%
%ADD17R,2.300000X1.900000*%
%ADD18R,0.400000X1.400000*%
%ADD19R,1.400000X1.050000*%
%ADD20C,0.700000*%
%ADD21R,1.500000X0.650000*%
%ADD22R,2.700000X3.600000*%
%ADD23R,1.350000X1.350000*%
%ADD24O,1.350000X1.350000*%
%ADD25O,1.700000X1.700000*%
%ADD26R,1.700000X1.700000*%
%ADD27R,0.500000X0.800000*%
%ADD28R,0.400000X0.800000*%
G04 APERTURE END LIST*
D10*
%TO.C,REF\u002A\u002A*%
X86350000Y-78950000D03*
%TD*%
%TO.C,REF\u002A\u002A*%
X86350000Y-118050000D03*
%TD*%
%TO.C,REF\u002A\u002A*%
X46950000Y-118050000D03*
%TD*%
D11*
%TO.C,U3*%
X58500000Y-92700000D03*
D12*
X51000000Y-100200000D03*
X52270000Y-100200000D03*
X53540000Y-100200000D03*
X54810000Y-100200000D03*
X56080000Y-100200000D03*
X57350000Y-100200000D03*
X58620000Y-100200000D03*
X59890000Y-100200000D03*
X61160000Y-100200000D03*
X62430000Y-100200000D03*
X63700000Y-100200000D03*
X64970000Y-100200000D03*
X66240000Y-100200000D03*
X67510000Y-100200000D03*
D13*
X68510000Y-97415000D03*
X68510000Y-96145000D03*
X68510000Y-94875000D03*
X68510000Y-93605000D03*
X68510000Y-92335000D03*
X68510000Y-91065000D03*
X68510000Y-89795000D03*
X68510000Y-88525000D03*
X68510000Y-87255000D03*
X68510000Y-85985000D03*
D12*
X67510000Y-83200000D03*
X66240000Y-83200000D03*
X64970000Y-83200000D03*
X63700000Y-83200000D03*
X62430000Y-83200000D03*
X61160000Y-83200000D03*
X59890000Y-83200000D03*
X58620000Y-83200000D03*
X57350000Y-83200000D03*
X56080000Y-83200000D03*
X54810000Y-83200000D03*
X53540000Y-83200000D03*
X52270000Y-83200000D03*
X51000000Y-83200000D03*
%TD*%
%TO.C,U1*%
G36*
G01*
X72875000Y-82000000D02*
X72600000Y-82000000D01*
G75*
G02*
X72475000Y-81875000I0J125000D01*
G01*
X72475000Y-81625000D01*
G75*
G02*
X72600000Y-81500000I125000J0D01*
G01*
X72875000Y-81500000D01*
G75*
G02*
X73000000Y-81625000I0J-125000D01*
G01*
X73000000Y-81875000D01*
G75*
G02*
X72875000Y-82000000I-125000J0D01*
G01*
G37*
G36*
G01*
X72875000Y-81200000D02*
X72600000Y-81200000D01*
G75*
G02*
X72475000Y-81075000I0J125000D01*
G01*
X72475000Y-80825000D01*
G75*
G02*
X72600000Y-80700000I125000J0D01*
G01*
X72875000Y-80700000D01*
G75*
G02*
X73000000Y-80825000I0J-125000D01*
G01*
X73000000Y-81075000D01*
G75*
G02*
X72875000Y-81200000I-125000J0D01*
G01*
G37*
G36*
G01*
X72875000Y-80400000D02*
X72600000Y-80400000D01*
G75*
G02*
X72475000Y-80275000I0J125000D01*
G01*
X72475000Y-80025000D01*
G75*
G02*
X72600000Y-79900000I125000J0D01*
G01*
X72875000Y-79900000D01*
G75*
G02*
X73000000Y-80025000I0J-125000D01*
G01*
X73000000Y-80275000D01*
G75*
G02*
X72875000Y-80400000I-125000J0D01*
G01*
G37*
G36*
G01*
X72875000Y-79600000D02*
X72600000Y-79600000D01*
G75*
G02*
X72475000Y-79475000I0J125000D01*
G01*
X72475000Y-79225000D01*
G75*
G02*
X72600000Y-79100000I125000J0D01*
G01*
X72875000Y-79100000D01*
G75*
G02*
X73000000Y-79225000I0J-125000D01*
G01*
X73000000Y-79475000D01*
G75*
G02*
X72875000Y-79600000I-125000J0D01*
G01*
G37*
G36*
G01*
X75250000Y-79600000D02*
X74975000Y-79600000D01*
G75*
G02*
X74850000Y-79475000I0J125000D01*
G01*
X74850000Y-79225000D01*
G75*
G02*
X74975000Y-79100000I125000J0D01*
G01*
X75250000Y-79100000D01*
G75*
G02*
X75375000Y-79225000I0J-125000D01*
G01*
X75375000Y-79475000D01*
G75*
G02*
X75250000Y-79600000I-125000J0D01*
G01*
G37*
G36*
G01*
X75250000Y-80400000D02*
X74975000Y-80400000D01*
G75*
G02*
X74850000Y-80275000I0J125000D01*
G01*
X74850000Y-80025000D01*
G75*
G02*
X74975000Y-79900000I125000J0D01*
G01*
X75250000Y-79900000D01*
G75*
G02*
X75375000Y-80025000I0J-125000D01*
G01*
X75375000Y-80275000D01*
G75*
G02*
X75250000Y-80400000I-125000J0D01*
G01*
G37*
G36*
G01*
X75250000Y-81200000D02*
X74975000Y-81200000D01*
G75*
G02*
X74850000Y-81075000I0J125000D01*
G01*
X74850000Y-80825000D01*
G75*
G02*
X74975000Y-80700000I125000J0D01*
G01*
X75250000Y-80700000D01*
G75*
G02*
X75375000Y-80825000I0J-125000D01*
G01*
X75375000Y-81075000D01*
G75*
G02*
X75250000Y-81200000I-125000J0D01*
G01*
G37*
G36*
G01*
X75250000Y-82000000D02*
X74975000Y-82000000D01*
G75*
G02*
X74850000Y-81875000I0J125000D01*
G01*
X74850000Y-81625000D01*
G75*
G02*
X74975000Y-81500000I125000J0D01*
G01*
X75250000Y-81500000D01*
G75*
G02*
X75375000Y-81625000I0J-125000D01*
G01*
X75375000Y-81875000D01*
G75*
G02*
X75250000Y-82000000I-125000J0D01*
G01*
G37*
%TD*%
D14*
%TO.C,U2*%
X77550000Y-79600000D03*
X77550000Y-80550000D03*
X77550000Y-81500000D03*
X79750000Y-81500000D03*
X79750000Y-79600000D03*
%TD*%
D15*
%TO.C,U4*%
X77250000Y-111000000D03*
D16*
X70950000Y-111000000D03*
X70950000Y-113300000D03*
X70950000Y-108700000D03*
%TD*%
%TO.C,C3*%
G36*
G01*
X76600000Y-103750000D02*
X76600000Y-104850000D01*
G75*
G02*
X76350000Y-105100000I-250000J0D01*
G01*
X73850000Y-105100000D01*
G75*
G02*
X73600000Y-104850000I0J250000D01*
G01*
X73600000Y-103750000D01*
G75*
G02*
X73850000Y-103500000I250000J0D01*
G01*
X76350000Y-103500000D01*
G75*
G02*
X76600000Y-103750000I0J-250000D01*
G01*
G37*
G36*
G01*
X72200000Y-103750000D02*
X72200000Y-104850000D01*
G75*
G02*
X71950000Y-105100000I-250000J0D01*
G01*
X69450000Y-105100000D01*
G75*
G02*
X69200000Y-104850000I0J250000D01*
G01*
X69200000Y-103750000D01*
G75*
G02*
X69450000Y-103500000I250000J0D01*
G01*
X71950000Y-103500000D01*
G75*
G02*
X72200000Y-103750000I0J-250000D01*
G01*
G37*
%TD*%
%TO.C,C1*%
G36*
G01*
X78900000Y-78050000D02*
X78900000Y-77100000D01*
G75*
G02*
X79150000Y-76850000I250000J0D01*
G01*
X79650000Y-76850000D01*
G75*
G02*
X79900000Y-77100000I0J-250000D01*
G01*
X79900000Y-78050000D01*
G75*
G02*
X79650000Y-78300000I-250000J0D01*
G01*
X79150000Y-78300000D01*
G75*
G02*
X78900000Y-78050000I0J250000D01*
G01*
G37*
G36*
G01*
X77000000Y-78050000D02*
X77000000Y-77100000D01*
G75*
G02*
X77250000Y-76850000I250000J0D01*
G01*
X77750000Y-76850000D01*
G75*
G02*
X78000000Y-77100000I0J-250000D01*
G01*
X78000000Y-78050000D01*
G75*
G02*
X77750000Y-78300000I-250000J0D01*
G01*
X77250000Y-78300000D01*
G75*
G02*
X77000000Y-78050000I0J250000D01*
G01*
G37*
%TD*%
%TO.C,C2*%
G36*
G01*
X81875000Y-79000000D02*
X82825000Y-79000000D01*
G75*
G02*
X83075000Y-79250000I0J-250000D01*
G01*
X83075000Y-79750000D01*
G75*
G02*
X82825000Y-80000000I-250000J0D01*
G01*
X81875000Y-80000000D01*
G75*
G02*
X81625000Y-79750000I0J250000D01*
G01*
X81625000Y-79250000D01*
G75*
G02*
X81875000Y-79000000I250000J0D01*
G01*
G37*
G36*
G01*
X81875000Y-80900000D02*
X82825000Y-80900000D01*
G75*
G02*
X83075000Y-81150000I0J-250000D01*
G01*
X83075000Y-81650000D01*
G75*
G02*
X82825000Y-81900000I-250000J0D01*
G01*
X81875000Y-81900000D01*
G75*
G02*
X81625000Y-81650000I0J250000D01*
G01*
X81625000Y-81150000D01*
G75*
G02*
X81875000Y-80900000I250000J0D01*
G01*
G37*
%TD*%
%TO.C,C4*%
G36*
G01*
X68675000Y-113800000D02*
X67725000Y-113800000D01*
G75*
G02*
X67475000Y-113550000I0J250000D01*
G01*
X67475000Y-113050000D01*
G75*
G02*
X67725000Y-112800000I250000J0D01*
G01*
X68675000Y-112800000D01*
G75*
G02*
X68925000Y-113050000I0J-250000D01*
G01*
X68925000Y-113550000D01*
G75*
G02*
X68675000Y-113800000I-250000J0D01*
G01*
G37*
G36*
G01*
X68675000Y-111900000D02*
X67725000Y-111900000D01*
G75*
G02*
X67475000Y-111650000I0J250000D01*
G01*
X67475000Y-111150000D01*
G75*
G02*
X67725000Y-110900000I250000J0D01*
G01*
X68675000Y-110900000D01*
G75*
G02*
X68925000Y-111150000I0J-250000D01*
G01*
X68925000Y-111650000D01*
G75*
G02*
X68675000Y-111900000I-250000J0D01*
G01*
G37*
%TD*%
%TO.C,C5*%
G36*
G01*
X73050000Y-97775000D02*
X73050000Y-98725000D01*
G75*
G02*
X72800000Y-98975000I-250000J0D01*
G01*
X72300000Y-98975000D01*
G75*
G02*
X72050000Y-98725000I0J250000D01*
G01*
X72050000Y-97775000D01*
G75*
G02*
X72300000Y-97525000I250000J0D01*
G01*
X72800000Y-97525000D01*
G75*
G02*
X73050000Y-97775000I0J-250000D01*
G01*
G37*
G36*
G01*
X71150000Y-97775000D02*
X71150000Y-98725000D01*
G75*
G02*
X70900000Y-98975000I-250000J0D01*
G01*
X70400000Y-98975000D01*
G75*
G02*
X70150000Y-98725000I0J250000D01*
G01*
X70150000Y-97775000D01*
G75*
G02*
X70400000Y-97525000I250000J0D01*
G01*
X70900000Y-97525000D01*
G75*
G02*
X71150000Y-97775000I0J-250000D01*
G01*
G37*
%TD*%
%TO.C,C6*%
G36*
G01*
X52450000Y-106075000D02*
X52450000Y-105125000D01*
G75*
G02*
X52700000Y-104875000I250000J0D01*
G01*
X53200000Y-104875000D01*
G75*
G02*
X53450000Y-105125000I0J-250000D01*
G01*
X53450000Y-106075000D01*
G75*
G02*
X53200000Y-106325000I-250000J0D01*
G01*
X52700000Y-106325000D01*
G75*
G02*
X52450000Y-106075000I0J250000D01*
G01*
G37*
G36*
G01*
X50550000Y-106075000D02*
X50550000Y-105125000D01*
G75*
G02*
X50800000Y-104875000I250000J0D01*
G01*
X51300000Y-104875000D01*
G75*
G02*
X51550000Y-105125000I0J-250000D01*
G01*
X51550000Y-106075000D01*
G75*
G02*
X51300000Y-106325000I-250000J0D01*
G01*
X50800000Y-106325000D01*
G75*
G02*
X50550000Y-106075000I0J250000D01*
G01*
G37*
%TD*%
%TO.C,C7*%
G36*
G01*
X53450000Y-102625000D02*
X53450000Y-103575000D01*
G75*
G02*
X53200000Y-103825000I-250000J0D01*
G01*
X52700000Y-103825000D01*
G75*
G02*
X52450000Y-103575000I0J250000D01*
G01*
X52450000Y-102625000D01*
G75*
G02*
X52700000Y-102375000I250000J0D01*
G01*
X53200000Y-102375000D01*
G75*
G02*
X53450000Y-102625000I0J-250000D01*
G01*
G37*
G36*
G01*
X51550000Y-102625000D02*
X51550000Y-103575000D01*
G75*
G02*
X51300000Y-103825000I-250000J0D01*
G01*
X50800000Y-103825000D01*
G75*
G02*
X50550000Y-103575000I0J250000D01*
G01*
X50550000Y-102625000D01*
G75*
G02*
X50800000Y-102375000I250000J0D01*
G01*
X51300000Y-102375000D01*
G75*
G02*
X51550000Y-102625000I0J-250000D01*
G01*
G37*
%TD*%
%TO.C,C8*%
G36*
G01*
X64370000Y-114330000D02*
X64030000Y-114330000D01*
G75*
G02*
X63890000Y-114190000I0J140000D01*
G01*
X63890000Y-113910000D01*
G75*
G02*
X64030000Y-113770000I140000J0D01*
G01*
X64370000Y-113770000D01*
G75*
G02*
X64510000Y-113910000I0J-140000D01*
G01*
X64510000Y-114190000D01*
G75*
G02*
X64370000Y-114330000I-140000J0D01*
G01*
G37*
G36*
G01*
X64370000Y-113370000D02*
X64030000Y-113370000D01*
G75*
G02*
X63890000Y-113230000I0J140000D01*
G01*
X63890000Y-112950000D01*
G75*
G02*
X64030000Y-112810000I140000J0D01*
G01*
X64370000Y-112810000D01*
G75*
G02*
X64510000Y-112950000I0J-140000D01*
G01*
X64510000Y-113230000D01*
G75*
G02*
X64370000Y-113370000I-140000J0D01*
G01*
G37*
%TD*%
%TO.C,C9*%
G36*
G01*
X57730000Y-107900000D02*
X58070000Y-107900000D01*
G75*
G02*
X58210000Y-108040000I0J-140000D01*
G01*
X58210000Y-108320000D01*
G75*
G02*
X58070000Y-108460000I-140000J0D01*
G01*
X57730000Y-108460000D01*
G75*
G02*
X57590000Y-108320000I0J140000D01*
G01*
X57590000Y-108040000D01*
G75*
G02*
X57730000Y-107900000I140000J0D01*
G01*
G37*
G36*
G01*
X57730000Y-106940000D02*
X58070000Y-106940000D01*
G75*
G02*
X58210000Y-107080000I0J-140000D01*
G01*
X58210000Y-107360000D01*
G75*
G02*
X58070000Y-107500000I-140000J0D01*
G01*
X57730000Y-107500000D01*
G75*
G02*
X57590000Y-107360000I0J140000D01*
G01*
X57590000Y-107080000D01*
G75*
G02*
X57730000Y-106940000I140000J0D01*
G01*
G37*
%TD*%
%TO.C,C10*%
G36*
G01*
X59630000Y-108475000D02*
X59630000Y-107525000D01*
G75*
G02*
X59795000Y-107360000I165000J0D01*
G01*
X60125000Y-107360000D01*
G75*
G02*
X60290000Y-107525000I0J-165000D01*
G01*
X60290000Y-108475000D01*
G75*
G02*
X60125000Y-108640000I-165000J0D01*
G01*
X59795000Y-108640000D01*
G75*
G02*
X59630000Y-108475000I0J165000D01*
G01*
G37*
G36*
G01*
X60710000Y-108475000D02*
X60710000Y-107525000D01*
G75*
G02*
X60875000Y-107360000I165000J0D01*
G01*
X61205000Y-107360000D01*
G75*
G02*
X61370000Y-107525000I0J-165000D01*
G01*
X61370000Y-108475000D01*
G75*
G02*
X61205000Y-108640000I-165000J0D01*
G01*
X60875000Y-108640000D01*
G75*
G02*
X60710000Y-108475000I0J165000D01*
G01*
G37*
%TD*%
%TO.C,D1*%
G36*
G01*
X53456250Y-115425000D02*
X52543750Y-115425000D01*
G75*
G02*
X52300000Y-115181250I0J243750D01*
G01*
X52300000Y-114693750D01*
G75*
G02*
X52543750Y-114450000I243750J0D01*
G01*
X53456250Y-114450000D01*
G75*
G02*
X53700000Y-114693750I0J-243750D01*
G01*
X53700000Y-115181250D01*
G75*
G02*
X53456250Y-115425000I-243750J0D01*
G01*
G37*
G36*
G01*
X53456250Y-113550000D02*
X52543750Y-113550000D01*
G75*
G02*
X52300000Y-113306250I0J243750D01*
G01*
X52300000Y-112818750D01*
G75*
G02*
X52543750Y-112575000I243750J0D01*
G01*
X53456250Y-112575000D01*
G75*
G02*
X53700000Y-112818750I0J-243750D01*
G01*
X53700000Y-113306250D01*
G75*
G02*
X53456250Y-113550000I-243750J0D01*
G01*
G37*
%TD*%
%TO.C,D2*%
G36*
G01*
X52543750Y-110450000D02*
X53456250Y-110450000D01*
G75*
G02*
X53700000Y-110693750I0J-243750D01*
G01*
X53700000Y-111181250D01*
G75*
G02*
X53456250Y-111425000I-243750J0D01*
G01*
X52543750Y-111425000D01*
G75*
G02*
X52300000Y-111181250I0J243750D01*
G01*
X52300000Y-110693750D01*
G75*
G02*
X52543750Y-110450000I243750J0D01*
G01*
G37*
G36*
G01*
X52543750Y-108575000D02*
X53456250Y-108575000D01*
G75*
G02*
X53700000Y-108818750I0J-243750D01*
G01*
X53700000Y-109306250D01*
G75*
G02*
X53456250Y-109550000I-243750J0D01*
G01*
X52543750Y-109550000D01*
G75*
G02*
X52300000Y-109306250I0J243750D01*
G01*
X52300000Y-108818750D01*
G75*
G02*
X52543750Y-108575000I243750J0D01*
G01*
G37*
%TD*%
%TO.C,D3*%
G36*
G01*
X61773750Y-76455000D02*
X62686250Y-76455000D01*
G75*
G02*
X62930000Y-76698750I0J-243750D01*
G01*
X62930000Y-77186250D01*
G75*
G02*
X62686250Y-77430000I-243750J0D01*
G01*
X61773750Y-77430000D01*
G75*
G02*
X61530000Y-77186250I0J243750D01*
G01*
X61530000Y-76698750D01*
G75*
G02*
X61773750Y-76455000I243750J0D01*
G01*
G37*
G36*
G01*
X61773750Y-78330000D02*
X62686250Y-78330000D01*
G75*
G02*
X62930000Y-78573750I0J-243750D01*
G01*
X62930000Y-79061250D01*
G75*
G02*
X62686250Y-79305000I-243750J0D01*
G01*
X61773750Y-79305000D01*
G75*
G02*
X61530000Y-79061250I0J243750D01*
G01*
X61530000Y-78573750D01*
G75*
G02*
X61773750Y-78330000I243750J0D01*
G01*
G37*
%TD*%
D17*
%TO.C,J2*%
X70400000Y-119600000D03*
D18*
X67950000Y-116750000D03*
D17*
X62900000Y-119600000D03*
D18*
X65350000Y-116750000D03*
X66000000Y-116750000D03*
X66650000Y-116750000D03*
X67300000Y-116750000D03*
%TD*%
%TO.C,R1*%
G36*
G01*
X55275000Y-115225000D02*
X54725000Y-115225000D01*
G75*
G02*
X54525000Y-115025000I0J200000D01*
G01*
X54525000Y-114625000D01*
G75*
G02*
X54725000Y-114425000I200000J0D01*
G01*
X55275000Y-114425000D01*
G75*
G02*
X55475000Y-114625000I0J-200000D01*
G01*
X55475000Y-115025000D01*
G75*
G02*
X55275000Y-115225000I-200000J0D01*
G01*
G37*
G36*
G01*
X55275000Y-113575000D02*
X54725000Y-113575000D01*
G75*
G02*
X54525000Y-113375000I0J200000D01*
G01*
X54525000Y-112975000D01*
G75*
G02*
X54725000Y-112775000I200000J0D01*
G01*
X55275000Y-112775000D01*
G75*
G02*
X55475000Y-112975000I0J-200000D01*
G01*
X55475000Y-113375000D01*
G75*
G02*
X55275000Y-113575000I-200000J0D01*
G01*
G37*
%TD*%
%TO.C,R2*%
G36*
G01*
X62975000Y-108075000D02*
X62975000Y-107525000D01*
G75*
G02*
X63175000Y-107325000I200000J0D01*
G01*
X63575000Y-107325000D01*
G75*
G02*
X63775000Y-107525000I0J-200000D01*
G01*
X63775000Y-108075000D01*
G75*
G02*
X63575000Y-108275000I-200000J0D01*
G01*
X63175000Y-108275000D01*
G75*
G02*
X62975000Y-108075000I0J200000D01*
G01*
G37*
G36*
G01*
X64625000Y-108075000D02*
X64625000Y-107525000D01*
G75*
G02*
X64825000Y-107325000I200000J0D01*
G01*
X65225000Y-107325000D01*
G75*
G02*
X65425000Y-107525000I0J-200000D01*
G01*
X65425000Y-108075000D01*
G75*
G02*
X65225000Y-108275000I-200000J0D01*
G01*
X64825000Y-108275000D01*
G75*
G02*
X64625000Y-108075000I0J200000D01*
G01*
G37*
%TD*%
%TO.C,R3*%
G36*
G01*
X54725000Y-110425000D02*
X55275000Y-110425000D01*
G75*
G02*
X55475000Y-110625000I0J-200000D01*
G01*
X55475000Y-111025000D01*
G75*
G02*
X55275000Y-111225000I-200000J0D01*
G01*
X54725000Y-111225000D01*
G75*
G02*
X54525000Y-111025000I0J200000D01*
G01*
X54525000Y-110625000D01*
G75*
G02*
X54725000Y-110425000I200000J0D01*
G01*
G37*
G36*
G01*
X54725000Y-108775000D02*
X55275000Y-108775000D01*
G75*
G02*
X55475000Y-108975000I0J-200000D01*
G01*
X55475000Y-109375000D01*
G75*
G02*
X55275000Y-109575000I-200000J0D01*
G01*
X54725000Y-109575000D01*
G75*
G02*
X54525000Y-109375000I0J200000D01*
G01*
X54525000Y-108975000D01*
G75*
G02*
X54725000Y-108775000I200000J0D01*
G01*
G37*
%TD*%
%TO.C,R4*%
G36*
G01*
X64225000Y-109325000D02*
X64775000Y-109325000D01*
G75*
G02*
X64975000Y-109525000I0J-200000D01*
G01*
X64975000Y-109925000D01*
G75*
G02*
X64775000Y-110125000I-200000J0D01*
G01*
X64225000Y-110125000D01*
G75*
G02*
X64025000Y-109925000I0J200000D01*
G01*
X64025000Y-109525000D01*
G75*
G02*
X64225000Y-109325000I200000J0D01*
G01*
G37*
G36*
G01*
X64225000Y-110975000D02*
X64775000Y-110975000D01*
G75*
G02*
X64975000Y-111175000I0J-200000D01*
G01*
X64975000Y-111575000D01*
G75*
G02*
X64775000Y-111775000I-200000J0D01*
G01*
X64225000Y-111775000D01*
G75*
G02*
X64025000Y-111575000I0J200000D01*
G01*
X64025000Y-111175000D01*
G75*
G02*
X64225000Y-110975000I200000J0D01*
G01*
G37*
%TD*%
%TO.C,R5*%
G36*
G01*
X71825000Y-100675000D02*
X71825000Y-100125000D01*
G75*
G02*
X72025000Y-99925000I200000J0D01*
G01*
X72425000Y-99925000D01*
G75*
G02*
X72625000Y-100125000I0J-200000D01*
G01*
X72625000Y-100675000D01*
G75*
G02*
X72425000Y-100875000I-200000J0D01*
G01*
X72025000Y-100875000D01*
G75*
G02*
X71825000Y-100675000I0J200000D01*
G01*
G37*
G36*
G01*
X70175000Y-100675000D02*
X70175000Y-100125000D01*
G75*
G02*
X70375000Y-99925000I200000J0D01*
G01*
X70775000Y-99925000D01*
G75*
G02*
X70975000Y-100125000I0J-200000D01*
G01*
X70975000Y-100675000D01*
G75*
G02*
X70775000Y-100875000I-200000J0D01*
G01*
X70375000Y-100875000D01*
G75*
G02*
X70175000Y-100675000I0J200000D01*
G01*
G37*
%TD*%
%TO.C,R6*%
G36*
G01*
X67125000Y-81325000D02*
X67125000Y-80775000D01*
G75*
G02*
X67325000Y-80575000I200000J0D01*
G01*
X67725000Y-80575000D01*
G75*
G02*
X67925000Y-80775000I0J-200000D01*
G01*
X67925000Y-81325000D01*
G75*
G02*
X67725000Y-81525000I-200000J0D01*
G01*
X67325000Y-81525000D01*
G75*
G02*
X67125000Y-81325000I0J200000D01*
G01*
G37*
G36*
G01*
X68775000Y-81325000D02*
X68775000Y-80775000D01*
G75*
G02*
X68975000Y-80575000I200000J0D01*
G01*
X69375000Y-80575000D01*
G75*
G02*
X69575000Y-80775000I0J-200000D01*
G01*
X69575000Y-81325000D01*
G75*
G02*
X69375000Y-81525000I-200000J0D01*
G01*
X68975000Y-81525000D01*
G75*
G02*
X68775000Y-81325000I0J200000D01*
G01*
G37*
%TD*%
%TO.C,R7*%
G36*
G01*
X70175000Y-87725000D02*
X70175000Y-87175000D01*
G75*
G02*
X70375000Y-86975000I200000J0D01*
G01*
X70775000Y-86975000D01*
G75*
G02*
X70975000Y-87175000I0J-200000D01*
G01*
X70975000Y-87725000D01*
G75*
G02*
X70775000Y-87925000I-200000J0D01*
G01*
X70375000Y-87925000D01*
G75*
G02*
X70175000Y-87725000I0J200000D01*
G01*
G37*
G36*
G01*
X71825000Y-87725000D02*
X71825000Y-87175000D01*
G75*
G02*
X72025000Y-86975000I200000J0D01*
G01*
X72425000Y-86975000D01*
G75*
G02*
X72625000Y-87175000I0J-200000D01*
G01*
X72625000Y-87725000D01*
G75*
G02*
X72425000Y-87925000I-200000J0D01*
G01*
X72025000Y-87925000D01*
G75*
G02*
X71825000Y-87725000I0J200000D01*
G01*
G37*
%TD*%
%TO.C,R8*%
G36*
G01*
X71825000Y-86075000D02*
X71825000Y-85525000D01*
G75*
G02*
X72025000Y-85325000I200000J0D01*
G01*
X72425000Y-85325000D01*
G75*
G02*
X72625000Y-85525000I0J-200000D01*
G01*
X72625000Y-86075000D01*
G75*
G02*
X72425000Y-86275000I-200000J0D01*
G01*
X72025000Y-86275000D01*
G75*
G02*
X71825000Y-86075000I0J200000D01*
G01*
G37*
G36*
G01*
X70175000Y-86075000D02*
X70175000Y-85525000D01*
G75*
G02*
X70375000Y-85325000I200000J0D01*
G01*
X70775000Y-85325000D01*
G75*
G02*
X70975000Y-85525000I0J-200000D01*
G01*
X70975000Y-86075000D01*
G75*
G02*
X70775000Y-86275000I-200000J0D01*
G01*
X70375000Y-86275000D01*
G75*
G02*
X70175000Y-86075000I0J200000D01*
G01*
G37*
%TD*%
%TO.C,R9*%
G36*
G01*
X56125000Y-107775000D02*
X56125000Y-107225000D01*
G75*
G02*
X56325000Y-107025000I200000J0D01*
G01*
X56725000Y-107025000D01*
G75*
G02*
X56925000Y-107225000I0J-200000D01*
G01*
X56925000Y-107775000D01*
G75*
G02*
X56725000Y-107975000I-200000J0D01*
G01*
X56325000Y-107975000D01*
G75*
G02*
X56125000Y-107775000I0J200000D01*
G01*
G37*
G36*
G01*
X54475000Y-107775000D02*
X54475000Y-107225000D01*
G75*
G02*
X54675000Y-107025000I200000J0D01*
G01*
X55075000Y-107025000D01*
G75*
G02*
X55275000Y-107225000I0J-200000D01*
G01*
X55275000Y-107775000D01*
G75*
G02*
X55075000Y-107975000I-200000J0D01*
G01*
X54675000Y-107975000D01*
G75*
G02*
X54475000Y-107775000I0J200000D01*
G01*
G37*
%TD*%
%TO.C,R10*%
G36*
G01*
X60575000Y-77275000D02*
X60025000Y-77275000D01*
G75*
G02*
X59825000Y-77075000I0J200000D01*
G01*
X59825000Y-76675000D01*
G75*
G02*
X60025000Y-76475000I200000J0D01*
G01*
X60575000Y-76475000D01*
G75*
G02*
X60775000Y-76675000I0J-200000D01*
G01*
X60775000Y-77075000D01*
G75*
G02*
X60575000Y-77275000I-200000J0D01*
G01*
G37*
G36*
G01*
X60575000Y-78925000D02*
X60025000Y-78925000D01*
G75*
G02*
X59825000Y-78725000I0J200000D01*
G01*
X59825000Y-78325000D01*
G75*
G02*
X60025000Y-78125000I200000J0D01*
G01*
X60575000Y-78125000D01*
G75*
G02*
X60775000Y-78325000I0J-200000D01*
G01*
X60775000Y-78725000D01*
G75*
G02*
X60575000Y-78925000I-200000J0D01*
G01*
G37*
%TD*%
%TO.C,R11*%
G36*
G01*
X70175000Y-96425000D02*
X70175000Y-95875000D01*
G75*
G02*
X70375000Y-95675000I200000J0D01*
G01*
X70775000Y-95675000D01*
G75*
G02*
X70975000Y-95875000I0J-200000D01*
G01*
X70975000Y-96425000D01*
G75*
G02*
X70775000Y-96625000I-200000J0D01*
G01*
X70375000Y-96625000D01*
G75*
G02*
X70175000Y-96425000I0J200000D01*
G01*
G37*
G36*
G01*
X71825000Y-96425000D02*
X71825000Y-95875000D01*
G75*
G02*
X72025000Y-95675000I200000J0D01*
G01*
X72425000Y-95675000D01*
G75*
G02*
X72625000Y-95875000I0J-200000D01*
G01*
X72625000Y-96425000D01*
G75*
G02*
X72425000Y-96625000I-200000J0D01*
G01*
X72025000Y-96625000D01*
G75*
G02*
X71825000Y-96425000I0J200000D01*
G01*
G37*
%TD*%
D19*
%TO.C,SW1*%
X64850000Y-78220000D03*
X68450000Y-78220000D03*
X64850000Y-76780000D03*
X68450000Y-76780000D03*
D20*
X66650000Y-78400000D03*
X66650000Y-76600000D03*
%TD*%
D14*
%TO.C,U5*%
X57140000Y-105350000D03*
X57140000Y-104400000D03*
X57140000Y-103450000D03*
X54940000Y-103450000D03*
X54940000Y-105350000D03*
X54940000Y-104400000D03*
%TD*%
D21*
%TO.C,U6*%
X62390000Y-113665000D03*
X62390000Y-112395000D03*
X62390000Y-111125000D03*
X62390000Y-109855000D03*
X56990000Y-109855000D03*
X56990000Y-111125000D03*
X56990000Y-112395000D03*
X56990000Y-113665000D03*
D22*
X59690000Y-111760000D03*
%TD*%
%TO.C,U7*%
G36*
G01*
X58900000Y-103425000D02*
X58900000Y-103225000D01*
G75*
G02*
X59000000Y-103125000I100000J0D01*
G01*
X60275000Y-103125000D01*
G75*
G02*
X60375000Y-103225000I0J-100000D01*
G01*
X60375000Y-103425000D01*
G75*
G02*
X60275000Y-103525000I-100000J0D01*
G01*
X59000000Y-103525000D01*
G75*
G02*
X58900000Y-103425000I0J100000D01*
G01*
G37*
G36*
G01*
X58900000Y-104075000D02*
X58900000Y-103875000D01*
G75*
G02*
X59000000Y-103775000I100000J0D01*
G01*
X60275000Y-103775000D01*
G75*
G02*
X60375000Y-103875000I0J-100000D01*
G01*
X60375000Y-104075000D01*
G75*
G02*
X60275000Y-104175000I-100000J0D01*
G01*
X59000000Y-104175000D01*
G75*
G02*
X58900000Y-104075000I0J100000D01*
G01*
G37*
G36*
G01*
X58900000Y-104725000D02*
X58900000Y-104525000D01*
G75*
G02*
X59000000Y-104425000I100000J0D01*
G01*
X60275000Y-104425000D01*
G75*
G02*
X60375000Y-104525000I0J-100000D01*
G01*
X60375000Y-104725000D01*
G75*
G02*
X60275000Y-104825000I-100000J0D01*
G01*
X59000000Y-104825000D01*
G75*
G02*
X58900000Y-104725000I0J100000D01*
G01*
G37*
G36*
G01*
X58900000Y-105375000D02*
X58900000Y-105175000D01*
G75*
G02*
X59000000Y-105075000I100000J0D01*
G01*
X60275000Y-105075000D01*
G75*
G02*
X60375000Y-105175000I0J-100000D01*
G01*
X60375000Y-105375000D01*
G75*
G02*
X60275000Y-105475000I-100000J0D01*
G01*
X59000000Y-105475000D01*
G75*
G02*
X58900000Y-105375000I0J100000D01*
G01*
G37*
G36*
G01*
X64625000Y-105375000D02*
X64625000Y-105175000D01*
G75*
G02*
X64725000Y-105075000I100000J0D01*
G01*
X66000000Y-105075000D01*
G75*
G02*
X66100000Y-105175000I0J-100000D01*
G01*
X66100000Y-105375000D01*
G75*
G02*
X66000000Y-105475000I-100000J0D01*
G01*
X64725000Y-105475000D01*
G75*
G02*
X64625000Y-105375000I0J100000D01*
G01*
G37*
G36*
G01*
X64625000Y-104725000D02*
X64625000Y-104525000D01*
G75*
G02*
X64725000Y-104425000I100000J0D01*
G01*
X66000000Y-104425000D01*
G75*
G02*
X66100000Y-104525000I0J-100000D01*
G01*
X66100000Y-104725000D01*
G75*
G02*
X66000000Y-104825000I-100000J0D01*
G01*
X64725000Y-104825000D01*
G75*
G02*
X64625000Y-104725000I0J100000D01*
G01*
G37*
G36*
G01*
X64625000Y-104075000D02*
X64625000Y-103875000D01*
G75*
G02*
X64725000Y-103775000I100000J0D01*
G01*
X66000000Y-103775000D01*
G75*
G02*
X66100000Y-103875000I0J-100000D01*
G01*
X66100000Y-104075000D01*
G75*
G02*
X66000000Y-104175000I-100000J0D01*
G01*
X64725000Y-104175000D01*
G75*
G02*
X64625000Y-104075000I0J100000D01*
G01*
G37*
G36*
G01*
X64625000Y-103425000D02*
X64625000Y-103225000D01*
G75*
G02*
X64725000Y-103125000I100000J0D01*
G01*
X66000000Y-103125000D01*
G75*
G02*
X66100000Y-103225000I0J-100000D01*
G01*
X66100000Y-103425000D01*
G75*
G02*
X66000000Y-103525000I-100000J0D01*
G01*
X64725000Y-103525000D01*
G75*
G02*
X64625000Y-103425000I0J100000D01*
G01*
G37*
%TD*%
D23*
%TO.C,J3*%
X48900000Y-110700000D03*
D24*
X48900000Y-108700000D03*
%TD*%
D25*
%TO.C,J1*%
X80525000Y-93100000D03*
X83065000Y-93300000D03*
X72905000Y-93300000D03*
X75445000Y-93100000D03*
X77985000Y-93300000D03*
D26*
X85605000Y-93100000D03*
%TD*%
D27*
%TO.C,RN1*%
X80225000Y-84400000D03*
D28*
X78625000Y-84400000D03*
X79425000Y-84400000D03*
D27*
X77825000Y-84400000D03*
D28*
X79425000Y-86200000D03*
D27*
X80225000Y-86200000D03*
D28*
X78625000Y-86200000D03*
D27*
X77825000Y-86200000D03*
%TD*%
M02*
